SplineFontDB: 3.2
FontName: IRCompset-Italic
FullName: IRCompset-Italic
FamilyName: IRCompset
Weight: Book
Copyright: Copyright (c) 2022, Information Technology Organization of Iran (ito.gov.ir)
Version: 1.000
ItalicAngle: 0
UnderlinePosition: -1029
UnderlineWidth: 60
Ascent: 1638
Descent: 410
InvalidEm: 0
sfntRevision: 0x00010000
LayerCount: 2
Layer: 0 1 "Back" 1
Layer: 1 1 "Fore" 0
XUID: [1021 420 722297922 2677061]
StyleMap: 0x0001
FSType: 0
OS2Version: 3
OS2_WeightWidthSlopeOnly: 0
OS2_UseTypoMetrics: 0
CreationTime: 1356322528
ModificationTime: 1662614538
PfmFamily: 17
TTFWeight: 400
TTFWidth: 5
LineGap: 0
VLineGap: 0
Panose: 2 0 5 6 0 0 0 9 0 2
OS2TypoAscent: 1921
OS2TypoAOffset: 0
OS2TypoDescent: -1379
OS2TypoDOffset: 0
OS2TypoLinegap: 0
OS2WinAscent: 1921
OS2WinAOffset: 0
OS2WinDescent: 1379
OS2WinDOffset: 0
HheadAscent: 1921
HheadAOffset: 0
HheadDescent: -816
HheadDOffset: 0
OS2SubXSize: 1434
OS2SubYSize: 1331
OS2SubXOff: 0
OS2SubYOff: 293
OS2SupXSize: 1434
OS2SupYSize: 1331
OS2SupXOff: 0
OS2SupYOff: 928
OS2StrikeYSize: 102
OS2StrikeYPos: 530
OS2CapHeight: -1
OS2XHeight: -1
OS2FamilyClass: 2048
OS2Vendor: 'PARS'
OS2CodePages: 20000041.00000000
OS2UnicodeRanges: 00002003.00000000.00000000.00000000
Lookup: 1 1 0 "'isol' Isolated Forms in Arabic lookup 0" { "'isol' Isolated Forms in Arabic lookup 0 subtable"  } ['isol' ('arab' <'dflt' > ) ]
Lookup: 1 1 0 "'init' Initial Forms in Arabic lookup 1" { "'init' Initial Forms in Arabic lookup 1 subtable"  } ['init' ('arab' <'dflt' > ) ]
Lookup: 1 1 0 "'medi' Medial Forms in Arabic lookup 2" { "'medi' Medial Forms in Arabic lookup 2 subtable"  } ['medi' ('arab' <'dflt' > ) ]
Lookup: 1 1 0 "'fina' Terminal Forms in Arabic lookup 3" { "'fina' Terminal Forms in Arabic lookup 3 subtable"  } ['fina' ('arab' <'dflt' > ) ]
Lookup: 4 1 1 "'rlig' Required Ligatures in Arabic lookup 4" { "'rlig' Required Ligatures in Arabic lookup 4 subtable"  } ['rlig' ('arab' <'dflt' > ) ]

StartChar: quotedbl
Encoding: 34 34 1
Width: 589
Flags: W
LayerCount: 2
Fore
SplineSet
-145 1381 m 1,0,-1
 -47 1381 l 1,1,-1
 -2 1072 l 1,2,-1
 -67 1072 l 1,3,-1
 -145 1381 l 1,0,-1
59 1381 m 1,4,-1
 156 1381 l 1,5,-1
 201 1072 l 1,6,-1
 136 1072 l 1,7,-1
 59 1381 l 1,4,-1
EndSplineSet
EndChar

StartChar: numbersign
Encoding: 35 35 2
Width: 1261
Flags: W
LayerCount: 2
Fore
SplineSet
1309 790 m 1,0,-1
 1061 790 l 1,1,-1
 915 471 l 1,2,-1
 1142 471 l 1,3,-1
 1117 357 l 1,4,-1
 860 357 l 1,5,-1
 696 0 l 1,6,-1
 587 0 l 1,7,-1
 751 357 l 1,8,-1
 522 357 l 1,9,-1
 359 0 l 1,10,-1
 250 0 l 1,11,-1
 414 357 l 1,12,-1
 195 357 l 1,13,-1
 220 471 l 1,14,-1
 469 471 l 1,15,-1
 614 790 l 1,16,-1
 387 790 l 1,17,-1
 411 904 l 1,18,-1
 667 904 l 1,19,-1
 832 1261 l 1,20,-1
 942 1261 l 1,21,-1
 776 904 l 1,22,-1
 1006 904 l 1,23,-1
 1170 1261 l 1,24,-1
 1280 1261 l 1,25,-1
 1115 904 l 1,26,-1
 1332 904 l 1,27,-1
 1309 790 l 1,0,-1
954 791 m 1,28,-1
 721 791 l 1,29,-1
 575 469 l 1,30,-1
 806 469 l 1,31,-1
 954 791 l 1,28,-1
EndSplineSet
EndChar

StartChar: dollar
Encoding: 36 36 3
Width: 946
Flags: W
LayerCount: 2
Fore
SplineSet
935 321 m 0,0,1
 909 197 909 197 794.5 108 c 128,-1,2
 680 19 680 19 531 1 c 1,3,-1
 466 -306 l 1,4,-1
 370 -306 l 1,5,-1
 434 -3 l 1,6,7
 344 -3 344 -3 255 18 c 128,-1,8
 166 39 166 39 105 72 c 1,9,-1
 141 244 l 1,10,-1
 154 244 l 1,11,12
 210 192 210 192 287 161 c 128,-1,13
 364 130 364 130 460 122 c 1,14,-1
 537 487 l 1,15,16
 519 494 519 494 490 500.5 c 128,-1,17
 461 507 461 507 441 515 c 0,18,19
 321 549 321 549 281 619 c 128,-1,20
 241 689 241 689 262 792 c 0,21,22
 289 912 289 912 402 1001 c 128,-1,23
 515 1090 515 1090 669 1104 c 1,24,-1
 717 1335 l 1,25,-1
 814 1335 l 1,26,-1
 766 1106 l 1,27,28
 842 1102 842 1102 921 1083.5 c 128,-1,29
 1000 1065 1000 1065 1049 1042 c 1,30,-1
 1012 875 l 1,31,-1
 1000 875 l 1,32,33
 949 916 949 916 884.5 946 c 128,-1,34
 820 976 820 976 740 984 c 1,35,-1
 662 619 l 1,36,37
 690 612 690 612 712.5 606 c 128,-1,38
 735 600 735 600 751 596 c 0,39,40
 861 570 861 570 910.5 502.5 c 128,-1,41
 960 435 960 435 935 321 c 0,0,1
569 632 m 1,42,-1
 644 982 l 1,43,44
 566 976 566 976 505.5 933 c 128,-1,45
 445 890 445 890 429 814 c 0,46,47
 412 739 412 739 441 697.5 c 128,-1,48
 470 656 470 656 569 632 c 1,42,-1
771 299 m 0,49,50
 787 379 787 379 754 417 c 128,-1,51
 721 455 721 455 632 475 c 1,52,-1
 557 124 l 1,53,54
 646 134 646 134 700 176.5 c 128,-1,55
 754 219 754 219 771 299 c 0,49,50
EndSplineSet
EndChar

StartChar: percent
Encoding: 37 37 4
Width: 1446
Flags: W
LayerCount: 2
Fore
SplineSet
1427 1175 m 1,0,-1
 330 -49 l 1,1,-1
 255 -49 l 1,2,-1
 1351 1175 l 1,3,-1
 1427 1175 l 1,0,-1
556 1175 m 0,4,5
 671 1175 671 1175 713.5 1080 c 128,-1,6
 756 985 756 985 730 861 c 0,7,8
 699 715 699 715 610.5 634.5 c 128,-1,9
 522 554 522 554 424 554 c 0,10,11
 356 554 356 554 308 590.5 c 128,-1,12
 260 627 260 627 242 699.5 c 128,-1,13
 224 772 224 772 244 861 c 0,14,15
 262 951 262 951 312 1026 c 128,-1,16
 362 1101 362 1101 428.5 1138 c 128,-1,17
 495 1175 495 1175 556 1175 c 0,4,5
544 1127 m 0,18,19
 500 1127 500 1127 456 1076.5 c 128,-1,20
 412 1026 412 1026 377 864 c 0,21,22
 352 745 352 745 357 684 c 0,23,24
 362 637 362 637 387 612 c 0,25,26
 402 596 402 596 427 596 c 0,27,28
 469 596 469 596 507 640 c 0,29,30
 562 705 562 705 596 857 c 0,31,32
 630 1019 630 1019 602 1084 c 0,33,34
 584 1127 584 1127 544 1127 c 0,18,19
1260 570 m 256,35,36
 1320 570 1320 570 1371 532 c 128,-1,37
 1422 494 1422 494 1439.5 421.5 c 128,-1,38
 1457 349 1457 349 1439 261 c 0,39,40
 1407 111 1407 111 1318 31 c 128,-1,41
 1229 -49 1229 -49 1131 -49 c 0,42,43
 1069 -49 1069 -49 1019 -10 c 128,-1,44
 969 29 969 29 950.5 99.5 c 128,-1,45
 932 170 932 170 952 261 c 0,46,47
 971 350 971 350 1020 423.5 c 128,-1,48
 1069 497 1069 497 1134.5 533.5 c 128,-1,49
 1200 570 1200 570 1260 570 c 256,35,36
1252 525 m 0,50,51
 1211 525 1211 525 1170 479 c 0,52,53
 1120 420 1120 420 1085 255 c 0,54,55
 1052 104 1052 104 1079 44 c 0,56,57
 1100 0 1100 0 1141 0 c 0,58,59
 1179 0 1179 0 1219 46 c 0,60,61
 1272 107 1272 107 1305 259 c 0,62,63
 1339 419 1339 419 1311 482 c 0,64,65
 1294 525 1294 525 1252 525 c 0,50,51
EndSplineSet
EndChar

StartChar: ampersand
Encoding: 38 38 5
Width: 1349
Flags: W
LayerCount: 2
Fore
SplineSet
1042 739 m 1,0,-1
 1397 739 l 1,1,-1
 1391 709 l 1,2,3
 1315 701 1315 701 1275 675 c 128,-1,4
 1235 649 1235 649 1131 514 c 128,-1,5
 1027 379 1027 379 910 262 c 1,6,7
 966 175 966 175 1017.5 139.5 c 128,-1,8
 1069 104 1069 104 1130 104 c 0,9,10
 1187 104 1187 104 1234.5 135.5 c 128,-1,11
 1282 167 1282 167 1312 230 c 1,12,-1
 1340 207 l 1,13,14
 1282 86 1282 86 1201 29 c 128,-1,15
 1120 -28 1120 -28 1029 -28 c 0,16,17
 959 -28 959 -28 895 10.5 c 128,-1,18
 831 49 831 49 766 139 c 1,19,20
 641 45 641 45 550 8.5 c 128,-1,21
 459 -28 459 -28 362 -28 c 0,22,23
 222 -28 222 -28 156 48 c 128,-1,24
 90 124 90 124 111 226 c 0,25,26
 132 329 132 329 228 430.5 c 128,-1,27
 324 532 324 532 550 642 c 1,28,29
 529 730 529 730 527 787 c 128,-1,30
 525 844 525 844 535 895 c 0,31,32
 566 1040 566 1040 689 1115 c 0,33,34
 785 1175 785 1175 891 1175 c 0,35,36
 991 1175 991 1175 1042.5 1115.5 c 128,-1,37
 1094 1056 1094 1056 1074 967 c 0,38,39
 1056 879 1056 879 980.5 810.5 c 128,-1,40
 905 742 905 742 731 664 c 1,41,42
 797 471 797 471 881 311 c 1,43,44
 1066 489 1066 489 1094 612 c 0,45,46
 1101 650 1101 650 1082 680 c 0,47,48
 1069 705 1069 705 1036 709 c 1,49,-1
 1042 739 l 1,0,-1
714 717 m 1,50,51
 830 767 830 767 895 831 c 128,-1,52
 960 895 960 895 977 972 c 0,53,54
 990 1034 990 1034 960.5 1073 c 128,-1,55
 931 1112 931 1112 875 1112 c 0,56,57
 801 1112 801 1112 752.5 1061 c 128,-1,58
 704 1010 704 1010 694 961 c 0,59,60
 685 920 685 920 688.5 868.5 c 128,-1,61
 692 817 692 817 714 717 c 1,50,51
731 189 m 1,62,63
 654 341 654 341 625 410.5 c 128,-1,64
 596 480 596 480 567 585 c 1,65,66
 452 527 452 527 386.5 457 c 128,-1,67
 321 387 321 387 304 304 c 0,68,69
 285 214 285 214 328 145 c 128,-1,70
 371 76 371 76 471 76 c 0,71,72
 524 76 524 76 578 97.5 c 128,-1,73
 632 119 632 119 731 189 c 1,62,63
EndSplineSet
EndChar

StartChar: quotesingle
Encoding: 39 39 6
Width: 319
Flags: W
LayerCount: 2
Fore
SplineSet
-169 1381 m 1,0,-1
 -72 1381 l 1,1,-1
 -26 1072 l 1,2,-1
 -91 1072 l 1,3,-1
 -169 1381 l 1,0,-1
EndSplineSet
EndChar

StartChar: asterisk
Encoding: 42 42 7
Width: 655
Flags: W
LayerCount: 2
Fore
SplineSet
236 604 m 1,0,-1
 261 482 l 2,1,2
 264 470 264 470 259 461.5 c 128,-1,3
 254 453 254 453 242 453 c 2,4,-1
 199 453 l 2,5,6
 192 453 192 453 181 461.5 c 128,-1,7
 170 470 170 470 167 482 c 2,8,-1
 142 604 l 1,9,-1
 76 518 l 1,10,11
 56 503 56 503 28 518 c 1,12,-1
 -3 547 l 2,13,14
 -22 566 -22 566 -7 588 c 2,15,-1
 59 675 l 1,16,-1
 -62 675 l 2,17,18
 -74 675 -74 675 -86 683 c 128,-1,19
 -98 691 -98 691 -101 704 c 2,20,-1
 -109 746 l 2,21,22
 -112 755 -112 755 -103 762.5 c 128,-1,23
 -94 770 -94 770 -82 770 c 2,24,-1
 32 770 l 1,25,-1
 -69 855 l 2,26,27
 -82 865 -82 865 -85.5 877.5 c 128,-1,28
 -89 890 -89 890 -83 902 c 2,29,-1
 -59 929 l 2,30,31
 -52 937 -52 937 -41 936 c 128,-1,32
 -30 935 -30 935 -17 923 c 2,33,-1
 92 834 l 1,34,-1
 65 966 l 2,35,36
 62 976 62 976 68.5 986 c 128,-1,37
 75 996 75 996 82 996 c 2,38,-1
 126 996 l 2,39,40
 138 996 138 996 147 986 c 128,-1,41
 156 976 156 976 159 966 c 2,42,-1
 186 839 l 1,43,-1
 257 929 l 2,44,45
 265 940 265 940 275 941 c 128,-1,46
 285 942 285 942 302 935 c 1,47,-1
 332 902 l 2,48,49
 342 896 342 896 344 885 c 128,-1,50
 346 874 346 874 339 861 c 2,51,-1
 269 770 l 1,52,-1
 402 770 l 2,53,54
 410 770 410 770 422 762.5 c 128,-1,55
 434 755 434 755 436 746 c 2,56,-1
 444 704 l 2,57,58
 447 691 447 691 438.5 683 c 128,-1,59
 430 675 430 675 422 675 c 2,60,-1
 283 675 l 1,61,-1
 397 588 l 1,62,63
 417 566 417 566 407 540 c 1,64,-1
 387 514 l 2,65,66
 370 498 370 498 344 518 c 2,67,-1
 236 604 l 1,0,-1
EndSplineSet
EndChar

StartChar: plus
Encoding: 43 43 8
Width: 718
Flags: W
LayerCount: 2
Fore
SplineSet
139 778 m 1,0,-1
 239 778 l 1,1,-1
 289 541 l 1,2,-1
 526 541 l 1,3,-1
 547 440 l 1,4,-1
 310 440 l 1,5,-1
 361 203 l 1,6,-1
 261 203 l 1,7,-1
 210 440 l 1,8,-1
 -27 440 l 1,9,-1
 -49 541 l 1,10,-1
 189 541 l 1,11,-1
 139 778 l 1,0,-1
EndSplineSet
EndChar

StartChar: hyphen
Encoding: 45 45 9
Width: 718
Flags: W
LayerCount: 2
Fore
SplineSet
526 541 m 1,0,-1
 547 440 l 1,1,-1
 -27 440 l 1,2,-1
 -49 541 l 1,3,-1
 526 541 l 1,0,-1
EndSplineSet
EndChar

StartChar: period
Encoding: 46 46 10
Width: 449
Flags: W
LayerCount: 2
Fore
SplineSet
367 96 m 0,0,1
 375 58 375 58 354.5 32 c 128,-1,2
 334 6 334 6 296 6 c 0,3,4
 278 6 278 6 260 13 c 128,-1,5
 242 20 242 20 227 32 c 128,-1,6
 212 44 212 44 201.5 60.5 c 128,-1,7
 191 77 191 77 187 96 c 0,8,9
 179 134 179 134 200 160 c 128,-1,10
 221 186 221 186 258 186 c 0,11,12
 277 186 277 186 294.5 179 c 128,-1,13
 312 172 312 172 327 160 c 128,-1,14
 342 148 342 148 352.5 131.5 c 128,-1,15
 363 115 363 115 367 96 c 0,0,1
EndSplineSet
EndChar

StartChar: slash
Encoding: 47 47 11
Width: 835
Flags: W
LayerCount: 2
Fore
SplineSet
412 1144 m 1,0,-1
 266 -165 l 1,1,-1
 156 -165 l 1,2,-1
 302 1144 l 1,3,-1
 412 1144 l 1,0,-1
EndSplineSet
EndChar

StartChar: zero
Encoding: 48 48 12
Width: 867
Flags: W
LayerCount: 2
Fore
SplineSet
182 567 m 0,0,1
 224 764 224 764 314 906.5 c 128,-1,2
 404 1049 404 1049 516 1116 c 0,3,4
 605 1172 605 1172 685 1172 c 0,5,6
 817 1172 817 1172 895 1037 c 0,7,8
 990 870 990 870 930 585 c 0,9,10
 887 385 887 385 799.5 245.5 c 128,-1,11
 712 106 712 106 609 43 c 128,-1,12
 506 -20 506 -20 425 -20 c 0,13,14
 260 -20 260 -20 191 174 c 0,15,16
 134 336 134 336 182 567 c 0,0,1
345 546 m 0,17,18
 295 309 295 309 320 159 c 0,19,20
 342 32 342 32 437 32 c 0,21,22
 484 32 484 32 541.5 73.5 c 128,-1,23
 599 115 599 115 645 211 c 0,24,25
 715 357 715 357 771 622 c 0,26,27
 812 819 812 819 801 951 c 0,28,29
 791 1049 791 1049 751 1089 c 0,30,31
 721 1115 721 1115 672 1115 c 0,32,33
 616 1115 616 1115 559 1065 c 0,34,35
 484 994 484 994 429.5 843 c 128,-1,36
 375 692 375 692 345 546 c 0,17,18
EndSplineSet
EndChar

StartChar: one
Encoding: 49 49 13
Width: 867
Flags: W
LayerCount: 2
Fore
SplineSet
422 1036 m 1,0,-1
 731 1172 l 1,1,-1
 759 1172 l 1,2,-1
 552 202 l 2,3,4
 532 106 532 106 535.5 82.5 c 128,-1,5
 539 59 539 59 562 45.5 c 128,-1,6
 585 32 585 32 662 31 c 1,7,-1
 655 0 l 1,8,-1
 224 0 l 1,9,-1
 230 31 l 1,10,11
 311 32 311 32 337.5 44 c 128,-1,12
 364 56 364 56 377.5 77.5 c 128,-1,13
 391 99 391 99 412 202 c 2,14,-1
 545 822 l 2,15,16
 571 947 571 947 571 984 c 0,17,18
 571 1010 571 1010 558 1023 c 128,-1,19
 545 1036 545 1036 522 1036 c 0,20,21
 491 1036 491 1036 429 1010 c 1,22,-1
 422 1036 l 1,0,-1
EndSplineSet
EndChar

StartChar: two
Encoding: 50 50 14
Width: 867
Flags: W
LayerCount: 2
Fore
SplineSet
841 221 m 1,0,-1
 715 0 l 1,1,-1
 36 0 l 1,2,-1
 44 31 l 1,3,4
 401 304 401 304 559 477 c 128,-1,5
 717 650 717 650 749 792 c 0,6,7
 772 901 772 901 719.5 971.5 c 128,-1,8
 667 1042 667 1042 575 1042 c 0,9,10
 490 1042 490 1042 412 993 c 128,-1,11
 334 944 334 944 282 847 c 1,12,-1
 250 847 l 1,13,14
 304 1005 304 1005 409.5 1088.5 c 128,-1,15
 515 1172 515 1172 646 1172 c 0,16,17
 786 1172 786 1172 861 1083 c 128,-1,18
 936 994 936 994 910 870 c 0,19,20
 892 784 892 784 831 696 c 0,21,22
 740 559 740 559 566 405 c 0,23,24
 306 176 306 176 245 127 c 1,25,-1
 545 127 l 2,26,27
 635 127 635 127 674.5 134 c 128,-1,28
 714 141 714 141 747 161.5 c 128,-1,29
 780 182 780 182 810 221 c 1,30,-1
 841 221 l 1,0,-1
EndSplineSet
EndChar

StartChar: three
Encoding: 51 51 15
Width: 867
Flags: W
LayerCount: 2
Fore
SplineSet
285 930 m 1,0,1
 360 1046 360 1046 447.5 1109 c 128,-1,2
 535 1172 535 1172 647 1172 c 0,3,4
 785 1172 785 1172 840 1081 c 0,5,6
 882 1015 882 1015 866 940 c 0,7,8
 839 814 839 814 654 680 c 1,9,10
 750 639 750 639 788 562 c 128,-1,11
 826 485 826 485 802 380 c 0,12,13
 772 231 772 231 654 122 c 0,14,15
 500 -20 500 -20 265 -20 c 0,16,17
 150 -20 150 -20 113.5 8 c 128,-1,18
 77 36 77 36 85 70 c 0,19,20
 90 95 90 95 113.5 113 c 128,-1,21
 137 131 137 131 165 131 c 0,22,23
 186 131 186 131 207 125 c 0,24,25
 221 120 221 120 266 93.5 c 128,-1,26
 311 67 311 67 329 62 c 0,27,28
 359 52 359 52 394 52 c 0,29,30
 480 52 480 52 558.5 119.5 c 128,-1,31
 637 187 637 187 656 279 c 0,32,33
 671 345 671 345 655 409 c 0,34,35
 642 456 642 456 621 480 c 0,36,37
 592 515 592 515 534.5 542.5 c 128,-1,38
 477 570 477 570 410 570 c 2,39,-1
 384 570 l 1,40,-1
 390 595 l 1,41,42
 459 604 459 604 534.5 644 c 128,-1,43
 610 684 610 684 652.5 739.5 c 128,-1,44
 695 795 695 795 709 861 c 0,45,46
 727 950 727 950 684 1003 c 128,-1,47
 641 1056 641 1056 560 1056 c 0,48,49
 429 1056 429 1056 311 917 c 1,50,-1
 285 930 l 1,0,1
EndSplineSet
EndChar

StartChar: four
Encoding: 52 52 16
Width: 867
Flags: W
LayerCount: 2
Fore
SplineSet
896 424 m 1,0,-1
 870 304 l 1,1,-1
 717 304 l 1,2,-1
 654 0 l 1,3,-1
 512 0 l 1,4,-1
 576 304 l 1,5,-1
 91 304 l 1,6,-1
 115 412 l 1,7,-1
 809 1172 l 1,8,-1
 901 1172 l 1,9,-1
 742 424 l 1,10,-1
 896 424 l 1,0,-1
602 424 m 1,11,-1
 724 994 l 1,12,-1
 199 424 l 1,13,-1
 602 424 l 1,11,-1
EndSplineSet
EndChar

StartChar: five
Encoding: 53 53 17
Width: 867
Flags: W
LayerCount: 2
Fore
SplineSet
996 1149 m 1,0,-1
 900 1005 l 1,1,-1
 554 1005 l 1,2,-1
 446 850 l 1,3,4
 664 817 664 817 767 684 c 0,5,6
 855 569 855 569 822 412 c 0,7,8
 801 321 801 321 748 244 c 128,-1,9
 695 167 695 167 628 113.5 c 128,-1,10
 561 60 561 60 485 27 c 0,11,12
 379 -20 379 -20 275 -20 c 0,13,14
 172 -20 172 -20 133 15 c 128,-1,15
 94 50 94 50 102 92 c 0,16,17
 106 116 106 116 130 134 c 128,-1,18
 154 152 154 152 182 152 c 0,19,20
 205 152 205 152 220.5 145.5 c 128,-1,21
 236 139 236 139 270 111 c 0,22,23
 324 66 324 66 387 66 c 0,24,25
 487 66 487 66 579 141.5 c 128,-1,26
 671 217 671 217 692 324 c 0,27,28
 715 429 715 429 667 519 c 128,-1,29
 619 609 619 609 512 659 c 0,30,31
 427 696 427 696 269 701 c 1,32,-1
 584 1149 l 1,33,-1
 996 1149 l 1,0,-1
EndSplineSet
EndChar

StartChar: six
Encoding: 54 54 18
Width: 867
Flags: W
LayerCount: 2
Fore
SplineSet
1025 1172 m 1,0,-1
 1019 1141 l 1,1,2
 906 1130 906 1130 827.5 1096 c 128,-1,3
 749 1062 749 1062 666.5 993.5 c 128,-1,4
 584 925 584 925 520 841 c 128,-1,5
 456 757 456 757 400 642 c 1,6,7
 542 726 542 726 664 726 c 0,8,9
 781 726 781 726 847.5 631 c 128,-1,10
 914 536 914 536 882 387 c 0,11,12
 851 242 851 242 739 124 c 0,13,14
 602 -20 602 -20 430 -20 c 0,15,16
 312 -20 312 -20 246 56 c 0,17,18
 119 210 119 210 170 451 c 0,19,20
 202 605 202 605 293.5 743.5 c 128,-1,21
 385 882 385 882 522.5 990.5 c 128,-1,22
 660 1099 660 1099 772.5 1135.5 c 128,-1,23
 885 1172 885 1172 977 1172 c 2,24,-1
 1025 1172 l 1,0,-1
374 580 m 1,25,26
 332 465 332 465 319 395 c 0,27,28
 301 314 301 314 311 219 c 128,-1,29
 321 124 321 124 369 66 c 0,30,31
 404 27 404 27 465 27 c 0,32,33
 539 27 539 27 611.5 96.5 c 128,-1,34
 684 166 684 166 712 295 c 0,35,36
 742 440 742 440 706.5 545.5 c 128,-1,37
 671 651 671 651 567 651 c 0,38,39
 534 651 534 651 494 638 c 128,-1,40
 454 625 454 625 374 580 c 1,25,26
EndSplineSet
EndChar

StartChar: seven
Encoding: 55 55 19
Width: 867
Flags: W
LayerCount: 2
Fore
SplineSet
419 1149 m 1,0,-1
 1034 1149 l 1,1,-1
 1027 1115 l 1,2,-1
 402 -23 l 1,3,-1
 306 -23 l 1,4,-1
 869 1010 l 1,5,-1
 554 1010 l 2,6,7
 457 1010 457 1010 412 987 c 0,8,9
 332 949 332 949 272 867 c 1,10,-1
 250 876 l 1,11,-1
 419 1149 l 1,0,-1
EndSplineSet
EndChar

StartChar: eight
Encoding: 56 56 20
Width: 867
Flags: W
LayerCount: 2
Fore
SplineSet
454 579 m 1,0,1
 344 690 344 690 318 758 c 128,-1,2
 292 826 292 826 307 899 c 0,3,4
 331 1010 331 1010 434 1091 c 128,-1,5
 537 1172 537 1172 682 1172 c 0,6,7
 821 1172 821 1172 890 1096.5 c 128,-1,8
 959 1021 959 1021 939 925 c 0,9,10
 925 860 925 860 864.5 793 c 128,-1,11
 804 726 804 726 641 636 c 1,12,13
 764 521 764 521 799 455 c 0,14,15
 846 369 846 369 826 274 c 0,16,17
 800 151 800 151 688.5 65.5 c 128,-1,18
 577 -20 577 -20 429 -20 c 0,19,20
 264 -20 264 -20 195 82 c 0,21,22
 140 164 140 164 160 261 c 0,23,24
 176 337 176 337 243.5 412 c 128,-1,25
 311 487 311 487 454 579 c 1,0,1
607 669 m 1,26,27
 729 760 729 760 767 813 c 128,-1,28
 805 866 805 866 820 934 c 0,29,30
 839 1024 839 1024 799.5 1074 c 128,-1,31
 760 1124 760 1124 674 1124 c 0,32,33
 587 1124 587 1124 522 1074 c 128,-1,34
 457 1024 457 1024 444 956 c 0,35,36
 434 912 434 912 447 868 c 128,-1,37
 460 824 460 824 494 785 c 2,38,-1
 607 669 l 1,26,27
487 546 m 1,39,40
 406 487 406 487 356.5 417 c 128,-1,41
 307 347 307 347 291 266 c 0,42,43
 267 157 267 157 312 91 c 128,-1,44
 357 25 357 25 451 25 c 0,45,46
 542 25 542 25 608.5 77 c 128,-1,47
 675 129 675 129 690 202 c 0,48,49
 704 264 704 264 681 311 c 0,50,51
 640 401 640 401 487 546 c 1,39,40
EndSplineSet
EndChar

StartChar: nine
Encoding: 57 57 21
Width: 867
Flags: W
LayerCount: 2
Fore
SplineSet
86 -23 m 1,0,-1
 92 7 l 1,1,2
 202 10 202 10 308 58.5 c 128,-1,3
 414 107 414 107 529 231.5 c 128,-1,4
 644 356 644 356 710 504 c 1,5,6
 559 419 559 419 450 419 c 0,7,8
 330 419 330 419 263 512 c 128,-1,9
 196 605 196 605 229 760 c 0,10,11
 261 911 261 911 374 1029 c 0,12,13
 507 1172 507 1172 675 1172 c 0,14,15
 817 1172 817 1172 894 1056 c 0,16,17
 986 910 986 910 941 697 c 0,18,19
 900 506 900 506 770.5 341 c 128,-1,20
 641 176 641 176 450 65 c 0,21,22
 295 -23 295 -23 134 -23 c 2,23,-1
 86 -23 l 1,0,-1
735 566 m 1,24,25
 776 676 776 676 790 742 c 0,26,27
 807 825 807 825 799 920 c 128,-1,28
 791 1015 791 1015 750.5 1065.5 c 128,-1,29
 710 1116 710 1116 646 1116 c 0,30,31
 569 1116 569 1116 498 1048.5 c 128,-1,32
 427 981 427 981 400 847 c 0,33,34
 361 669 361 669 415 569 c 0,35,36
 454 496 454 496 535 496 c 0,37,38
 574 496 574 496 631.5 514 c 128,-1,39
 689 532 689 532 735 566 c 1,24,25
EndSplineSet
EndChar

StartChar: less
Encoding: 60 60 22
Width: 860
Flags: W
LayerCount: 2
Fore
SplineSet
725 45 m 1,0,-1
 42 342 l 1,1,-1
 28 411 l 1,2,-1
 584 707 l 1,3,-1
 607 604 l 1,4,-1
 175 377 l 1,5,-1
 704 148 l 1,6,-1
 725 45 l 1,0,-1
EndSplineSet
EndChar

StartChar: equal
Encoding: 61 61 23
Width: 860
Flags: W
LayerCount: 2
Fore
SplineSet
653 451 m 1,0,-1
 15 451 l 1,1,-1
 -5 544 l 1,2,-1
 633 544 l 1,3,-1
 653 451 l 1,0,-1
701 223 m 1,4,-1
 63 223 l 1,5,-1
 43 316 l 1,6,-1
 681 316 l 1,7,-1
 701 223 l 1,4,-1
EndSplineSet
EndChar

StartChar: greater
Encoding: 62 62 24
Width: 860
Flags: W
LayerCount: 2
Fore
SplineSet
671 342 m 1,0,-1
 113 45 l 1,1,-1
 92 148 l 1,2,-1
 525 377 l 1,3,-1
 -5 604 l 1,4,-1
 -27 707 l 1,5,-1
 656 411 l 1,6,-1
 671 342 l 1,0,-1
EndSplineSet
EndChar

StartChar: question
Encoding: 63 63 25
Width: 770
Flags: W
LayerCount: 2
Fore
SplineSet
441 271 m 1,0,-1
 406 271 l 1,1,2
 436 379 436 379 471.5 448 c 128,-1,3
 507 517 507 517 599 642 c 0,4,5
 670 739 670 739 695.5 789.5 c 128,-1,6
 721 840 721 840 734 892 c 0,7,8
 755 1000 755 1000 712 1063.5 c 128,-1,9
 669 1127 669 1127 585 1127 c 0,10,11
 512 1127 512 1127 462 1092 c 128,-1,12
 412 1057 412 1057 404 1017 c 0,13,14
 397 985 397 985 413 940 c 128,-1,15
 429 895 429 895 425 870 c 0,16,17
 417 840 417 840 393.5 818.5 c 128,-1,18
 370 797 370 797 341 797 c 0,19,20
 306 797 306 797 283.5 833 c 128,-1,21
 261 869 261 869 275 931 c 0,22,23
 295 1027 295 1027 393 1101 c 128,-1,24
 491 1175 491 1175 632 1175 c 0,25,26
 806 1175 806 1175 867 1074 c 0,27,28
 912 997 912 997 894 909 c 0,29,30
 880 846 880 846 838.5 781 c 128,-1,31
 797 716 797 716 701 627 c 0,32,33
 549 489 549 489 509.5 430.5 c 128,-1,34
 470 372 470 372 441 271 c 1,0,-1
407 166 m 256,35,36
 447 166 447 166 469 138.5 c 128,-1,37
 491 111 491 111 482 71 c 0,38,39
 475 31 475 31 440.5 4 c 128,-1,40
 406 -23 406 -23 366 -23 c 0,41,42
 327 -23 327 -23 306 4 c 128,-1,43
 285 31 285 31 292 71 c 0,44,45
 301 111 301 111 334 138.5 c 128,-1,46
 367 166 367 166 407 166 c 256,35,36
EndSplineSet
EndChar

StartChar: at
Encoding: 64 64 26
Width: 1597
Flags: W
LayerCount: 2
Fore
SplineSet
1365 811 m 1,0,-1
 1194 474 l 2,1,2
 1099 284 1099 284 1075.5 233 c 128,-1,3
 1052 182 1052 182 1046 151 c 0,4,5
 1040 125 1040 125 1054.5 105.5 c 128,-1,6
 1069 86 1069 86 1096 86 c 0,7,8
 1159 86 1159 86 1258 148.5 c 128,-1,9
 1357 211 1357 211 1449 350 c 128,-1,10
 1541 489 1541 489 1574 639 c 0,11,12
 1605 785 1605 785 1561 907.5 c 128,-1,13
 1517 1030 1517 1030 1403 1095.5 c 128,-1,14
 1289 1161 1289 1161 1135 1161 c 0,15,16
 939 1161 939 1161 749.5 1057.5 c 128,-1,17
 560 954 560 954 420.5 759 c 128,-1,18
 281 564 281 564 236 354 c 0,19,20
 195 159 195 159 247 0 c 128,-1,21
 299 -159 299 -159 437.5 -241.5 c 128,-1,22
 576 -324 576 -324 755 -324 c 0,23,24
 979 -324 979 -324 1184.5 -204 c 128,-1,25
 1390 -84 1390 -84 1536 146 c 1,26,-1
 1586 146 l 1,27,28
 1460 -86 1460 -86 1228.5 -230.5 c 128,-1,29
 997 -375 997 -375 741 -375 c 0,30,31
 539 -375 539 -375 386.5 -279.5 c 128,-1,32
 234 -184 234 -184 175.5 -9 c 128,-1,33
 117 166 117 166 162 376 c 0,34,35
 210 600 210 600 355.5 793 c 128,-1,36
 501 986 501 986 714 1095.5 c 128,-1,37
 927 1205 927 1205 1139 1205 c 0,38,39
 1315 1205 1315 1205 1440.5 1132.5 c 128,-1,40
 1566 1060 1566 1060 1610.5 920.5 c 128,-1,41
 1655 781 1655 781 1621 625 c 256,42,43
 1587 469 1587 469 1485.5 317 c 128,-1,44
 1384 165 1384 165 1262.5 96 c 128,-1,45
 1141 27 1141 27 1025 27 c 0,46,47
 960 27 960 27 935 56.5 c 128,-1,48
 910 86 910 86 921 141 c 0,49,50
 931 190 931 190 962 266 c 1,51,52
 805 115 805 115 719.5 70 c 128,-1,53
 634 25 634 25 577 25 c 0,54,55
 516 25 516 25 481.5 79.5 c 128,-1,56
 447 134 447 134 466 222 c 0,57,58
 492 345 492 345 604.5 497.5 c 128,-1,59
 717 650 717 650 869 747 c 0,60,61
 981 816 981 816 1060 816 c 0,62,63
 1115 816 1115 816 1147 787.5 c 128,-1,64
 1179 759 1179 759 1179 700 c 1,65,-1
 1229 792 l 1,66,-1
 1365 811 l 1,0,-1
1061 776 m 0,67,68
 997 776 997 776 916 709 c 0,69,70
 801 612 801 612 697 445 c 0,71,72
 621 322 621 322 605 247 c 0,73,74
 592 195 592 195 616 161 c 128,-1,75
 640 127 640 127 676 127 c 0,76,77
 726 127 726 127 788 164.5 c 128,-1,78
 850 202 850 202 926 279.5 c 128,-1,79
 1002 357 1002 357 1046 435 c 0,80,81
 1122 570 1122 570 1140 655 c 0,82,83
 1152 710 1152 710 1128 743 c 128,-1,84
 1104 776 1104 776 1061 776 c 0,67,68
EndSplineSet
EndChar

StartChar: A
Encoding: 65 65 27
Width: 1252
Flags: W
LayerCount: 2
Fore
SplineSet
875 384 m 1,0,-1
 430 384 l 1,1,-1
 314 202 l 2,2,3
 271 136 271 136 264 104 c 0,4,5
 259 77 259 77 279.5 56.5 c 128,-1,6
 300 36 300 36 381 31 c 1,7,-1
 375 0 l 1,8,-1
 14 0 l 1,9,-1
 20 31 l 1,10,11
 94 44 94 44 120 65 c 0,12,13
 172 105 172 105 250 230 c 2,14,-1
 856 1175 l 1,15,-1
 885 1175 l 1,16,-1
 1081 220 l 2,17,18
 1105 104 1105 104 1137.5 69.5 c 128,-1,19
 1170 35 1170 35 1240 31 c 1,20,-1
 1232 0 l 1,21,-1
 780 0 l 1,22,-1
 787 31 l 1,23,24
 856 35 856 35 884 54.5 c 128,-1,25
 912 74 912 74 919 102 c 0,26,27
 926 139 926 139 910 220 c 2,28,-1
 875 384 l 1,0,-1
864 446 m 1,29,-1
 767 911 l 1,30,-1
 469 446 l 1,31,-1
 864 446 l 1,29,-1
EndSplineSet
EndChar

StartChar: B
Encoding: 66 66 28
Width: 1157
Flags: W
LayerCount: 2
Fore
SplineSet
926 586 m 1,0,1
 1040 561 1040 561 1087 505 c 0,2,3
 1152 426 1152 426 1127 315 c 0,4,5
 1110 229 1110 229 1039.5 150.5 c 128,-1,6
 969 72 969 72 866.5 36 c 128,-1,7
 764 0 764 0 571 0 c 2,8,-1
 29 0 l 1,9,-1
 35 31 l 1,10,-1
 79 31 l 2,11,12
 151 31 151 31 192 77 c 0,13,14
 216 106 216 106 236 202 c 2,15,-1
 395 945 l 2,16,17
 417 1052 417 1052 400 1080 c 0,18,19
 375 1116 375 1116 309 1116 c 2,20,-1
 266 1116 l 1,21,-1
 272 1149 l 1,22,-1
 769 1149 l 2,23,24
 907 1149 907 1149 987 1129 c 0,25,26
 1107 1099 1107 1099 1158 1020.5 c 128,-1,27
 1209 942 1209 942 1186 842 c 0,28,29
 1169 755 1169 755 1102 687 c 128,-1,30
 1035 619 1035 619 926 586 c 1,0,1
491 632 m 1,31,32
 521 625 521 625 560.5 623 c 128,-1,33
 600 621 600 621 650 621 c 0,34,35
 774 621 774 621 840.5 647.5 c 128,-1,36
 907 674 907 674 953 729 c 128,-1,37
 999 784 999 784 1012 849 c 0,38,39
 1034 950 1034 950 966.5 1020.5 c 128,-1,40
 899 1091 899 1091 742 1091 c 0,41,42
 657 1091 657 1091 586 1074 c 1,43,-1
 491 632 l 1,31,32
375 82 m 1,44,45
 467 61 467 61 564 61 c 0,46,47
 717 61 717 61 812 130 c 128,-1,48
 907 199 907 199 930 299 c 0,49,50
 944 366 944 366 920.5 428 c 128,-1,51
 897 490 897 490 822 525.5 c 128,-1,52
 747 561 747 561 625 561 c 0,53,54
 574 561 574 561 536.5 560 c 128,-1,55
 499 559 499 559 475 554 c 1,56,-1
 375 82 l 1,44,45
EndSplineSet
EndChar

StartChar: C
Encoding: 67 67 29
Width: 1157
Flags: W
LayerCount: 2
Fore
SplineSet
1294 1175 m 1,0,-1
 1236 785 l 1,1,-1
 1211 785 l 1,2,3
 1195 960 1195 960 1113.5 1037 c 128,-1,4
 1032 1114 1032 1114 896 1114 c 0,5,6
 782 1114 782 1114 678 1055.5 c 128,-1,7
 574 997 574 997 494 869.5 c 128,-1,8
 414 742 414 742 374 555 c 0,9,10
 341 400 341 400 366 285 c 128,-1,11
 391 170 391 170 479 109.5 c 128,-1,12
 567 49 567 49 695 49 c 0,13,14
 806 49 806 49 901.5 96.5 c 128,-1,15
 997 144 997 144 1131 286 c 1,16,-1
 1154 269 l 1,17,18
 1034 116 1034 116 904.5 44 c 128,-1,19
 775 -28 775 -28 616 -28 c 0,20,21
 331 -28 331 -28 220 186 c 0,22,23
 135 342 135 342 181 557 c 0,24,25
 216 729 216 729 324 872.5 c 128,-1,26
 432 1016 432 1016 584 1095.5 c 128,-1,27
 736 1175 736 1175 896 1175 c 0,28,29
 1021 1175 1021 1175 1127 1114 c 0,30,31
 1161 1094 1161 1094 1175 1094 c 0,32,33
 1199 1094 1199 1094 1220 1111 c 0,34,35
 1246 1134 1246 1134 1264 1175 c 1,36,-1
 1294 1175 l 1,0,-1
EndSplineSet
EndChar

StartChar: D
Encoding: 68 68 30
Width: 1252
Flags: W
LayerCount: 2
Fore
SplineSet
30 0 m 1,0,-1
 36 31 l 1,1,-1
 80 31 l 2,2,3
 152 31 152 31 192 77 c 0,4,5
 216 106 216 106 236 202 c 2,6,-1
 395 945 l 2,7,8
 417 1052 417 1052 400 1080 c 0,9,10
 375 1116 375 1116 310 1116 c 2,11,-1
 266 1116 l 1,12,-1
 274 1149 l 1,13,-1
 741 1149 l 2,14,15
 997 1149 997 1149 1119 1090 c 128,-1,16
 1241 1031 1241 1031 1294 895.5 c 128,-1,17
 1347 760 1347 760 1310 580 c 0,18,19
 1259 341 1259 341 1077 180 c 0,20,21
 877 0 877 0 542 0 c 2,22,-1
 30 0 l 1,0,-1
375 82 m 1,23,24
 477 60 477 60 550 60 c 0,25,26
 747 60 747 60 906 198 c 128,-1,27
 1065 336 1065 336 1115 571 c 0,28,29
 1165 810 1165 810 1065 947 c 128,-1,30
 965 1084 965 1084 761 1084 c 0,31,32
 685 1084 685 1084 584 1060 c 1,33,-1
 375 82 l 1,23,24
EndSplineSet
EndChar

StartChar: E
Encoding: 69 69 31
Width: 1060
Flags: W
LayerCount: 2
Fore
SplineSet
592 1086 m 1,0,-1
 496 632 l 1,1,-1
 749 632 l 2,2,3
 847 632 847 632 887 661 c 0,4,5
 939 701 939 701 965 797 c 1,6,-1
 996 797 l 1,7,-1
 911 400 l 1,8,-1
 880 400 l 1,9,10
 885 484 885 484 879 506 c 0,11,12
 869 536 869 536 838 553 c 128,-1,13
 807 570 807 570 735 570 c 2,14,-1
 482 570 l 1,15,-1
 402 191 l 2,16,17
 386 115 386 115 390 98.5 c 128,-1,18
 394 82 394 82 408 72 c 128,-1,19
 422 62 422 62 470 62 c 2,20,-1
 665 62 l 2,21,22
 762 62 762 62 809 76 c 128,-1,23
 856 90 856 90 906 129 c 0,24,25
 969 182 969 182 1046 287 c 1,26,-1
 1080 287 l 1,27,-1
 921 0 l 1,28,-1
 35 0 l 1,29,-1
 42 31 l 1,30,-1
 82 31 l 2,31,32
 124 31 124 31 164 51 c 0,33,34
 194 65 194 65 209.5 92 c 128,-1,35
 225 119 225 119 242 202 c 2,36,-1
 401 949 l 2,37,38
 425 1057 425 1057 407 1082 c 0,39,40
 384 1116 384 1116 312 1116 c 2,41,-1
 272 1116 l 1,42,-1
 279 1149 l 1,43,-1
 1165 1149 l 1,44,-1
 1124 897 l 1,45,-1
 1090 897 l 1,46,47
 1092 987 1092 987 1078 1021.5 c 128,-1,48
 1064 1056 1064 1056 1025 1074 c 0,49,50
 994 1086 994 1086 907 1086 c 2,51,-1
 592 1086 l 1,0,-1
EndSplineSet
EndChar

StartChar: F
Encoding: 70 70 32
Width: 965
Flags: W
LayerCount: 2
Fore
SplineSet
585 1086 m 1,0,-1
 490 634 l 1,1,-1
 699 634 l 2,2,3
 771 634 771 634 811 665.5 c 128,-1,4
 851 697 851 697 881 792 c 1,5,-1
 912 792 l 1,6,-1
 831 404 l 1,7,-1
 799 404 l 1,8,9
 812 470 812 470 802 501 c 128,-1,10
 792 532 792 532 766.5 548 c 128,-1,11
 741 564 741 564 684 564 c 2,12,-1
 475 564 l 1,13,-1
 397 202 l 2,14,15
 379 116 379 116 385 87 c 0,16,17
 387 66 387 66 412 52 c 0,18,19
 445 31 445 31 486 31 c 2,20,-1
 527 31 l 1,21,-1
 521 0 l 1,22,-1
 27 0 l 1,23,-1
 35 31 l 1,24,-1
 75 31 l 2,25,26
 146 31 146 31 186 74 c 0,27,28
 212 99 212 99 235 202 c 2,29,-1
 392 945 l 2,30,31
 411 1031 411 1031 406 1061 c 0,32,33
 401 1081 401 1081 379 1097 c 0,34,35
 346 1116 346 1116 305 1116 c 2,36,-1
 265 1116 l 1,37,-1
 271 1149 l 1,38,-1
 1126 1149 l 1,39,-1
 1082 896 l 1,40,-1
 1054 896 l 1,41,42
 1049 976 1049 976 1027.5 1014 c 128,-1,43
 1006 1052 1006 1052 966.5 1069 c 128,-1,44
 927 1086 927 1086 837 1086 c 2,45,-1
 585 1086 l 1,0,-1
EndSplineSet
EndChar

StartChar: G
Encoding: 71 71 33
Width: 1252
Flags: W
LayerCount: 2
Fore
SplineSet
1315 1175 m 1,0,-1
 1266 812 l 1,1,-1
 1237 812 l 1,2,3
 1220 947 1220 947 1165 1016 c 0,4,5
 1082 1115 1082 1115 922 1115 c 0,6,7
 702 1115 702 1115 551 942 c 0,8,9
 425 795 425 795 381 592 c 0,10,11
 346 429 346 429 381 293 c 128,-1,12
 416 157 416 157 506 94 c 128,-1,13
 596 31 596 31 704 31 c 0,14,15
 767 31 767 31 829.5 47.5 c 128,-1,16
 892 64 892 64 954 95 c 1,17,-1
 1024 426 l 2,18,19
 1042 512 1042 512 1034.5 539 c 128,-1,20
 1027 566 1027 566 1003.5 580.5 c 128,-1,21
 980 595 980 595 910 595 c 1,22,-1
 916 626 l 1,23,-1
 1361 626 l 1,24,-1
 1354 595 l 1,25,-1
 1332 595 l 2,26,27
 1267 595 1267 595 1232 550 c 0,28,29
 1209 519 1209 519 1190 426 c 2,30,-1
 1115 75 l 1,31,32
 1006 22 1006 22 906 -3 c 128,-1,33
 806 -28 806 -28 691 -28 c 0,34,35
 357 -28 357 -28 230 187 c 0,36,37
 135 347 135 347 180 557 c 0,38,39
 211 709 211 709 314 847 c 0,40,41
 435 1012 435 1012 605 1101 c 0,42,43
 747 1175 747 1175 919 1175 c 0,44,45
 981 1175 981 1175 1030 1164.5 c 128,-1,46
 1079 1154 1079 1154 1166 1120 c 0,47,48
 1210 1102 1210 1102 1226 1102 c 0,49,50
 1241 1102 1241 1102 1255.5 1117 c 128,-1,51
 1270 1132 1270 1132 1282 1175 c 1,52,-1
 1315 1175 l 1,0,-1
EndSplineSet
EndChar

StartChar: H
Encoding: 72 72 34
Width: 1252
Flags: W
LayerCount: 2
Fore
SplineSet
487 616 m 1,0,-1
 1021 616 l 1,1,-1
 1090 944 l 2,2,3
 1110 1034 1110 1034 1104 1061 c 0,4,5
 1099 1081 1099 1081 1077 1097 c 0,6,7
 1044 1116 1044 1116 1002 1116 c 2,8,-1
 964 1116 l 1,9,-1
 970 1149 l 1,10,-1
 1461 1149 l 1,11,-1
 1454 1116 l 1,12,-1
 1412 1116 l 2,13,14
 1374 1116 1374 1116 1332 1099 c 1,15,16
 1302 1082 1302 1082 1286 1056 c 0,17,18
 1270 1027 1270 1027 1252 944 c 2,19,-1
 1094 202 l 2,20,21
 1076 115 1076 115 1081 87 c 0,22,23
 1086 65 1086 65 1110 52 c 0,24,25
 1141 31 1141 31 1182 31 c 2,26,-1
 1224 31 l 1,27,-1
 1217 0 l 1,28,-1
 726 0 l 1,29,-1
 734 31 l 1,30,-1
 772 31 l 2,31,32
 844 31 844 31 885 74 c 0,33,34
 910 99 910 99 932 202 c 2,35,-1
 1007 552 l 1,36,-1
 475 552 l 1,37,-1
 400 202 l 2,38,39
 381 115 381 115 386 87 c 0,40,41
 390 66 390 66 414 52 c 0,42,43
 446 31 446 31 487 31 c 2,44,-1
 529 31 l 1,45,-1
 521 0 l 1,46,-1
 30 0 l 1,47,-1
 36 31 l 1,48,-1
 77 31 l 2,49,50
 149 31 149 31 189 74 c 0,51,52
 214 99 214 99 236 202 c 2,53,-1
 394 944 l 2,54,55
 412 1034 412 1034 407 1061 c 0,56,57
 402 1081 402 1081 381 1097 c 0,58,59
 349 1116 349 1116 307 1116 c 2,60,-1
 266 1116 l 1,61,-1
 274 1149 l 1,62,-1
 765 1149 l 1,63,-1
 759 1116 l 1,64,-1
 717 1116 l 2,65,66
 677 1116 677 1116 636 1099 c 0,67,68
 607 1084 607 1084 591 1056 c 0,69,70
 575 1029 575 1029 557 944 c 2,71,-1
 487 616 l 1,0,-1
EndSplineSet
EndChar

StartChar: I
Encoding: 73 73 35
Width: 579
Flags: W
LayerCount: 2
Fore
SplineSet
542 31 m 1,0,-1
 536 0 l 1,1,-1
 44 0 l 1,2,-1
 50 31 l 1,3,-1
 90 31 l 2,4,5
 161 31 161 31 202 74 c 0,6,7
 227 99 227 99 250 202 c 2,8,-1
 407 945 l 2,9,10
 426 1031 426 1031 422 1061 c 0,11,12
 417 1081 417 1081 395 1097 c 0,13,14
 362 1116 362 1116 320 1116 c 2,15,-1
 280 1116 l 1,16,-1
 286 1149 l 1,17,-1
 780 1149 l 1,18,-1
 772 1116 l 1,19,-1
 730 1116 l 2,20,21
 660 1116 660 1116 620 1076 c 0,22,23
 592 1049 592 1049 571 945 c 2,24,-1
 412 202 l 2,25,26
 395 116 395 116 400 87 c 0,27,28
 404 66 404 66 427 52 c 0,29,30
 460 31 460 31 500 31 c 2,31,-1
 542 31 l 1,0,-1
EndSplineSet
EndChar

StartChar: J
Encoding: 74 74 36
Width: 676
Flags: W
LayerCount: 2
Fore
SplineSet
409 1116 m 1,0,-1
 416 1149 l 1,1,-1
 909 1149 l 1,2,-1
 901 1116 l 1,3,-1
 860 1116 l 2,4,5
 789 1116 789 1116 749 1076 c 0,6,7
 722 1049 722 1049 701 945 c 2,8,-1
 581 382 l 2,9,10
 555 254 555 254 508.5 174 c 128,-1,11
 462 94 462 94 380.5 33 c 128,-1,12
 299 -28 299 -28 201 -28 c 0,13,14
 121 -28 121 -28 83.5 12 c 128,-1,15
 46 52 46 52 56 104 c 0,16,17
 66 145 66 145 91 166 c 0,18,19
 125 192 125 192 162 192 c 0,20,21
 190 192 190 192 207.5 174.5 c 128,-1,22
 225 157 225 157 241 79 c 0,23,24
 251 34 251 34 282 34 c 0,25,26
 305 34 305 34 330.5 62 c 128,-1,27
 356 90 356 90 371 161 c 2,28,-1
 537 945 l 2,29,30
 556 1031 556 1031 552 1061 c 0,31,32
 547 1081 547 1081 524 1097 c 0,33,34
 491 1116 491 1116 450 1116 c 2,35,-1
 409 1116 l 1,0,-1
EndSplineSet
EndChar

StartChar: K
Encoding: 75 75 37
Width: 1252
Flags: W
LayerCount: 2
Fore
SplineSet
654 637 m 1,0,-1
 987 215 l 2,1,2
 1069 112 1069 112 1134.5 73.5 c 128,-1,3
 1200 35 1200 35 1274 31 c 1,4,-1
 1267 0 l 1,5,-1
 721 0 l 1,6,-1
 727 31 l 1,7,8
 776 31 776 31 801 48 c 128,-1,9
 826 65 826 65 831 85 c 0,10,11
 835 105 835 105 830.5 121 c 128,-1,12
 826 137 826 137 789 181 c 2,13,-1
 477 574 l 1,14,-1
 399 202 l 2,15,16
 380 116 380 116 385 87 c 0,17,18
 387 66 387 66 412 52 c 0,19,20
 445 31 445 31 486 31 c 2,21,-1
 525 31 l 1,22,-1
 519 0 l 1,23,-1
 29 0 l 1,24,-1
 35 31 l 1,25,-1
 77 31 l 2,26,27
 147 31 147 31 187 74 c 0,28,29
 212 99 212 99 235 202 c 2,30,-1
 392 945 l 2,31,32
 411 1031 411 1031 407 1061 c 0,33,34
 402 1081 402 1081 380 1097 c 0,35,36
 346 1116 346 1116 307 1116 c 2,37,-1
 266 1116 l 1,38,-1
 272 1149 l 1,39,-1
 762 1149 l 1,40,-1
 755 1116 l 1,41,-1
 716 1116 l 2,42,43
 676 1116 676 1116 635 1099 c 0,44,45
 606 1084 606 1084 590.5 1057 c 128,-1,46
 575 1030 575 1030 556 945 c 2,47,-1
 482 594 l 1,48,49
 501 610 501 610 621 701 c 0,50,51
 920 931 920 931 990 1009 c 0,52,53
 1019 1042 1019 1042 1024 1069 c 0,54,55
 1029 1087 1029 1087 1014.5 1101.5 c 128,-1,56
 1000 1116 1000 1116 957 1116 c 2,57,-1
 931 1116 l 1,58,-1
 939 1149 l 1,59,-1
 1359 1149 l 1,60,-1
 1352 1116 l 1,61,62
 1316 1115 1316 1115 1283.5 1107 c 128,-1,63
 1251 1099 1251 1099 1201 1071.5 c 128,-1,64
 1151 1044 1151 1044 1075 985 c 0,65,66
 1052 967 1052 967 866 811 c 2,67,-1
 654 637 l 1,0,-1
EndSplineSet
EndChar

StartChar: L
Encoding: 76 76 38
Width: 1060
Flags: W
LayerCount: 2
Fore
SplineSet
1061 317 m 1,0,-1
 1089 311 l 1,1,-1
 924 0 l 1,2,-1
 35 0 l 1,3,-1
 41 31 l 1,4,-1
 85 31 l 2,5,6
 157 31 157 31 199 77 c 0,7,8
 222 106 222 106 244 204 c 2,9,-1
 400 945 l 2,10,11
 424 1052 424 1052 405 1080 c 0,12,13
 379 1116 379 1116 315 1116 c 2,14,-1
 271 1116 l 1,15,-1
 279 1149 l 1,16,-1
 797 1149 l 1,17,-1
 791 1116 l 1,18,19
 701 1119 701 1119 660 1100 c 128,-1,20
 619 1081 619 1081 599.5 1054 c 128,-1,21
 580 1027 580 1027 559 925 c 2,22,-1
 405 204 l 2,23,24
 390 134 390 134 399 107 c 0,25,26
 405 90 405 90 425 82 c 128,-1,27
 445 74 445 74 555 74 c 2,28,-1
 639 74 l 2,29,30
 771 74 771 74 828 93 c 128,-1,31
 885 112 885 112 940 161.5 c 128,-1,32
 995 211 995 211 1061 317 c 1,0,-1
EndSplineSet
EndChar

StartChar: M
Encoding: 77 77 39
Width: 1542
Flags: W
LayerCount: 2
Fore
SplineSet
709 0 m 1,0,-1
 471 966 l 1,1,-1
 307 199 l 2,2,3
 285 94 285 94 302 66 c 0,4,5
 326 31 326 31 395 31 c 2,6,-1
 436 31 l 1,7,-1
 429 0 l 1,8,-1
 29 0 l 1,9,-1
 35 31 l 1,10,-1
 77 31 l 2,11,12
 149 31 149 31 187 75 c 0,13,14
 212 102 212 102 232 199 c 2,15,-1
 392 950 l 2,16,17
 409 1026 409 1026 400 1060 c 0,18,19
 392 1084 392 1084 364 1100 c 128,-1,20
 336 1116 336 1116 266 1116 c 1,21,-1
 272 1149 l 1,22,-1
 596 1149 l 1,23,-1
 824 250 l 1,24,-1
 1424 1149 l 1,25,-1
 1749 1149 l 1,26,-1
 1742 1116 l 1,27,-1
 1704 1116 l 2,28,29
 1630 1116 1630 1116 1590 1074 c 0,30,31
 1566 1046 1566 1046 1545 950 c 2,32,-1
 1385 199 l 2,33,34
 1362 94 1362 94 1380 66 c 0,35,36
 1405 31 1405 31 1474 31 c 2,37,-1
 1512 31 l 1,38,-1
 1505 0 l 1,39,-1
 1019 0 l 1,40,-1
 1025 31 l 1,41,-1
 1065 31 l 2,42,43
 1140 31 1140 31 1177 75 c 0,44,45
 1201 102 1201 102 1221 199 c 2,46,-1
 1385 966 l 1,47,-1
 739 0 l 1,48,-1
 709 0 l 1,0,-1
EndSplineSet
EndChar

StartChar: N
Encoding: 78 78 40
Width: 1252
Flags: W
LayerCount: 2
Fore
SplineSet
220 1149 m 1,0,-1
 532 1149 l 1,1,-1
 1052 286 l 1,2,-1
 1192 950 l 2,3,4
 1216 1056 1216 1056 1196 1081 c 0,5,6
 1172 1116 1172 1116 1105 1116 c 2,7,-1
 1065 1116 l 1,8,-1
 1071 1149 l 1,9,-1
 1471 1149 l 1,10,-1
 1465 1116 l 1,11,-1
 1425 1116 l 2,12,13
 1351 1116 1351 1116 1312 1074 c 0,14,15
 1287 1046 1287 1046 1266 950 c 2,16,-1
 1061 -19 l 1,17,-1
 1031 -19 l 1,18,-1
 470 906 l 1,19,-1
 319 199 l 2,20,21
 296 94 296 94 314 66 c 0,22,23
 339 31 339 31 407 31 c 2,24,-1
 447 31 l 1,25,-1
 441 0 l 1,26,-1
 40 0 l 1,27,-1
 47 31 l 1,28,-1
 87 31 l 2,29,30
 161 31 161 31 199 75 c 0,31,32
 224 102 224 102 245 199 c 2,33,-1
 415 997 l 1,34,35
 377 1056 377 1056 355.5 1075 c 128,-1,36
 334 1094 334 1094 287 1110 c 0,37,38
 265 1116 265 1116 214 1116 c 1,39,-1
 220 1149 l 1,0,-1
EndSplineSet
EndChar

StartChar: O
Encoding: 79 79 41
Width: 1252
Flags: W
LayerCount: 2
Fore
SplineSet
884 1175 m 0,0,1
 1106 1175 1106 1175 1234 1005 c 128,-1,2
 1362 835 1362 835 1309 581 c 0,3,4
 1254 320 1254 320 1052 146 c 128,-1,5
 850 -28 850 -28 615 -28 c 0,6,7
 377 -28 377 -28 252 141.5 c 128,-1,8
 127 311 127 311 184 579 c 0,9,10
 242 852 242 852 465 1025 c 0,11,12
 659 1175 659 1175 884 1175 c 0,0,1
854 1112 m 0,13,14
 700 1112 700 1112 582 997 c 0,15,16
 437 856 437 856 379 582 c 0,17,18
 319 300 319 300 405 149 c 0,19,20
 475 34 475 34 625 34 c 0,21,22
 789 34 789 34 920.5 160 c 128,-1,23
 1052 286 1052 286 1111 559 c 0,24,25
 1174 854 1174 854 1087 997 c 0,26,27
 1019 1112 1019 1112 854 1112 c 0,13,14
EndSplineSet
EndChar

StartChar: P
Encoding: 80 80 42
Width: 965
Flags: W
LayerCount: 2
Fore
SplineSet
470 537 m 1,0,-1
 399 202 l 2,1,2
 376 95 376 95 394 69 c 0,3,4
 419 31 419 31 484 31 c 2,5,-1
 527 31 l 1,6,-1
 521 0 l 1,7,-1
 29 0 l 1,8,-1
 35 31 l 1,9,-1
 79 31 l 2,10,11
 152 31 152 31 192 77 c 0,12,13
 215 105 215 105 235 202 c 2,14,-1
 392 945 l 2,15,16
 416 1052 416 1052 400 1080 c 0,17,18
 375 1116 375 1116 309 1116 c 2,19,-1
 266 1116 l 1,20,-1
 272 1149 l 1,21,-1
 694 1149 l 2,22,23
 847 1149 847 1149 929 1117 c 128,-1,24
 1011 1085 1011 1085 1056.5 1009.5 c 128,-1,25
 1102 934 1102 934 1080 831 c 0,26,27
 1050 690 1050 690 938 602.5 c 128,-1,28
 826 515 826 515 657 515 c 0,29,30
 616 515 616 515 569 520.5 c 128,-1,31
 522 526 522 526 470 537 c 1,0,-1
480 586 m 1,32,33
 522 579 522 579 556 574.5 c 128,-1,34
 590 570 590 570 615 570 c 0,35,36
 702 570 702 570 781 637.5 c 128,-1,37
 860 705 860 705 882 814 c 0,38,39
 899 889 899 889 882 952.5 c 128,-1,40
 865 1016 865 1016 816 1048 c 128,-1,41
 767 1080 767 1080 696 1080 c 0,42,43
 652 1080 652 1080 581 1064 c 1,44,-1
 480 586 l 1,32,33
EndSplineSet
EndChar

StartChar: Q
Encoding: 81 81 43
Width: 1252
Flags: W
LayerCount: 2
Fore
SplineSet
761 -13 m 1,0,1
 815 -161 815 -161 900.5 -232.5 c 128,-1,2
 986 -304 986 -304 1111 -313 c 1,3,-1
 1106 -340 l 1,4,5
 990 -336 990 -336 866 -293 c 128,-1,6
 742 -250 742 -250 639.5 -174.5 c 128,-1,7
 537 -99 537 -99 470 -13 c 1,8,9
 356 35 356 35 297 91 c 0,10,11
 212 174 212 174 180.5 293 c 128,-1,12
 149 412 149 412 184 576 c 0,13,14
 239 835 239 835 441.5 1005 c 128,-1,15
 644 1175 644 1175 881 1175 c 0,16,17
 1106 1175 1106 1175 1235 1004.5 c 128,-1,18
 1364 834 1364 834 1307 574 c 0,19,20
 1262 362 1262 362 1111 203 c 128,-1,21
 960 44 960 44 761 -13 c 1,0,1
857 1110 m 0,22,23
 704 1110 704 1110 585 999 c 0,24,25
 437 861 437 861 377 576 c 0,26,27
 317 299 317 299 405 147 c 0,28,29
 475 31 475 31 629 31 c 0,30,31
 789 31 789 31 910 147 c 0,32,33
 1052 285 1052 285 1111 552 c 0,34,35
 1154 759 1154 759 1120 899 c 0,36,37
 1095 1006 1095 1006 1026 1058 c 128,-1,38
 957 1110 957 1110 857 1110 c 0,22,23
EndSplineSet
EndChar

StartChar: R
Encoding: 82 82 44
Width: 1157
Flags: W
LayerCount: 2
Fore
SplineSet
1172 0 m 1,0,-1
 866 0 l 1,1,-1
 590 537 l 1,2,3
 547 536 547 536 520 536 c 0,4,5
 509 536 509 536 496.5 536 c 128,-1,6
 484 536 484 536 471 537 c 1,7,-1
 400 202 l 2,8,9
 377 95 377 95 395 69 c 0,10,11
 420 31 420 31 484 31 c 2,12,-1
 529 31 l 1,13,-1
 521 0 l 1,14,-1
 30 0 l 1,15,-1
 36 31 l 1,16,-1
 80 31 l 2,17,18
 152 31 152 31 194 77 c 0,19,20
 216 105 216 105 236 202 c 2,21,-1
 395 945 l 2,22,23
 417 1052 417 1052 400 1080 c 0,24,25
 375 1116 375 1116 310 1116 c 2,26,-1
 266 1116 l 1,27,-1
 274 1149 l 1,28,-1
 691 1149 l 2,29,30
 875 1149 875 1149 955.5 1121.5 c 128,-1,31
 1036 1094 1036 1094 1081.5 1023 c 128,-1,32
 1127 952 1127 952 1106 854 c 0,33,34
 1084 747 1084 747 998 669 c 128,-1,35
 912 591 912 591 761 559 c 1,36,-1
 927 230 l 2,37,38
 985 116 985 116 1035.5 78.5 c 128,-1,39
 1086 41 1086 41 1179 31 c 1,40,-1
 1172 0 l 1,0,-1
482 591 m 1,41,42
 497 591 497 591 509 590.5 c 128,-1,43
 521 590 521 590 529 590 c 0,44,45
 694 590 694 590 791.5 660.5 c 128,-1,46
 889 731 889 731 912 842 c 0,47,48
 935 950 935 950 883 1017 c 128,-1,49
 831 1084 831 1084 719 1084 c 0,50,51
 671 1084 671 1084 584 1069 c 1,52,-1
 482 591 l 1,41,42
EndSplineSet
EndChar

StartChar: S
Encoding: 83 83 45
Width: 965
Flags: W
LayerCount: 2
Fore
SplineSet
1044 1175 m 1,0,-1
 960 776 l 1,1,-1
 929 776 l 1,2,3
 937 891 937 891 912 959 c 128,-1,4
 887 1027 887 1027 823 1067 c 128,-1,5
 759 1107 759 1107 681 1107 c 0,6,7
 592 1107 592 1107 523.5 1053 c 128,-1,8
 455 999 455 999 441 931 c 0,9,10
 430 879 430 879 456 835 c 0,11,12
 496 772 496 772 671 666 c 0,13,14
 812 580 812 580 861 533.5 c 128,-1,15
 910 487 910 487 928.5 424.5 c 128,-1,16
 947 362 947 362 932 294 c 0,17,18
 905 162 905 162 784.5 67 c 128,-1,19
 664 -28 664 -28 504 -28 c 0,20,21
 454 -28 454 -28 411 -19 c 0,22,23
 386 -15 386 -15 309 12.5 c 128,-1,24
 232 40 232 40 210 40 c 0,25,26
 189 40 189 40 174 27 c 128,-1,27
 159 14 159 14 144 -28 c 1,28,-1
 114 -28 l 1,29,-1
 197 367 l 1,30,-1
 227 367 l 1,31,32
 224 244 224 244 248 182 c 128,-1,33
 272 120 272 120 339.5 80 c 128,-1,34
 407 40 407 40 500 40 c 0,35,36
 605 40 605 40 678.5 95.5 c 128,-1,37
 752 151 752 151 769 227 c 0,38,39
 777 270 777 270 763.5 313.5 c 128,-1,40
 750 357 750 357 707 394 c 0,41,42
 680 420 680 420 550.5 502 c 128,-1,43
 421 584 421 584 368.5 634 c 128,-1,44
 316 684 316 684 297.5 742.5 c 128,-1,45
 279 801 279 801 292 872 c 0,46,47
 319 996 319 996 433 1085.5 c 128,-1,48
 547 1175 547 1175 694 1175 c 0,49,50
 785 1175 785 1175 877 1130 c 0,51,52
 921 1109 921 1109 940 1109 c 0,53,54
 962 1109 962 1109 979 1122 c 128,-1,55
 996 1135 996 1135 1014 1175 c 1,56,-1
 1044 1175 l 1,0,-1
EndSplineSet
EndChar

StartChar: T
Encoding: 84 84 46
Width: 1060
Flags: W
LayerCount: 2
Fore
SplineSet
1247 1149 m 1,0,-1
 1202 879 l 1,1,-1
 1171 879 l 1,2,3
 1177 951 1177 951 1167 981 c 0,4,5
 1151 1030 1151 1030 1112.5 1053.5 c 128,-1,6
 1074 1077 1074 1077 1002 1077 c 2,7,-1
 840 1077 l 1,8,-1
 654 199 l 2,9,10
 631 94 631 94 649 66 c 0,11,12
 674 31 674 31 741 31 c 2,13,-1
 780 31 l 1,14,-1
 774 0 l 1,15,-1
 286 0 l 1,16,-1
 294 31 l 1,17,-1
 335 31 l 2,18,19
 407 31 407 31 446 75 c 0,20,21
 471 102 471 102 491 199 c 2,22,-1
 679 1077 l 1,23,-1
 539 1077 l 2,24,25
 459 1077 459 1077 424 1065 c 0,26,27
 375 1049 375 1049 335 1002.5 c 128,-1,28
 295 956 295 956 271 879 c 1,29,-1
 240 879 l 1,30,-1
 309 1149 l 1,31,-1
 1247 1149 l 1,0,-1
EndSplineSet
EndChar

StartChar: U
Encoding: 85 85 47
Width: 1252
Flags: W
LayerCount: 2
Fore
SplineSet
1065 1116 m 1,0,-1
 1071 1149 l 1,1,-1
 1479 1149 l 1,2,-1
 1471 1116 l 1,3,-1
 1427 1116 l 2,4,5
 1360 1116 1360 1116 1312 1061 c 0,6,7
 1289 1035 1289 1035 1269 939 c 2,8,-1
 1170 472 l 2,9,10
 1132 299 1132 299 1078 204 c 128,-1,11
 1024 109 1024 109 908 40.5 c 128,-1,12
 792 -28 792 -28 620 -28 c 0,13,14
 431 -28 431 -28 348 38 c 128,-1,15
 265 104 265 104 249 214 c 0,16,17
 236 289 236 289 281 496 c 2,18,-1
 376 945 l 2,19,20
 400 1051 400 1051 377 1083.5 c 128,-1,21
 354 1116 354 1116 290 1116 c 2,22,-1
 246 1116 l 1,23,-1
 254 1149 l 1,24,-1
 750 1149 l 1,25,-1
 742 1116 l 1,26,-1
 699 1116 l 2,27,28
 627 1116 627 1116 587 1072 c 0,29,30
 559 1041 559 1041 539 945 c 2,31,-1
 432 445 l 2,32,33
 419 379 419 379 412.5 292 c 128,-1,34
 406 205 406 205 428 156 c 128,-1,35
 450 107 450 107 503.5 76 c 128,-1,36
 557 45 557 45 646 45 c 0,37,38
 759 45 759 45 858 94.5 c 128,-1,39
 957 144 957 144 1006.5 220.5 c 128,-1,40
 1056 297 1056 297 1095 480 c 2,41,-1
 1194 945 l 2,42,43
 1216 1052 1216 1052 1199 1080 c 0,44,45
 1172 1116 1172 1116 1106 1116 c 2,46,-1
 1065 1116 l 1,0,-1
EndSplineSet
EndChar

StartChar: V
Encoding: 86 86 48
Width: 1252
Flags: W
LayerCount: 2
Fore
SplineSet
1475 1149 m 1,0,-1
 1467 1116 l 1,1,2
 1406 1106 1406 1106 1369 1077 c 0,3,4
 1314 1036 1314 1036 1261 951 c 2,5,-1
 652 -28 l 1,6,-1
 621 -28 l 1,7,-1
 401 964 l 2,8,9
 384 1040 384 1040 375 1056 c 0,10,11
 359 1082 359 1082 331.5 1097 c 128,-1,12
 304 1112 304 1112 251 1116 c 1,13,-1
 257 1149 l 1,14,-1
 729 1149 l 1,15,-1
 721 1116 l 1,16,17
 640 1110 640 1110 612.5 1090 c 128,-1,18
 585 1070 585 1070 579 1040 c 0,19,20
 570 997 570 997 587 909 c 2,21,-1
 737 235 l 1,22,-1
 1150 900 l 2,23,24
 1211 997 1211 997 1219 1036 c 0,25,26
 1224 1061 1224 1061 1205 1083 c 128,-1,27
 1186 1105 1186 1105 1127 1115 c 0,28,29
 1124 1115 1124 1115 1115 1116 c 1,30,-1
 1121 1149 l 1,31,-1
 1475 1149 l 1,0,-1
EndSplineSet
EndChar

StartChar: W
Encoding: 87 87 49
Width: 1637
Flags: W
LayerCount: 2
Fore
SplineSet
1867 1149 m 1,0,-1
 1860 1116 l 1,1,2
 1815 1116 1815 1116 1783.5 1100.5 c 128,-1,3
 1752 1085 1752 1085 1717 1040 c 0,4,5
 1695 1010 1695 1010 1634 900 c 2,6,-1
 1119 -28 l 1,7,-1
 1085 -28 l 1,8,-1
 977 709 l 1,9,-1
 562 -28 l 1,10,-1
 532 -28 l 1,11,-1
 394 927 l 2,12,13
 379 1035 379 1035 371 1052 c 0,14,15
 361 1086 361 1086 335.5 1101 c 128,-1,16
 310 1116 310 1116 260 1116 c 1,17,-1
 266 1149 l 1,18,-1
 691 1149 l 1,19,-1
 684 1116 l 1,20,-1
 664 1116 l 2,21,22
 620 1116 620 1116 592 1096.5 c 128,-1,23
 564 1077 564 1077 559 1049 c 0,24,25
 551 1019 551 1019 566 911 c 2,26,-1
 655 266 l 1,27,-1
 964 815 l 1,28,-1
 949 911 l 1,29,-1
 939 989 l 1,30,31
 929 1031 929 1031 914 1062 c 0,32,33
 906 1079 906 1079 892 1090 c 0,34,35
 875 1105 875 1105 855 1111 c 0,36,37
 840 1116 840 1116 805 1116 c 1,38,-1
 812 1149 l 1,39,-1
 1259 1149 l 1,40,-1
 1252 1116 l 1,41,-1
 1221 1116 l 2,42,43
 1175 1116 1175 1116 1148 1096.5 c 128,-1,44
 1121 1077 1121 1077 1114 1041 c 0,45,46
 1105 997 1105 997 1120 891 c 2,47,-1
 1207 266 l 1,48,-1
 1560 900 l 2,49,50
 1621 1005 1621 1005 1630 1045 c 0,51,52
 1634 1065 1634 1065 1625 1082 c 128,-1,53
 1616 1099 1616 1099 1600 1105 c 0,54,55
 1569 1116 1569 1116 1517 1116 c 1,56,-1
 1525 1149 l 1,57,-1
 1867 1149 l 1,0,-1
EndSplineSet
EndChar

StartChar: X
Encoding: 88 88 50
Width: 1252
Flags: W
LayerCount: 2
Fore
SplineSet
844 636 m 1,0,-1
 1011 269 l 2,1,2
 1081 116 1081 116 1121.5 75.5 c 128,-1,3
 1162 35 1162 35 1239 31 c 1,4,-1
 1232 0 l 1,5,-1
 739 0 l 1,6,-1
 746 31 l 1,7,8
 796 31 796 31 821 41 c 0,9,10
 839 49 839 49 854.5 65 c 128,-1,11
 870 81 870 81 874 96 c 0,12,13
 877 116 877 116 872 136 c 0,14,15
 871 150 871 150 842 210 c 2,16,-1
 710 505 l 1,17,-1
 404 197 l 2,18,19
 356 147 356 147 345 131 c 128,-1,20
 334 115 334 115 330 96 c 0,21,22
 324 70 324 70 343 52 c 128,-1,23
 362 34 362 34 427 31 c 1,24,-1
 420 0 l 1,25,-1
 12 0 l 1,26,-1
 19 31 l 1,27,28
 62 35 62 35 96 49 c 0,29,30
 154 71 154 71 210 108.5 c 128,-1,31
 266 146 266 146 342 222 c 2,32,-1
 685 565 l 1,33,-1
 530 896 l 2,34,35
 466 1031 466 1031 411 1073 c 128,-1,36
 356 1115 356 1115 272 1116 c 1,37,-1
 279 1149 l 1,38,-1
 810 1149 l 1,39,-1
 802 1116 l 1,40,41
 735 1115 735 1115 705.5 1095.5 c 128,-1,42
 676 1076 676 1076 671 1052 c 0,43,44
 665 1020 665 1020 692 960 c 2,45,-1
 814 696 l 1,46,-1
 1072 955 l 2,47,48
 1119 1002 1119 1002 1129.5 1019 c 128,-1,49
 1140 1036 1140 1036 1145 1052 c 0,50,51
 1149 1070 1149 1070 1141 1084 c 0,52,53
 1132 1102 1132 1102 1114 1108.5 c 128,-1,54
 1096 1115 1096 1115 1035 1116 c 1,55,-1
 1041 1149 l 1,56,-1
 1450 1149 l 1,57,-1
 1442 1116 l 1,58,59
 1395 1115 1395 1115 1361 1102 c 0,60,61
 1311 1081 1311 1081 1266 1048.5 c 128,-1,62
 1221 1016 1221 1016 1132 927 c 2,63,-1
 844 636 l 1,0,-1
EndSplineSet
EndChar

StartChar: Y
Encoding: 89 89 51
Width: 1252
Flags: W
LayerCount: 2
Fore
SplineSet
1070 1149 m 1,0,-1
 1471 1149 l 1,1,-1
 1464 1116 l 1,2,-1
 1441 1116 l 2,3,4
 1421 1116 1421 1116 1375 1096.5 c 128,-1,5
 1329 1077 1329 1077 1285.5 1041.5 c 128,-1,6
 1242 1006 1242 1006 1174 922 c 2,7,-1
 804 487 l 1,8,-1
 742 199 l 2,9,10
 720 94 720 94 739 66 c 0,11,12
 764 31 764 31 834 31 c 2,13,-1
 871 31 l 1,14,-1
 864 0 l 1,15,-1
 376 0 l 1,16,-1
 382 31 l 1,17,-1
 424 31 l 2,18,19
 496 31 496 31 535 75 c 0,20,21
 560 102 560 102 580 199 c 2,22,-1
 639 471 l 1,23,-1
 425 952 l 2,24,25
 387 1036 387 1036 372 1057.5 c 128,-1,26
 357 1079 357 1079 300 1109 c 0,27,28
 286 1116 286 1116 252 1116 c 1,29,-1
 259 1149 l 1,30,-1
 751 1149 l 1,31,-1
 744 1116 l 1,32,-1
 719 1116 l 2,33,34
 680 1116 680 1116 642 1098 c 128,-1,35
 604 1080 604 1080 596 1042 c 0,36,37
 589 1012 589 1012 624 932 c 2,38,-1
 786 562 l 1,39,-1
 1086 917 l 2,40,41
 1152 996 1152 996 1161 1036 c 0,42,43
 1166 1059 1166 1059 1158 1077 c 128,-1,44
 1150 1095 1150 1095 1129.5 1105.5 c 128,-1,45
 1109 1116 1109 1116 1064 1116 c 1,46,-1
 1070 1149 l 1,0,-1
EndSplineSet
EndChar

StartChar: Z
Encoding: 90 90 52
Width: 1060
Flags: W
LayerCount: 2
Fore
SplineSet
1241 1149 m 1,0,-1
 257 70 l 1,1,-1
 727 70 l 2,2,3
 837 70 837 70 904.5 117 c 128,-1,4
 972 164 972 164 1049 309 c 1,5,-1
 1075 304 l 1,6,-1
 956 0 l 1,7,-1
 22 0 l 1,8,-1
 29 31 l 1,9,-1
 989 1080 l 1,10,-1
 621 1080 l 2,11,12
 529 1080 529 1080 484 1060 c 128,-1,13
 439 1040 439 1040 409 1002.5 c 128,-1,14
 379 965 379 965 340 861 c 1,15,-1
 307 861 l 1,16,-1
 391 1149 l 1,17,-1
 1241 1149 l 1,0,-1
EndSplineSet
EndChar

StartChar: bracketleft
Encoding: 91 91 53
Width: 647
Flags: W
LayerCount: 2
Fore
SplineSet
512 -233 m 1,0,-1
 140 -233 l 1,1,-1
 550 1691 l 1,2,-1
 922 1691 l 1,3,-1
 901 1594 l 1,4,-1
 667 1594 l 1,5,-1
 300 -136 l 1,6,-1
 534 -136 l 1,7,-1
 512 -233 l 1,0,-1
EndSplineSet
EndChar

StartChar: backslash
Encoding: 92 92 54
Width: 609
Flags: W
LayerCount: 2
Fore
SplineSet
504 -379 m 1,0,-1
 384 -379 l 1,1,-1
 256 937 l 1,2,-1
 379 937 l 1,3,-1
 504 -379 l 1,0,-1
EndSplineSet
EndChar

StartChar: bracketright
Encoding: 93 93 55
Width: 647
Flags: W
LayerCount: 2
Fore
SplineSet
182 -136 m 1,0,-1
 415 -136 l 1,1,-1
 782 1594 l 1,2,-1
 550 1594 l 1,3,-1
 571 1691 l 1,4,-1
 944 1691 l 1,5,-1
 534 -233 l 1,6,-1
 161 -233 l 1,7,-1
 182 -136 l 1,0,-1
EndSplineSet
EndChar

StartChar: asciicircum
Encoding: 94 94 56
Width: 985
Flags: W
LayerCount: 2
Fore
SplineSet
991 452 m 1,0,-1
 860 452 l 1,1,-1
 676 864 l 1,2,-1
 314 451 l 1,3,-1
 182 451 l 1,4,-1
 660 982 l 1,5,-1
 742 982 l 1,6,-1
 991 452 l 1,0,-1
EndSplineSet
EndChar

StartChar: underscore
Encoding: 95 95 57
Width: 922
Flags: W
LayerCount: 2
Fore
SplineSet
882 -248 m 1,0,-1
 -65 -248 l 1,1,-1
 -43 -140 l 1,2,-1
 905 -140 l 1,3,-1
 882 -248 l 1,0,-1
EndSplineSet
EndChar

StartChar: grave
Encoding: 96 96 58
Width: 212
Flags: W
LayerCount: 2
Fore
SplineSet
120 1002 m 1,0,1
 155 922 155 922 176 851 c 1,2,3
 183 799 183 799 172 805 c 1,4,5
 150 837 150 837 102.5 927 c 128,-1,6
 55 1017 55 1017 46 1049 c 1,7,8
 43 1086 43 1086 120 1002 c 1,0,1
EndSplineSet
EndChar

StartChar: a
Encoding: 97 97 59
Width: 770
Flags: W
LayerCount: 2
Fore
SplineSet
516 112 m 1,0,1
 379 19 379 19 345 5 c 0,2,3
 295 -16 295 -16 242 -16 c 0,4,5
 162 -16 162 -16 121.5 39 c 128,-1,6
 81 94 81 94 100 184 c 0,7,8
 112 240 112 240 146 282 c 0,9,10
 195 340 195 340 291 390.5 c 128,-1,11
 387 441 387 441 602 515 c 1,12,-1
 609 544 l 2,13,14
 634 660 634 660 607 703.5 c 128,-1,15
 580 747 580 747 509 747 c 0,16,17
 455 747 455 747 416 717 c 0,18,19
 379 689 379 689 371 652 c 2,20,-1
 362 604 l 2,21,22
 354 564 354 564 329.5 542.5 c 128,-1,23
 305 521 305 521 274 521 c 0,24,25
 241 521 241 521 226 543 c 128,-1,26
 211 565 211 565 220 604 c 0,27,28
 235 676 235 676 322.5 736.5 c 128,-1,29
 410 797 410 797 544 797 c 0,30,31
 647 797 647 797 705 764 c 0,32,33
 751 739 751 739 762 681 c 0,34,35
 770 646 770 646 746 532 c 2,36,-1
 690 269 l 2,37,38
 667 159 667 159 665.5 133 c 128,-1,39
 664 107 664 107 672 99 c 128,-1,40
 680 91 680 91 694 91 c 0,41,42
 707 91 707 91 717 97 c 0,43,44
 739 107 739 107 800 159 c 1,45,-1
 789 112 l 1,46,47
 667 -15 667 -15 581 -15 c 0,48,49
 540 -15 540 -15 522 13.5 c 128,-1,50
 504 42 504 42 516 112 c 1,0,1
529 167 m 1,51,-1
 592 462 l 1,52,53
 454 412 454 412 411 391 c 0,54,55
 336 354 336 354 298.5 313 c 128,-1,56
 261 272 261 272 251 224 c 0,57,58
 237 162 237 162 266 122 c 128,-1,59
 295 82 295 82 341 82 c 0,60,61
 406 82 406 82 529 167 c 1,51,-1
EndSplineSet
EndChar

StartChar: b
Encoding: 98 98 60
Width: 867
Flags: W
LayerCount: 2
Fore
SplineSet
402 642 m 1,0,1
 549 797 549 797 680 797 c 0,2,3
 797 797 797 797 864.5 696 c 128,-1,4
 932 595 932 595 895 416 c 0,5,6
 851 211 851 211 687 85 c 0,7,8
 546 -23 546 -23 402 -23 c 0,9,10
 334 -23 334 -23 269.5 1 c 128,-1,11
 205 25 205 25 142 74 c 1,12,-1
 314 879 l 2,13,14
 341 1010 341 1010 341 1040.5 c 128,-1,15
 341 1071 341 1071 330 1082.5 c 128,-1,16
 319 1094 319 1094 299 1094 c 0,17,18
 275 1094 275 1094 236 1080 c 1,19,-1
 232 1110 l 1,20,-1
 485 1205 l 1,21,-1
 522 1205 l 1,22,-1
 402 642 l 1,0,1
391 587 m 1,23,-1
 292 124 l 1,24,25
 327 81 327 81 368.5 60 c 128,-1,26
 410 39 410 39 459 39 c 0,27,28
 535 39 535 39 619.5 123 c 128,-1,29
 704 207 704 207 739 370 c 0,30,31
 770 519 770 519 720.5 599 c 128,-1,32
 671 679 671 679 586 679 c 0,33,34
 542 679 542 679 491 655 c 0,35,36
 454 639 454 639 391 587 c 1,23,-1
EndSplineSet
EndChar

StartChar: c
Encoding: 99 99 61
Width: 770
Flags: W
LayerCount: 2
Fore
SplineSet
776 295 m 1,0,1
 711 141 711 141 601.5 59 c 128,-1,2
 492 -23 492 -23 382 -23 c 0,3,4
 250 -23 250 -23 175.5 88 c 128,-1,5
 101 199 101 199 141 387 c 0,6,7
 180 570 180 570 313 683.5 c 128,-1,8
 446 797 446 797 600 797 c 0,9,10
 714 797 714 797 774.5 737 c 128,-1,11
 835 677 835 677 821 612 c 0,12,13
 814 580 814 580 789 560 c 128,-1,14
 764 540 764 540 726 540 c 0,15,16
 676 540 676 540 659 572 c 0,17,18
 647 591 647 591 653 640.5 c 128,-1,19
 659 690 659 690 636 717 c 0,20,21
 611 742 611 742 559 742 c 0,22,23
 474 742 474 742 409 680 c 0,24,25
 324 596 324 596 295 459 c 0,26,27
 265 320 265 320 309.5 213.5 c 128,-1,28
 354 107 354 107 471 107 c 0,29,30
 554 107 554 107 632 165 c 0,31,32
 689 204 689 204 752 307 c 1,33,-1
 776 295 l 1,0,1
EndSplineSet
EndChar

StartChar: d
Encoding: 100 100 62
Width: 867
Flags: W
LayerCount: 2
Fore
SplineSet
621 86 m 1,0,1
 550 27 550 27 490.5 2 c 128,-1,2
 431 -23 431 -23 369 -23 c 0,3,4
 241 -23 241 -23 168.5 83 c 128,-1,5
 96 189 96 189 131 356 c 0,6,7
 167 522 167 522 302 661 c 128,-1,8
 437 800 437 800 602 800 c 0,9,10
 705 800 705 800 759 735 c 1,11,-1
 789 877 l 2,12,13
 816 1010 816 1010 816.5 1040.5 c 128,-1,14
 817 1071 817 1071 805.5 1082.5 c 128,-1,15
 794 1094 794 1094 774 1094 c 0,16,17
 751 1094 751 1094 714 1080 c 1,18,-1
 709 1110 l 1,19,-1
 960 1205 l 1,20,-1
 997 1205 l 1,21,-1
 806 307 l 2,22,23
 777 171 777 171 777 141 c 128,-1,24
 777 111 777 111 789 98.5 c 128,-1,25
 801 86 801 86 820 86 c 0,26,27
 842 86 842 86 882 102 c 1,28,-1
 885 72 l 1,29,-1
 636 -23 l 1,30,-1
 596 -23 l 1,31,-1
 621 86 l 1,0,1
634 146 m 1,32,-1
 717 546 l 2,33,34
 725 604 725 604 710 651.5 c 128,-1,35
 695 699 695 699 658 723 c 128,-1,36
 621 747 621 747 581 747 c 0,37,38
 507 747 507 747 434 680 c 0,39,40
 337 592 337 592 302 422 c 0,41,42
 266 252 266 252 321 161 c 128,-1,43
 376 70 376 70 467 70 c 0,44,45
 545 70 545 70 634 146 c 1,32,-1
EndSplineSet
EndChar

StartChar: e
Encoding: 101 101 63
Width: 770
Flags: W
LayerCount: 2
Fore
SplineSet
286 484 m 1,0,1
 249 311 249 311 312 212 c 0,2,3
 377 115 377 115 491 115 c 0,4,5
 567 115 567 115 632 157 c 128,-1,6
 697 199 697 199 759 299 c 1,7,-1
 780 282 l 1,8,9
 737 167 737 167 631 72 c 128,-1,10
 525 -23 525 -23 397 -23 c 0,11,12
 257 -23 257 -23 181 85.5 c 128,-1,13
 105 194 105 194 144 379 c 0,14,15
 186 576 186 576 311.5 688 c 128,-1,16
 437 800 437 800 592 800 c 0,17,18
 721 800 721 800 787.5 713.5 c 128,-1,19
 854 627 854 627 822 484 c 1,20,-1
 286 484 l 1,0,1
296 532 m 1,21,-1
 656 532 l 1,22,23
 669 607 669 607 661 637 c 0,24,25
 651 685 651 685 615 712 c 128,-1,26
 579 739 579 739 531 739 c 0,27,28
 462 739 462 739 394.5 684.5 c 128,-1,29
 327 630 327 630 296 532 c 1,21,-1
EndSplineSet
EndChar

StartChar: f
Encoding: 102 102 64
Width: 579
Flags: W
LayerCount: 2
Fore
SplineSet
509 715 m 1,0,-1
 401 205 l 2,1,2
 379 96 379 96 395 67 c 0,3,4
 419 31 419 31 471 31 c 2,5,-1
 542 31 l 1,6,-1
 536 0 l 1,7,-1
 72 0 l 1,8,-1
 77 31 l 1,9,-1
 112 31 l 2,10,11
 146 31 146 31 178.5 48 c 128,-1,12
 211 65 211 65 227.5 93.5 c 128,-1,13
 244 122 244 122 261 205 c 2,14,-1
 370 715 l 1,15,-1
 217 715 l 1,16,-1
 231 776 l 1,17,-1
 382 776 l 1,18,-1
 394 826 l 2,19,20
 419 942 419 942 472.5 1022 c 128,-1,21
 526 1102 526 1102 613.5 1152 c 128,-1,22
 701 1202 701 1202 796 1202 c 0,23,24
 885 1202 885 1202 947 1145 c 0,25,26
 989 1107 989 1107 979 1060 c 0,27,28
 972 1035 972 1035 945.5 1012 c 128,-1,29
 919 989 919 989 894 989 c 0,30,31
 875 989 875 989 856 1003 c 128,-1,32
 837 1017 837 1017 816 1063.5 c 128,-1,33
 795 1110 795 1110 771 1125 c 0,34,35
 749 1141 749 1141 717 1141 c 0,36,37
 677 1141 677 1141 645.5 1120.5 c 128,-1,38
 614 1100 614 1100 593 1057 c 128,-1,39
 572 1014 572 1014 534 832 c 2,40,-1
 522 776 l 1,41,-1
 721 776 l 1,42,-1
 709 715 l 1,43,-1
 509 715 l 1,0,-1
EndSplineSet
EndChar

StartChar: g
Encoding: 103 103 65
Width: 867
Flags: W
LayerCount: 2
Fore
SplineSet
321 282 m 1,0,1
 257 317 257 317 232 379.5 c 128,-1,2
 207 442 207 442 224 517 c 0,3,4
 249 634 249 634 353 715.5 c 128,-1,5
 457 797 457 797 592 797 c 0,6,7
 704 797 704 797 774 744 c 1,8,-1
 939 744 l 2,9,10
 974 744 974 744 979.5 742 c 128,-1,11
 985 740 985 740 987 735 c 0,12,13
 990 727 990 727 986 709 c 0,14,15
 981 686 981 686 976 677 c 0,16,17
 971 674 971 674 964 670.5 c 128,-1,18
 957 667 957 667 922 667 c 2,19,-1
 821 667 l 1,20,21
 856 607 856 607 835 512 c 0,22,23
 812 404 812 404 713 327 c 128,-1,24
 614 250 614 250 475 250 c 0,25,26
 416 250 416 250 359 266 c 1,27,28
 315 235 315 235 297 210.5 c 128,-1,29
 279 186 279 186 275 170 c 0,30,31
 272 155 272 155 283.5 141 c 128,-1,32
 295 127 295 127 332 122 c 0,33,34
 357 119 357 119 450 116 c 0,35,36
 625 112 625 112 675 104 c 0,37,38
 751 94 751 94 788 45.5 c 128,-1,39
 825 -3 825 -3 810 -71 c 0,40,41
 790 -168 790 -168 682 -251 c 0,42,43
 524 -375 524 -375 311 -375 c 0,44,45
 149 -375 149 -375 51 -300 c 0,46,47
 -3 -258 -3 -258 6 -213 c 0,48,49
 10 -193 10 -193 25 -171 c 0,50,51
 44 -140 44 -140 102 -85 c 0,52,53
 109 -78 109 -78 207 6 c 1,54,55
 170 32 170 32 155.5 53 c 128,-1,56
 141 74 141 74 147 101 c 0,57,58
 152 130 152 130 186 170 c 128,-1,59
 220 210 220 210 321 282 c 1,0,1
570 759 m 0,60,61
 507 759 507 759 454 709 c 128,-1,62
 401 659 401 659 379 555 c 0,63,64
 351 421 351 421 392 347 c 0,65,66
 425 291 425 291 492 291 c 0,67,68
 557 291 557 291 608.5 339 c 128,-1,69
 660 387 660 387 682 491 c 0,70,71
 711 625 711 625 667 701 c 0,72,73
 637 759 637 759 570 759 c 0,60,61
254 0 m 1,74,75
 204 -44 204 -44 175.5 -81 c 128,-1,76
 147 -118 147 -118 140 -149 c 0,77,78
 131 -190 131 -190 175 -220 c 0,79,80
 249 -274 249 -274 407 -274 c 0,81,82
 560 -274 560 -274 644.5 -219.5 c 128,-1,83
 729 -165 729 -165 742 -104 c 0,84,85
 751 -61 751 -61 711 -41 c 0,86,87
 671 -23 671 -23 542 -19 c 0,88,89
 352 -15 352 -15 254 0 c 1,74,75
EndSplineSet
EndChar

StartChar: h
Encoding: 104 104 66
Width: 867
Flags: W
LayerCount: 2
Fore
SplineSet
537 1205 m 1,0,-1
 416 637 l 1,1,2
 534 740 534 740 594.5 768.5 c 128,-1,3
 655 797 655 797 710 797 c 0,4,5
 776 797 776 797 816 761.5 c 128,-1,6
 856 726 856 726 864 647 c 0,7,8
 867 594 867 594 836 450 c 2,9,-1
 777 176 l 2,10,11
 762 102 762 102 767 74 c 0,12,13
 772 54 772 54 790.5 42.5 c 128,-1,14
 809 31 809 31 862 31 c 1,15,-1
 856 0 l 1,16,-1
 475 0 l 1,17,-1
 481 31 l 1,18,-1
 500 31 l 2,19,20
 554 31 554 31 579 47.5 c 128,-1,21
 604 64 604 64 617 95 c 0,22,23
 624 109 624 109 637 176 c 2,24,-1
 696 450 l 2,25,26
 722 576 722 576 717 616 c 128,-1,27
 712 656 712 656 688 676 c 128,-1,28
 664 696 664 696 624 696 c 0,29,30
 581 696 581 696 532.5 674 c 128,-1,31
 484 652 484 652 406 585 c 1,32,-1
 319 176 l 2,33,34
 302 95 302 95 306.5 75.5 c 128,-1,35
 311 56 311 56 332.5 43.5 c 128,-1,36
 354 31 354 31 414 31 c 1,37,-1
 407 0 l 1,38,-1
 22 0 l 1,39,-1
 29 31 l 1,40,41
 80 31 80 31 114 46 c 0,42,43
 131 55 131 55 146.5 78.5 c 128,-1,44
 162 102 162 102 177 176 c 2,45,-1
 327 877 l 2,46,47
 355 1010 355 1010 355.5 1040.5 c 128,-1,48
 356 1071 356 1071 345.5 1082.5 c 128,-1,49
 335 1094 335 1094 312 1094 c 0,50,51
 295 1094 295 1094 252 1080 c 1,52,-1
 246 1110 l 1,53,-1
 500 1205 l 1,54,-1
 537 1205 l 1,0,-1
EndSplineSet
EndChar

StartChar: i
Encoding: 105 105 67
Width: 482
Flags: W
LayerCount: 2
Fore
SplineSet
509 1205 m 0,0,1
 542 1205 542 1205 561.5 1179.5 c 128,-1,2
 581 1154 581 1154 575 1120 c 0,3,4
 567 1082 567 1082 536 1056.5 c 128,-1,5
 505 1031 505 1031 471 1031 c 0,6,7
 434 1031 434 1031 414.5 1056.5 c 128,-1,8
 395 1082 395 1082 404 1120 c 0,9,10
 410 1154 410 1154 440.5 1179.5 c 128,-1,11
 471 1205 471 1205 509 1205 c 0,0,1
491 797 m 1,12,-1
 357 176 l 2,13,14
 342 102 342 102 348 78 c 128,-1,15
 354 54 354 54 372 42.5 c 128,-1,16
 390 31 390 31 446 31 c 1,17,-1
 440 0 l 1,18,-1
 62 0 l 1,19,-1
 69 31 l 1,20,21
 125 31 125 31 147.5 41.5 c 128,-1,22
 170 52 170 52 186 78 c 128,-1,23
 202 104 202 104 217 176 c 2,24,-1
 281 475 l 2,25,26
 307 600 307 600 307 637 c 0,27,28
 307 665 307 665 296.5 675.5 c 128,-1,29
 286 686 286 686 266 686 c 0,30,31
 241 686 241 686 205 674 c 1,32,-1
 200 705 l 1,33,-1
 454 797 l 1,34,-1
 491 797 l 1,12,-1
EndSplineSet
EndChar

StartChar: j
Encoding: 106 106 68
Width: 482
Flags: W
LayerCount: 2
Fore
SplineSet
507 1205 m 0,0,1
 542 1205 542 1205 562 1179.5 c 128,-1,2
 582 1154 582 1154 575 1119 c 0,3,4
 567 1081 567 1081 536 1056 c 128,-1,5
 505 1031 505 1031 470 1031 c 0,6,7
 432 1031 432 1031 412 1056 c 128,-1,8
 392 1081 392 1081 400 1119 c 0,9,10
 407 1154 407 1154 439 1179.5 c 128,-1,11
 471 1205 471 1205 507 1205 c 0,0,1
494 797 m 1,12,-1
 329 19 l 2,13,14
 286 -181 286 -181 180.5 -278 c 128,-1,15
 75 -375 75 -375 -60 -375 c 0,16,17
 -138 -375 -138 -375 -169.5 -347 c 128,-1,18
 -201 -319 -201 -319 -195 -289 c 0,19,20
 -189 -260 -189 -260 -163.5 -239 c 128,-1,21
 -138 -218 -138 -218 -110 -218 c 0,22,23
 -88 -218 -88 -218 -68 -228 c 0,24,25
 -53 -234 -53 -234 -20.5 -271 c 128,-1,26
 12 -308 12 -308 40 -308 c 0,27,28
 61 -308 61 -308 83.5 -292 c 128,-1,29
 106 -276 106 -276 123 -239.5 c 128,-1,30
 140 -203 140 -203 166 -80 c 2,31,-1
 284 472 l 2,32,33
 311 600 311 600 311 637 c 0,34,35
 311 665 311 665 301 675.5 c 128,-1,36
 291 686 291 686 269 686 c 0,37,38
 245 686 245 686 207 674 c 1,39,-1
 202 705 l 1,40,-1
 456 797 l 1,41,-1
 494 797 l 1,12,-1
EndSplineSet
EndChar

StartChar: k
Encoding: 107 107 69
Width: 867
Flags: W
LayerCount: 2
Fore
SplineSet
540 1205 m 1,0,-1
 375 432 l 1,1,-1
 610 612 l 2,2,3
 685 670 685 670 699 685 c 0,4,5
 709 696 709 696 710 705 c 0,6,7
 714 721 714 721 702.5 734 c 128,-1,8
 691 747 691 747 659 749 c 1,9,-1
 665 776 l 1,10,-1
 1002 776 l 1,11,-1
 996 749 l 1,12,13
 927 747 927 747 876.5 728 c 128,-1,14
 826 709 826 709 760 659 c 2,15,-1
 521 475 l 1,16,-1
 667 222 l 2,17,18
 730 119 730 119 751 91 c 0,19,20
 784 51 784 51 811 40 c 0,21,22
 831 31 831 31 884 31 c 1,23,-1
 877 0 l 1,24,-1
 500 0 l 1,25,-1
 506 31 l 1,26,27
 539 31 539 31 552 40 c 128,-1,28
 565 49 565 49 569 65 c 0,29,30
 572 85 572 85 549 127 c 2,31,-1
 375 432 l 1,32,-1
 320 175 l 2,33,34
 304 99 304 99 310 75.5 c 128,-1,35
 316 52 316 52 333.5 41.5 c 128,-1,36
 351 31 351 31 415 31 c 1,37,-1
 409 0 l 1,38,-1
 15 0 l 1,39,-1
 20 31 l 1,40,41
 80 31 80 31 112 44 c 0,42,43
 131 54 131 54 145 74 c 0,44,45
 164 102 164 102 177 170 c 2,46,-1
 329 876 l 2,47,48
 357 1010 357 1010 357 1040.5 c 128,-1,49
 357 1071 357 1071 346.5 1082.5 c 128,-1,50
 336 1094 336 1094 315 1094 c 0,51,52
 296 1094 296 1094 257 1080 c 1,53,-1
 250 1110 l 1,54,-1
 500 1205 l 1,55,-1
 540 1205 l 1,0,-1
EndSplineSet
EndChar

StartChar: l
Encoding: 108 108 70
Width: 482
Flags: W
LayerCount: 2
Fore
SplineSet
576 1205 m 1,0,-1
 357 176 l 2,1,2
 341 102 341 102 347.5 78.5 c 128,-1,3
 354 55 354 55 373 43 c 128,-1,4
 392 31 392 31 452 31 c 1,5,-1
 446 0 l 1,6,-1
 65 0 l 1,7,-1
 71 31 l 1,8,9
 125 31 125 31 147.5 41.5 c 128,-1,10
 170 52 170 52 185.5 78 c 128,-1,11
 201 104 201 104 216 176 c 2,12,-1
 366 880 l 2,13,14
 395 1010 395 1010 395 1040.5 c 128,-1,15
 395 1071 395 1071 384.5 1082.5 c 128,-1,16
 374 1094 374 1094 354 1094 c 0,17,18
 331 1094 331 1094 295 1080 c 1,19,-1
 287 1110 l 1,20,-1
 539 1205 l 1,21,-1
 576 1205 l 1,0,-1
EndSplineSet
EndChar

StartChar: m
Encoding: 109 109 71
Width: 1349
Flags: W
LayerCount: 2
Fore
SplineSet
419 634 m 1,0,1
 521 717 521 717 539 730 c 0,2,3
 584 764 584 764 632 780.5 c 128,-1,4
 680 797 680 797 722 797 c 0,5,6
 796 797 796 797 839 755.5 c 128,-1,7
 882 714 882 714 884 634 c 1,8,9
 992 735 992 735 1059 766 c 128,-1,10
 1126 797 1126 797 1190 797 c 0,11,12
 1251 797 1251 797 1292.5 766 c 128,-1,13
 1334 735 1334 735 1346 664 c 0,14,15
 1355 614 1355 614 1332 509 c 2,16,-1
 1261 176 l 2,17,18
 1246 102 1246 102 1251 75 c 0,19,20
 1255 56 1255 56 1275 43.5 c 128,-1,21
 1295 31 1295 31 1347 31 c 1,22,-1
 1341 0 l 1,23,-1
 960 0 l 1,24,-1
 965 31 l 1,25,-1
 981 31 l 2,26,27
 1031 31 1031 31 1062 50 c 0,28,29
 1086 64 1086 64 1100 94 c 0,30,31
 1106 107 1106 107 1120 176 c 2,32,-1
 1191 509 l 2,33,34
 1211 604 1211 604 1196 642 c 0,35,36
 1175 696 1175 696 1102 696 c 0,37,38
 1057 696 1057 696 1007 674 c 128,-1,39
 957 652 957 652 881 591 c 1,40,-1
 876 582 l 1,41,-1
 871 545 l 1,42,-1
 792 176 l 2,43,44
 776 95 776 95 780.5 75.5 c 128,-1,45
 785 56 785 56 807 43.5 c 128,-1,46
 829 31 829 31 887 31 c 1,47,-1
 881 0 l 1,48,-1
 489 0 l 1,49,-1
 495 31 l 1,50,51
 559 31 559 31 587 46 c 128,-1,52
 615 61 615 61 631 91 c 0,53,54
 639 106 639 106 652 176 c 2,55,-1
 724 509 l 2,56,57
 744 604 744 604 724 646 c 0,58,59
 699 700 699 700 632 700 c 0,60,61
 586 700 586 700 536 676 c 0,62,63
 457 637 457 637 410 591 c 1,64,-1
 321 176 l 2,65,66
 305 99 305 99 310.5 75.5 c 128,-1,67
 316 52 316 52 335 41.5 c 128,-1,68
 354 31 354 31 416 31 c 1,69,-1
 411 0 l 1,70,-1
 27 0 l 1,71,-1
 34 31 l 1,72,73
 86 31 86 31 110 41.5 c 128,-1,74
 134 52 134 52 150 78 c 128,-1,75
 166 104 166 104 182 176 c 2,76,-1
 245 472 l 2,77,78
 272 600 272 600 272 637 c 0,79,80
 271 665 271 665 261 675.5 c 128,-1,81
 251 686 251 686 229 686 c 0,82,83
 206 686 206 686 170 674 c 1,84,-1
 164 705 l 1,85,-1
 416 797 l 1,86,-1
 454 797 l 1,87,-1
 419 634 l 1,0,1
EndSplineSet
EndChar

StartChar: n
Encoding: 110 110 72
Width: 867
Flags: W
LayerCount: 2
Fore
SplineSet
415 634 m 1,0,1
 586 797 586 797 709 797 c 0,2,3
 772 797 772 797 811.5 766 c 128,-1,4
 851 735 851 735 862 664 c 0,5,6
 871 612 871 612 847 506 c 2,7,-1
 777 176 l 2,8,9
 762 102 762 102 767 75 c 0,10,11
 772 54 772 54 791 42.5 c 128,-1,12
 810 31 810 31 865 31 c 1,13,-1
 860 0 l 1,14,-1
 476 0 l 1,15,-1
 482 31 l 1,16,-1
 499 31 l 2,17,18
 552 31 552 31 578 47.5 c 128,-1,19
 604 64 604 64 617 95 c 0,20,21
 624 107 624 107 639 176 c 2,22,-1
 706 494 l 2,23,24
 729 600 729 600 711.5 647.5 c 128,-1,25
 694 695 694 695 627 695 c 0,26,27
 527 695 527 695 404 584 c 1,28,-1
 316 176 l 2,29,30
 300 96 300 96 306 77 c 0,31,32
 311 52 311 52 330 41.5 c 128,-1,33
 349 31 349 31 412 31 c 1,34,-1
 406 0 l 1,35,-1
 22 0 l 1,36,-1
 29 31 l 1,37,-1
 46 31 l 2,38,39
 105 31 105 31 132.5 61 c 128,-1,40
 160 91 160 91 177 176 c 2,41,-1
 239 464 l 2,42,43
 269 604 269 604 269 634 c 128,-1,44
 269 664 269 664 258 675 c 128,-1,45
 247 686 247 686 224 686 c 256,46,47
 201 686 201 686 165 674 c 1,48,-1
 160 705 l 1,49,-1
 412 797 l 1,50,-1
 450 797 l 1,51,-1
 415 634 l 1,0,1
EndSplineSet
EndChar

StartChar: o
Encoding: 111 111 73
Width: 867
Flags: W
LayerCount: 2
Fore
SplineSet
604 797 m 0,0,1
 780 797 780 797 857 665 c 0,2,3
 922 550 922 550 891 402 c 0,4,5
 869 299 869 299 797 192 c 128,-1,6
 725 85 725 85 625 31 c 128,-1,7
 525 -23 525 -23 419 -23 c 0,8,9
 242 -23 242 -23 170 116 c 0,10,11
 107 234 107 234 139 380 c 0,12,13
 161 487 161 487 236 592 c 128,-1,14
 311 697 311 697 408.5 747 c 128,-1,15
 506 797 506 797 604 797 c 0,0,1
566 742 m 0,16,17
 520 742 520 742 469.5 716 c 128,-1,18
 419 690 419 690 376.5 623.5 c 128,-1,19
 334 557 334 557 311 451 c 0,20,21
 275 282 275 282 316 158.5 c 128,-1,22
 357 35 357 35 467 35 c 0,23,24
 550 35 550 35 617.5 103 c 128,-1,25
 685 171 685 171 721 336 c 0,26,27
 765 544 765 544 701 664 c 0,28,29
 659 742 659 742 566 742 c 0,16,17
EndSplineSet
EndChar

StartChar: p
Encoding: 112 112 74
Width: 867
Flags: W
LayerCount: 2
Fore
SplineSet
146 699 m 1,0,-1
 405 795 l 1,1,-1
 437 795 l 1,2,-1
 399 614 l 1,3,4
 481 717 481 717 551 757 c 128,-1,5
 621 797 621 797 687 797 c 0,6,7
 804 797 804 797 862 707 c 0,8,9
 934 595 934 595 895 416 c 0,10,11
 852 215 852 215 709 84 c 0,12,13
 592 -23 592 -23 449 -23 c 0,14,15
 386 -23 386 -23 344 -6 c 0,16,17
 311 6 311 6 277 44 c 1,18,-1
 227 -191 l 2,19,20
 211 -271 211 -271 216 -293 c 128,-1,21
 221 -315 221 -315 242.5 -327.5 c 128,-1,22
 264 -340 264 -340 327 -340 c 1,23,-1
 321 -370 l 1,24,-1
 -85 -370 l 1,25,-1
 -79 -340 l 1,26,-1
 -58 -340 l 2,27,28
 -10 -341 -10 -341 27 -321 c 0,29,30
 44 -313 44 -313 57.5 -292 c 128,-1,31
 71 -271 71 -271 89 -186 c 2,32,-1
 245 547 l 2,33,34
 261 622 261 622 258.5 643 c 128,-1,35
 256 664 256 664 243.5 674 c 128,-1,36
 231 684 231 684 206 684 c 0,37,38
 186 684 186 684 151 671 c 1,39,-1
 146 699 l 1,0,-1
387 564 m 1,40,-1
 326 274 l 2,41,42
 306 180 306 180 309 150 c 0,43,44
 310 102 310 102 348.5 64.5 c 128,-1,45
 387 27 387 27 457 27 c 0,46,47
 542 27 542 27 609 94 c 0,48,49
 695 180 695 180 729 336 c 0,50,51
 766 515 766 515 709 610 c 0,52,53
 669 676 669 676 595 676 c 0,54,55
 554 676 554 676 509 655 c 0,56,57
 475 640 475 640 387 564 c 1,40,-1
EndSplineSet
EndChar

StartChar: q
Encoding: 113 113 75
Width: 867
Flags: W
LayerCount: 2
Fore
SplineSet
910 797 m 1,0,-1
 699 -199 l 2,1,2
 682 -274 682 -274 688 -295 c 128,-1,3
 694 -316 694 -316 712.5 -328 c 128,-1,4
 731 -340 731 -340 794 -340 c 1,5,-1
 789 -370 l 1,6,-1
 397 -370 l 1,7,-1
 404 -340 l 1,8,-1
 420 -340 l 2,9,10
 466 -340 466 -340 494 -326 c 0,11,12
 514 -316 514 -316 529 -292.5 c 128,-1,13
 544 -269 544 -269 559 -199 c 2,14,-1
 630 135 l 1,15,16
 532 44 532 44 468 10.5 c 128,-1,17
 404 -23 404 -23 341 -23 c 0,18,19
 229 -23 229 -23 161.5 79 c 128,-1,20
 94 181 94 181 131 354 c 0,21,22
 174 550 174 550 317 673.5 c 128,-1,23
 460 797 460 797 625 797 c 0,24,25
 675 797 675 797 712.5 784.5 c 128,-1,26
 750 772 750 772 776 744 c 1,27,28
 830 769 830 769 881 797 c 1,29,-1
 910 797 l 1,0,-1
641 189 m 1,30,-1
 719 552 l 2,31,32
 732 616 732 616 723 652.5 c 128,-1,33
 714 689 714 689 677.5 714 c 128,-1,34
 641 739 641 739 587 739 c 0,35,36
 492 739 492 739 407 659 c 128,-1,37
 322 579 322 579 287 415 c 0,38,39
 254 257 254 257 305.5 176 c 128,-1,40
 357 95 357 95 455 95 c 0,41,42
 505 95 505 95 548.5 117 c 128,-1,43
 592 139 592 139 641 189 c 1,30,-1
EndSplineSet
EndChar

StartChar: r
Encoding: 114 114 76
Width: 636
Flags: W
LayerCount: 2
Fore
SplineSet
451 797 m 1,0,-1
 407 595 l 1,1,2
 580 785 580 785 681 785 c 0,3,4
 727 785 727 785 752 757.5 c 128,-1,5
 777 730 777 730 769 692 c 0,6,7
 762 659 762 659 735.5 635.5 c 128,-1,8
 709 612 709 612 679 612 c 256,9,10
 649 612 649 612 618 641.5 c 128,-1,11
 587 671 587 671 569 671 c 0,12,13
 555 671 555 671 532 655 c 0,14,15
 487 621 487 621 392 522 c 1,16,-1
 320 181 l 2,17,18
 306 116 306 116 315 84 c 0,19,20
 320 61 320 61 345 46 c 128,-1,21
 370 31 370 31 422 31 c 1,22,-1
 416 0 l 1,23,-1
 19 0 l 1,24,-1
 25 31 l 1,25,26
 84 31 84 31 117 49 c 0,27,28
 141 62 141 62 157 92 c 0,29,30
 164 106 164 106 177 175 c 2,31,-1
 242 475 l 2,32,33
 270 611 270 611 270 637.5 c 128,-1,34
 270 664 270 664 258 675 c 128,-1,35
 246 686 246 686 224 686 c 0,36,37
 199 686 199 686 161 674 c 1,38,-1
 160 705 l 1,39,-1
 415 797 l 1,40,-1
 451 797 l 1,0,-1
EndSplineSet
EndChar

StartChar: s
Encoding: 115 115 77
Width: 676
Flags: W
LayerCount: 2
Fore
SplineSet
725 797 m 1,0,-1
 667 534 l 1,1,-1
 640 534 l 1,2,3
 635 659 635 659 594.5 704 c 128,-1,4
 554 749 554 749 475 749 c 0,5,6
 416 749 416 749 372.5 717.5 c 128,-1,7
 329 686 329 686 321 647 c 0,8,9
 311 600 311 600 331 566 c 0,10,11
 351 531 351 531 424 494 c 2,12,-1
 534 432 l 1,13,14
 689 350 689 350 659 211 c 0,15,16
 636 106 636 106 542.5 41.5 c 128,-1,17
 449 -23 449 -23 350 -23 c 0,18,19
 279 -23 279 -23 192 2 c 0,20,21
 165 10 165 10 149 10 c 0,22,23
 129 10 129 10 114 -11 c 1,24,-1
 85 -11 l 1,25,-1
 144 265 l 1,26,-1
 172 265 l 1,27,28
 170 146 170 146 224.5 86.5 c 128,-1,29
 279 27 279 27 362 27 c 0,30,31
 420 27 420 27 464.5 61 c 128,-1,32
 509 95 509 95 519 142 c 0,33,34
 531 201 531 201 498.5 241.5 c 128,-1,35
 466 282 466 282 356 343 c 128,-1,36
 246 404 246 404 219 452 c 0,37,38
 190 500 190 500 206 574 c 0,39,40
 226 670 226 670 305.5 733.5 c 128,-1,41
 385 797 385 797 489 797 c 0,42,43
 536 797 536 797 596 780 c 0,44,45
 637 766 637 766 651 766 c 0,46,47
 664 766 664 766 673 772.5 c 128,-1,48
 682 779 682 779 696 797 c 1,49,-1
 725 797 l 1,0,-1
EndSplineSet
EndChar

StartChar: t
Encoding: 116 116 78
Width: 482
Flags: W
LayerCount: 2
Fore
SplineSet
497 1031 m 1,0,-1
 444 776 l 1,1,-1
 625 776 l 1,2,-1
 612 717 l 1,3,-1
 431 717 l 1,4,-1
 324 214 l 2,5,6
 307 137 307 137 323.5 111.5 c 128,-1,7
 340 86 340 86 375 86 c 0,8,9
 401 86 401 86 431.5 103 c 128,-1,10
 462 120 462 120 484 155 c 1,11,-1
 517 155 l 1,12,13
 470 71 470 71 407 29 c 128,-1,14
 344 -13 344 -13 286 -13 c 0,15,16
 247 -13 247 -13 214.5 9 c 128,-1,17
 182 31 182 31 172 71 c 128,-1,18
 162 111 162 111 180 195 c 2,19,-1
 291 717 l 1,20,-1
 170 717 l 1,21,-1
 175 744 l 1,22,23
 225 764 225 764 283 808 c 128,-1,24
 341 852 341 852 392 912 c 0,25,26
 419 945 419 945 471 1031 c 1,27,-1
 497 1031 l 1,0,-1
EndSplineSet
EndChar

StartChar: u
Encoding: 117 117 79
Width: 867
Flags: W
LayerCount: 2
Fore
SplineSet
899 776 m 1,0,-1
 799 306 l 2,1,2
 770 171 770 171 770.5 141 c 128,-1,3
 771 111 771 111 781.5 98.5 c 128,-1,4
 792 86 792 86 812 86 c 0,5,6
 837 86 837 86 875 102 c 1,7,-1
 880 72 l 1,8,-1
 627 -23 l 1,9,-1
 589 -23 l 1,10,-1
 625 140 l 1,11,12
 501 31 501 31 442.5 4 c 128,-1,13
 384 -23 384 -23 325 -23 c 0,14,15
 260 -23 260 -23 220.5 14.5 c 128,-1,16
 181 52 181 52 175.5 111 c 128,-1,17
 170 170 170 170 192 279 c 2,18,-1
 266 625 l 2,19,20
 279 680 279 680 270 700.5 c 128,-1,21
 261 721 261 721 240.5 733 c 128,-1,22
 220 745 220 745 160 744 c 1,23,-1
 166 776 l 1,24,-1
 437 776 l 1,25,-1
 327 256 l 2,26,27
 304 149 304 149 335 115 c 128,-1,28
 366 81 366 81 419 81 c 0,29,30
 454 81 454 81 505.5 103.5 c 128,-1,31
 557 126 557 126 635 190 c 1,32,-1
 729 630 l 2,33,34
 742 696 742 696 723.5 719 c 128,-1,35
 705 742 705 742 627 744 c 1,36,-1
 634 776 l 1,37,-1
 899 776 l 1,0,-1
EndSplineSet
EndChar

StartChar: v
Encoding: 118 118 80
Width: 867
Flags: W
LayerCount: 2
Fore
SplineSet
179 776 m 1,0,-1
 544 776 l 1,1,-1
 537 744 l 1,2,-1
 514 744 l 2,3,4
 480 744 480 744 459.5 728 c 128,-1,5
 439 712 439 712 432 685 c 0,6,7
 426 655 426 655 436 615 c 2,8,-1
 525 186 l 1,9,-1
 801 631 l 2,10,11
 831 679 831 679 836 702 c 0,12,13
 839 715 839 715 832 721 c 1,14,15
 826 735 826 735 813 739.5 c 128,-1,16
 800 744 800 744 755 744 c 1,17,-1
 762 776 l 1,18,-1
 1015 776 l 1,19,-1
 1009 744 l 1,20,21
 964 741 964 741 944 726 c 0,22,23
 909 701 909 701 872 642 c 2,24,-1
 456 -23 l 1,25,-1
 420 -23 l 1,26,-1
 284 631 l 2,27,28
 274 676 274 676 261.5 696.5 c 128,-1,29
 249 717 249 717 226 730 c 0,30,31
 214 739 214 739 172 744 c 1,32,-1
 179 776 l 1,0,-1
EndSplineSet
EndChar

StartChar: w
Encoding: 119 119 81
Width: 1252
Flags: W
LayerCount: 2
Fore
SplineSet
175 776 m 1,0,-1
 501 776 l 1,1,-1
 495 744 l 1,2,3
 447 741 447 741 431.5 728.5 c 128,-1,4
 416 716 416 716 410 692 c 0,5,6
 405 666 405 666 410 629 c 2,7,-1
 482 182 l 1,8,-1
 726 545 l 1,9,-1
 705 659 l 2,10,11
 696 710 696 710 667 730 c 0,12,13
 651 742 651 742 601 744 c 1,14,-1
 609 776 l 1,15,-1
 977 776 l 1,16,-1
 971 744 l 1,17,18
 909 742 909 742 880 721 c 0,19,20
 860 709 860 709 854 680 c 0,21,22
 850 664 850 664 854 645 c 2,23,-1
 934 199 l 1,24,-1
 1190 629 l 2,25,26
 1216 675 1216 675 1221 701 c 0,27,28
 1225 717 1225 717 1211 729.5 c 128,-1,29
 1197 742 1197 742 1150 744 c 1,30,-1
 1157 776 l 1,31,-1
 1401 776 l 1,32,-1
 1395 744 l 1,33,34
 1317 734 1317 734 1266 645 c 2,35,-1
 864 -23 l 1,36,-1
 829 -23 l 1,37,-1
 740 472 l 1,38,-1
 407 -23 l 1,39,-1
 377 -23 l 1,40,-1
 266 629 l 2,41,42
 255 690 255 690 235.5 712 c 128,-1,43
 216 734 216 734 169 744 c 1,44,-1
 175 776 l 1,0,-1
EndSplineSet
EndChar

StartChar: x
Encoding: 120 120 82
Width: 867
Flags: W
LayerCount: 2
Fore
SplineSet
187 776 m 1,0,-1
 552 776 l 1,1,-1
 546 744 l 1,2,3
 511 744 511 744 495 732.5 c 128,-1,4
 479 721 479 721 474 701 c 0,5,6
 470 680 470 680 490 639 c 0,7,8
 496 625 496 625 509 596 c 2,9,-1
 546 509 l 1,10,-1
 627 596 l 2,11,12
 706 680 706 680 710 701 c 0,13,14
 714 720 714 720 702.5 732 c 128,-1,15
 691 744 691 744 659 744 c 1,16,-1
 666 776 l 1,17,-1
 929 776 l 1,18,-1
 922 744 l 1,19,20
 879 742 879 742 845 721 c 0,21,22
 796 692 796 692 705 596 c 2,23,-1
 569 455 l 1,24,-1
 704 177 l 2,25,26
 752 74 752 74 778.5 53 c 128,-1,27
 805 32 805 32 851 31 c 1,28,-1
 846 0 l 1,29,-1
 480 0 l 1,30,-1
 486 31 l 1,31,32
 525 31 525 31 550 47 c 0,33,34
 567 60 567 60 571 77 c 0,35,36
 575 99 575 99 539 177 c 2,37,-1
 460 342 l 1,38,-1
 301 177 l 2,39,40
 225 99 225 99 222 86 c 0,41,42
 219 65 219 65 234.5 48 c 128,-1,43
 250 31 250 31 287 31 c 1,44,-1
 282 0 l 1,45,-1
 29 0 l 1,46,-1
 35 31 l 1,47,48
 66 35 66 35 94 52 c 0,49,50
 130 76 130 76 227 177 c 2,51,-1
 436 392 l 1,52,-1
 332 606 l 2,53,54
 291 697 291 697 261.5 720.5 c 128,-1,55
 232 744 232 744 181 744 c 1,56,-1
 187 776 l 1,0,-1
EndSplineSet
EndChar

StartChar: y
Encoding: 121 121 83
Width: 867
Flags: W
LayerCount: 2
Fore
SplineSet
175 776 m 1,0,-1
 536 776 l 1,1,-1
 529 744 l 1,2,-1
 511 744 l 2,3,4
 474 744 474 744 451.5 727.5 c 128,-1,5
 429 711 429 711 422 687 c 0,6,7
 416 655 416 655 432 595 c 2,8,-1
 537 204 l 1,9,-1
 801 634 l 2,10,11
 825 667 825 667 831 701 c 0,12,13
 835 717 835 717 830 724 c 0,14,15
 825 734 825 734 812.5 739 c 128,-1,16
 800 744 800 744 762 744 c 1,17,-1
 769 776 l 1,18,-1
 1022 776 l 1,19,-1
 1015 744 l 1,20,21
 982 741 982 741 963.5 731 c 128,-1,22
 945 721 945 721 919 692 c 0,23,24
 909 680 909 680 876 627 c 2,25,-1
 395 -146 l 2,26,27
 325 -260 325 -260 238.5 -317.5 c 128,-1,28
 152 -375 152 -375 84 -375 c 0,29,30
 35 -375 35 -375 9.5 -345.5 c 128,-1,31
 -16 -316 -16 -316 -9 -279 c 0,32,33
 -1 -244 -1 -244 25.5 -222.5 c 128,-1,34
 52 -201 52 -201 94 -201 c 0,35,36
 122 -201 122 -201 166 -220 c 0,37,38
 197 -233 197 -233 206 -233 c 0,39,40
 232 -233 232 -233 267 -206.5 c 128,-1,41
 302 -180 302 -180 350 -104 c 2,42,-1
 432 31 l 1,43,-1
 279 616 l 2,44,45
 271 642 271 642 252 680 c 0,46,47
 236 710 236 710 226 721 c 0,48,49
 209 735 209 735 169 744 c 1,50,-1
 175 776 l 1,0,-1
EndSplineSet
EndChar

StartChar: z
Encoding: 122 122 84
Width: 770
Flags: W
LayerCount: 2
Fore
SplineSet
779 239 m 1,0,-1
 719 0 l 1,1,-1
 35 0 l 1,2,-1
 40 31 l 1,3,-1
 701 717 l 1,4,-1
 447 717 l 2,5,6
 366 717 366 717 338 706.5 c 128,-1,7
 310 696 310 696 287 666 c 0,8,9
 256 624 256 624 239 561 c 1,10,-1
 205 561 l 1,11,-1
 256 776 l 1,12,-1
 906 776 l 1,13,-1
 900 744 l 1,14,-1
 234 56 l 1,15,-1
 516 56 l 2,16,17
 605 56 605 56 640.5 71 c 128,-1,18
 676 86 676 86 702 124 c 0,19,20
 721 150 721 150 750 239 c 1,21,-1
 779 239 l 1,0,-1
EndSplineSet
EndChar

StartChar: braceleft
Encoding: 123 123 85
Width: 832
Flags: W
LayerCount: 2
Fore
SplineSet
639 -345 m 1,0,-1
 632 -375 l 1,1,2
 495 -355 495 -355 426 -260 c 128,-1,3
 357 -165 357 -165 382 -49 c 0,4,5
 395 12 395 12 432.5 93.5 c 128,-1,6
 470 175 470 175 479 220 c 0,7,8
 491 280 491 280 451.5 333.5 c 128,-1,9
 412 387 412 387 324 399 c 1,10,-1
 331 432 l 1,11,12
 425 445 425 445 487.5 497.5 c 128,-1,13
 550 550 550 550 562 612 c 0,14,15
 571 656 571 656 569 736.5 c 128,-1,16
 567 817 567 817 580 879 c 0,17,18
 605 994 605 994 713.5 1090 c 128,-1,19
 822 1186 822 1186 969 1205 c 1,20,-1
 961 1175 l 1,21,22
 857 1151 857 1151 799.5 1097.5 c 128,-1,23
 742 1044 742 1044 729 980 c 0,24,25
 717 930 717 930 719 847.5 c 128,-1,26
 721 765 721 765 709 709 c 0,27,28
 691 622 691 622 611.5 542 c 128,-1,29
 532 462 532 462 397 416 c 1,30,31
 510 372 510 372 557 290.5 c 128,-1,32
 604 209 604 209 585 124 c 0,33,34
 572 65 572 65 536 -17 c 128,-1,35
 500 -99 500 -99 489 -149 c 0,36,37
 475 -213 475 -213 510 -266.5 c 128,-1,38
 545 -320 545 -320 639 -345 c 1,0,-1
EndSplineSet
EndChar

StartChar: bar
Encoding: 124 124 86
Width: 347
Flags: W
LayerCount: 2
Fore
SplineSet
462 1205 m 1,0,-1
 127 -375 l 1,1,-1
 56 -375 l 1,2,-1
 392 1205 l 1,3,-1
 462 1205 l 1,0,-1
EndSplineSet
EndChar

StartChar: asciitilde
Encoding: 126 126 87
Width: 939
Flags: W
LayerCount: 2
Fore
SplineSet
1004 571 m 1,0,-1
 1042 571 l 1,1,2
 1015 462 1015 462 942 399 c 128,-1,3
 869 336 869 336 785 336 c 0,4,5
 746 336 746 336 703.5 349 c 128,-1,6
 661 362 661 362 491 440 c 0,7,8
 371 494 371 494 316 494 c 0,9,10
 257 494 257 494 209 457.5 c 128,-1,11
 161 421 161 421 125 339 c 1,12,-1
 89 339 l 1,13,14
 119 454 119 454 189 514 c 128,-1,15
 259 574 259 574 336 574 c 0,16,17
 374 574 374 574 410 562 c 0,18,19
 492 537 492 537 623.5 475.5 c 128,-1,20
 755 414 755 414 814 414 c 0,21,22
 876 414 876 414 928 455 c 128,-1,23
 980 496 980 496 1004 571 c 1,0,-1
EndSplineSet
EndChar

StartChar: ccedilla
Encoding: 231 231 90
Width: 805
Flags: W
LayerCount: 2
Fore
SplineSet
775 198 m 1,0,-1
 764 142 l 1,1,2
 616 37 616 37 445 -9 c 1,3,-1
 408 -65 l 1,4,5
 481 -86 481 -86 481 -146 c 0,6,7
 481 -197 481 -197 424.5 -240.5 c 128,-1,8
 368 -284 368 -284 301 -284 c 0,9,10
 272 -284 272 -284 232 -277 c 1,11,-1
 287 -201 l 1,12,13
 322 -223 322 -223 348 -223 c 0,14,15
 412 -223 412 -223 412 -172 c 0,16,17
 412 -117 412 -117 311 -111 c 1,18,-1
 376 -19 l 1,19,20
 145 5 145 5 145 228 c 0,21,22
 145 445 145 445 302 622 c 128,-1,23
 459 799 459 799 652 799 c 0,24,25
 736 799 736 799 819 762 c 1,26,-1
 770 578 l 1,27,-1
 725 578 l 1,28,-1
 728 589 l 2,29,30
 735 622 735 622 735 638 c 0,31,32
 735 737 735 737 599 737 c 0,33,34
 475 737 475 737 382.5 595 c 128,-1,35
 290 453 290 453 290 263 c 0,36,37
 290 62 290 62 446 62 c 0,38,39
 563 62 563 62 775 198 c 1,0,-1
EndSplineSet
EndChar

StartChar: icircumflex
Encoding: 238 238 95
Width: 468
Flags: W
LayerCount: 2
Fore
SplineSet
328 0 m 1,0,-1
 140 0 l 1,1,-1
 140 1117 l 1,2,-1
 328 1117 l 1,3,-1
 328 0 l 1,0,-1
521 1297 m 1,4,-1
 370 1297 l 1,5,-1
 231 1560 l 1,6,-1
 93 1297 l 1,7,-1
 -54 1297 l 1,8,-1
 120 1676 l 1,9,-1
 347 1676 l 1,10,-1
 521 1297 l 1,4,-1
EndSplineSet
EndChar

StartChar: idieresis
Encoding: 239 239 96
Width: 468
Flags: W
LayerCount: 2
Fore
SplineSet
328 0 m 1,0,-1
 140 0 l 1,1,-1
 140 1117 l 1,2,-1
 328 1117 l 1,3,-1
 328 0 l 1,0,-1
506 1304 m 1,4,-1
 317 1304 l 1,5,-1
 317 1499 l 1,6,-1
 506 1499 l 1,7,-1
 506 1304 l 1,4,-1
151 1304 m 1,8,-1
 -38 1304 l 1,9,-1
 -38 1499 l 1,10,-1
 151 1499 l 1,11,-1
 151 1304 l 1,8,-1
EndSplineSet
EndChar

StartChar: dagger
Encoding: 8224 8224 101
Width: 932
Flags: W
LayerCount: 2
Fore
SplineSet
347 -231 m 1,0,-1
 567 622 l 1,1,-1
 248 592 l 1,2,-1
 297 700 l 1,3,-1
 576 668 l 1,4,-1
 607 1066 l 1,5,-1
 755 1093 l 1,6,-1
 621 668 l 1,7,-1
 941 700 l 1,8,-1
 895 592 l 1,9,-1
 612 622 l 1,10,-1
 496 -213 l 1,11,-1
 347 -231 l 1,0,-1
EndSplineSet
EndChar

StartChar: degree
Encoding: 176 176 102
Width: 409
Flags: W
LayerCount: 2
Fore
SplineSet
395 844 m 0,0,1
 344 844 344 844 307.5 880 c 128,-1,2
 271 916 271 916 271 968 c 0,3,4
 271 1021 271 1021 307.5 1057 c 128,-1,5
 344 1093 344 1093 395 1093 c 0,6,7
 447 1093 447 1093 483 1057 c 128,-1,8
 519 1021 519 1021 519 968 c 0,9,10
 519 916 519 916 483 880 c 128,-1,11
 447 844 447 844 395 844 c 0,0,1
395 888 m 256,12,13
 427 888 427 888 450.5 912 c 128,-1,14
 474 936 474 936 474 968 c 256,15,16
 474 1000 474 1000 450.5 1024 c 128,-1,17
 427 1048 427 1048 395 1048 c 256,18,19
 363 1048 363 1048 339 1024 c 128,-1,20
 315 1000 315 1000 315 968 c 256,21,22
 315 936 315 936 339 912 c 128,-1,23
 363 888 363 888 395 888 c 256,12,13
EndSplineSet
EndChar

StartChar: cent
Encoding: 162 162 103
Width: 693
Flags: W
LayerCount: 2
Fore
SplineSet
365 -18 m 1,0,-1
 404 176 l 1,1,2
 142 195 142 195 142 355 c 0,3,4
 142 459 142 459 242 534.5 c 128,-1,5
 342 610 342 610 492 622 c 1,6,-1
 527 799 l 1,7,-1
 572 799 l 1,8,-1
 537 622 l 1,9,10
 637 617 637 617 715 601 c 1,11,-1
 689 471 l 1,12,-1
 644 471 l 1,13,14
 644 477 644 477 645 488 c 0,15,16
 648 509 648 509 648 517 c 0,17,18
 648 572 648 572 528 578 c 1,19,-1
 459 229 l 1,20,21
 567 229 567 229 661 280 c 1,22,-1
 650 229 l 1,23,24
 544 176 544 176 448 176 c 1,25,-1
 409 -18 l 1,26,-1
 365 -18 l 1,0,-1
415 232 m 1,27,-1
 484 578 l 1,28,29
 272 547 272 547 272 383 c 0,30,31
 272 255 272 255 415 232 c 1,27,-1
EndSplineSet
EndChar

StartChar: sterling
Encoding: 163 163 104
Width: 874
Flags: W
LayerCount: 2
Fore
SplineSet
17 0 m 1,0,-1
 109 88 l 1,1,-1
 122 88 l 2,2,3
 229 88 229 88 272.5 136.5 c 128,-1,4
 316 185 316 185 347 343 c 2,5,-1
 356 391 l 1,6,-1
 196 391 l 1,7,-1
 205 436 l 1,8,-1
 365 436 l 1,9,-1
 378 499 l 2,10,11
 407 642 407 642 496.5 721 c 128,-1,12
 586 800 586 800 718 800 c 0,13,14
 797 800 797 800 892 765 c 1,15,-1
 858 586 l 1,16,-1
 808 586 l 1,17,-1
 810 598 l 2,18,19
 812 608 812 608 812 620 c 0,20,21
 812 746 812 746 679 746 c 0,22,23
 614 746 614 746 584.5 710 c 128,-1,24
 555 674 555 674 535 569 c 2,25,-1
 508 436 l 1,26,-1
 748 436 l 1,27,-1
 739 391 l 1,28,-1
 499 391 l 1,29,-1
 492 359 l 2,30,31
 473 265 473 265 427.5 208 c 128,-1,32
 382 151 382 151 275 88 c 1,33,-1
 480 88 l 2,34,35
 617 88 617 88 679 102.5 c 128,-1,36
 741 117 741 117 819 167 c 1,37,-1
 808 113 l 1,38,39
 735 35 735 35 665.5 7.5 c 128,-1,40
 596 -20 596 -20 470 -20 c 1,41,-1
 442 -19 l 1,42,-1
 17 0 l 1,0,-1
EndSplineSet
EndChar

StartChar: section
Encoding: 167 167 105
Width: 932
Flags: W
LayerCount: 2
Fore
SplineSet
107 -153 m 1,0,-1
 232 -80 l 1,1,2
 348 -178 348 -178 481 -178 c 0,3,4
 564 -178 564 -178 621.5 -127.5 c 128,-1,5
 679 -77 679 -77 679 -5 c 0,6,7
 679 48 679 48 645.5 80.5 c 128,-1,8
 612 113 612 113 513 160 c 2,9,-1
 440 193 l 2,10,11
 247 283 247 283 247 409 c 0,12,13
 247 528 247 528 409 652 c 1,14,15
 328 717 328 717 328 815 c 0,16,17
 328 938 328 938 440 1015.5 c 128,-1,18
 552 1093 552 1093 727 1093 c 0,19,20
 814 1093 814 1093 933 1060 c 1,21,-1
 897 879 l 1,22,-1
 853 879 l 1,23,24
 857 904 857 904 857 916 c 0,25,26
 857 1039 857 1039 652 1039 c 0,27,28
 560 1039 560 1039 500.5 987 c 128,-1,29
 441 935 441 935 441 853 c 0,30,31
 441 798 441 798 466 774.5 c 128,-1,32
 491 751 491 751 613 686 c 2,33,-1
 674 652 l 2,34,35
 854 553 854 553 854 444 c 0,36,37
 854 319 854 319 703 200 c 1,38,39
 801 136 801 136 801 40 c 0,40,41
 801 -75 801 -75 684.5 -153 c 128,-1,42
 568 -231 568 -231 397 -231 c 0,43,44
 244 -231 244 -231 107 -153 c 1,0,-1
667 229 m 1,45,46
 747 319 747 319 747 394 c 0,47,48
 747 470 747 470 628 527 c 2,49,-1
 558 562 l 2,50,51
 495 593 495 593 445 625 c 1,52,53
 355 545 355 545 355 456 c 0,54,55
 355 382 355 382 474 326 c 2,56,-1
 571 279 l 2,57,58
 607 263 607 263 667 229 c 1,45,46
EndSplineSet
EndChar

StartChar: bullet
Encoding: 8226 8226 106
Width: 717
Flags: W
LayerCount: 2
Fore
SplineSet
629 510 m 0,0,1
 629 398 629 398 549.5 318.5 c 128,-1,2
 470 239 470 239 358 239 c 256,3,4
 246 239 246 239 167 318.5 c 128,-1,5
 88 398 88 398 88 510 c 0,6,7
 88 621 88 621 167 700.5 c 128,-1,8
 246 780 246 780 358 780 c 256,9,10
 470 780 470 780 549.5 700.5 c 128,-1,11
 629 621 629 621 629 510 c 0,0,1
EndSplineSet
EndChar

StartChar: paragraph
Encoding: 182 182 107
Width: 932
Flags: W
LayerCount: 2
Fore
SplineSet
365 -239 m 1,0,-1
 511 496 l 1,1,2
 241 542 241 542 241 747 c 0,3,4
 241 876 241 876 346.5 968 c 128,-1,5
 452 1060 452 1060 628 1085 c 1,6,-1
 660 1244 l 1,7,-1
 704 1244 l 1,8,-1
 673 1085 l 1,9,-1
 703 1086 l 2,10,11
 744 1086 744 1086 796 1080 c 1,12,-1
 828 1244 l 1,13,-1
 873 1244 l 1,14,-1
 839 1071 l 1,15,16
 891 1057 891 1057 948 1036 c 1,17,-1
 938 988 l 1,18,19
 898 1005 898 1005 830 1024 c 1,20,-1
 742 586 l 1,21,22
 794 603 794 603 869 643 c 1,23,-1
 859 586 l 1,24,25
 794 549 794 549 732 530 c 1,26,-1
 578 -239 l 1,27,-1
 534 -239 l 1,28,-1
 684 514 l 1,29,30
 597 496 597 496 556 496 c 1,31,-1
 409 -239 l 1,32,-1
 365 -239 l 1,0,-1
695 568 m 1,33,-1
 787 1031 l 1,34,35
 738 1040 738 1040 704 1040 c 0,36,37
 691 1040 691 1040 664 1039 c 1,38,-1
 567 553 l 1,39,40
 625 553 625 553 695 568 c 1,33,-1
EndSplineSet
EndChar

StartChar: registered
Encoding: 174 174 108
Width: 897
Flags: W
LayerCount: 2
Fore
SplineSet
580 445 m 0,0,1
 448 445 448 445 354.5 538.5 c 128,-1,2
 261 632 261 632 261 764 c 256,3,4
 261 896 261 896 354.5 990 c 128,-1,5
 448 1084 448 1084 580 1084 c 0,6,7
 714 1084 714 1084 807 990 c 128,-1,8
 900 896 900 896 900 764 c 256,9,10
 900 632 900 632 806.5 538.5 c 128,-1,11
 713 445 713 445 580 445 c 0,0,1
580 484 m 0,12,13
 695 484 695 484 777.5 567 c 128,-1,14
 860 650 860 650 860 764 c 256,15,16
 860 878 860 878 777.5 961 c 128,-1,17
 695 1044 695 1044 580 1044 c 0,18,19
 466 1044 466 1044 383.5 961 c 128,-1,20
 301 878 301 878 301 764 c 256,21,22
 301 650 301 650 383.5 567 c 128,-1,23
 466 484 466 484 580 484 c 0,12,13
529 737 m 1,24,-1
 501 596 l 1,25,-1
 394 596 l 1,26,-1
 403 639 l 1,27,-1
 456 639 l 1,28,-1
 511 915 l 1,29,-1
 458 915 l 1,30,-1
 466 959 l 1,31,-1
 598 959 l 2,32,33
 751 959 751 959 751 875 c 0,34,35
 751 800 751 800 650 750 c 1,36,-1
 685 639 l 1,37,-1
 747 639 l 1,38,-1
 738 596 l 1,39,-1
 641 596 l 1,40,-1
 591 737 l 1,41,-1
 529 737 l 1,24,-1
538 782 m 1,42,-1
 574 782 l 2,43,44
 697 782 697 782 697 866 c 0,45,46
 697 915 697 915 607 915 c 2,47,-1
 564 915 l 1,48,-1
 538 782 l 1,42,-1
EndSplineSet
EndChar

StartChar: copyright
Encoding: 169 169 109
Width: 1244
Flags: W
LayerCount: 2
Fore
SplineSet
725 -27 m 0,0,1
 495 -27 495 -27 330.5 137 c 128,-1,2
 166 301 166 301 166 533 c 256,3,4
 166 765 166 765 330.5 929 c 128,-1,5
 495 1093 495 1093 725 1093 c 0,6,7
 958 1093 958 1093 1122 929 c 128,-1,8
 1286 765 1286 765 1286 533 c 256,9,10
 1286 301 1286 301 1122 137 c 128,-1,11
 958 -27 958 -27 725 -27 c 0,0,1
725 18 m 0,12,13
 939 18 939 18 1090 169 c 128,-1,14
 1241 320 1241 320 1241 533 c 256,15,16
 1241 746 1241 746 1090 897 c 128,-1,17
 939 1048 939 1048 725 1048 c 0,18,19
 513 1048 513 1048 362 897 c 128,-1,20
 211 746 211 746 211 533 c 256,21,22
 211 320 211 320 362 169 c 128,-1,23
 513 18 513 18 725 18 c 0,12,13
890 246 m 1,24,25
 785 213 785 213 704 213 c 0,26,27
 580 213 580 213 508 279.5 c 128,-1,28
 436 346 436 346 436 462 c 0,29,30
 436 625 436 625 541 734.5 c 128,-1,31
 646 844 646 844 805 844 c 0,32,33
 896 844 896 844 1003 814 c 1,34,-1
 967 675 l 1,35,-1
 915 684 l 1,36,-1
 923 766 l 1,37,38
 854 798 854 798 792 798 c 0,39,40
 688 798 688 798 616 700 c 128,-1,41
 544 602 544 602 544 462 c 0,42,43
 544 271 544 271 722 271 c 0,44,45
 823 271 823 271 902 307 c 1,46,-1
 890 246 l 1,24,25
EndSplineSet
EndChar

StartChar: trademark
Encoding: 8482 8482 110
Width: 1333
Flags: W
LayerCount: 2
Fore
SplineSet
440 1021 m 1,0,-1
 307 1021 l 1,1,-1
 288 923 l 1,2,-1
 225 923 l 1,3,-1
 254 1066 l 1,4,-1
 751 1066 l 1,5,-1
 723 923 l 1,6,-1
 661 923 l 1,7,-1
 679 1021 l 1,8,-1
 546 1021 l 1,9,-1
 456 569 l 1,10,-1
 554 569 l 1,11,-1
 545 524 l 1,12,-1
 243 524 l 1,13,-1
 253 569 l 1,14,-1
 350 569 l 1,15,-1
 440 1021 l 1,0,-1
1011 569 m 1,16,-1
 942 956 l 1,17,-1
 857 524 l 1,18,-1
 688 524 l 1,19,-1
 697 569 l 1,20,-1
 794 569 l 1,21,-1
 884 1021 l 1,22,-1
 787 1021 l 1,23,-1
 796 1066 l 1,24,-1
 1036 1066 l 1,25,-1
 1092 747 l 1,26,-1
 1265 1066 l 1,27,-1
 1481 1066 l 1,28,-1
 1473 1021 l 1,29,-1
 1375 1021 l 1,30,-1
 1285 569 l 1,31,-1
 1383 569 l 1,32,-1
 1373 524 l 1,33,-1
 1178 524 l 1,34,-1
 1270 985 l 1,35,-1
 1041 569 l 1,36,-1
 1011 569 l 1,16,-1
EndSplineSet
EndChar

StartChar: acute
Encoding: 180 180 111
Width: 256
Flags: W
LayerCount: 2
Fore
SplineSet
118 999 m 1,0,1
 195 1083 195 1083 192 1046 c 1,2,3
 183 1014 183 1014 135.5 924 c 128,-1,4
 88 834 88 834 66 802 c 1,5,6
 55 796 55 796 62 848 c 1,7,8
 83 919 83 919 118 999 c 1,0,1
EndSplineSet
EndChar

StartChar: dieresis
Encoding: 168 168 112
Width: 862
Flags: W
LayerCount: 2
Fore
SplineSet
495 923 m 1,0,-1
 408 1033 l 1,1,-1
 520 1119 l 1,2,-1
 607 1003 l 1,3,-1
 495 923 l 1,0,-1
841 923 m 1,4,-1
 752 1035 l 1,5,-1
 866 1119 l 1,6,-1
 951 1004 l 1,7,-1
 841 923 l 1,4,-1
EndSplineSet
EndChar

StartChar: plusminus
Encoding: 177 177 113
Width: 932
Flags: W
LayerCount: 2
Fore
SplineSet
76 0 m 1,0,-1
 92 80 l 1,1,-1
 873 80 l 1,2,-1
 858 0 l 1,3,-1
 76 0 l 1,0,-1
469 213 m 1,4,-1
 525 493 l 1,5,-1
 174 493 l 1,6,-1
 189 573 l 1,7,-1
 541 573 l 1,8,-1
 596 852 l 1,9,-1
 676 852 l 1,10,-1
 621 573 l 1,11,-1
 971 573 l 1,12,-1
 956 493 l 1,13,-1
 605 493 l 1,14,-1
 549 213 l 1,15,-1
 469 213 l 1,4,-1
EndSplineSet
EndChar

StartChar: yen
Encoding: 165 165 114
Width: 965
Flags: W
LayerCount: 2
Fore
SplineSet
156 0 m 1,0,-1
 247 99 l 1,1,2
 269 97 269 97 279 97 c 0,3,4
 415 97 415 97 477 257 c 1,5,-1
 272 257 l 1,6,-1
 280 301 l 1,7,-1
 489 301 l 1,8,9
 495 346 495 346 499 409 c 1,10,-1
 301 409 l 1,11,-1
 310 453 l 1,12,-1
 499 453 l 1,13,14
 499 465 499 465 499 470 c 0,15,16
 499 567 499 567 463.5 631 c 128,-1,17
 428 695 428 695 375 695 c 256,18,19
 322 695 322 695 250 638 c 128,-1,20
 178 581 178 581 139 509 c 1,21,-1
 106 534 l 1,22,23
 172 650 172 650 268.5 724.5 c 128,-1,24
 365 799 365 799 452 799 c 0,25,26
 612 799 612 799 612 518 c 1,27,-1
 611 472 l 1,28,29
 736 799 736 799 971 799 c 0,30,31
 1045 799 1045 799 1100 765 c 1,32,-1
 1016 653 l 1,33,34
 967 684 967 684 915 684 c 0,35,36
 742 684 742 684 651 453 c 1,37,-1
 835 453 l 1,38,-1
 826 409 l 1,39,-1
 643 409 l 1,40,-1
 634 369 l 2,41,42
 627 335 627 335 609 301 c 1,43,-1
 805 301 l 1,44,-1
 796 257 l 1,45,-1
 585 257 l 1,46,47
 519 138 519 138 389 91 c 1,48,-1
 624 77 l 1,49,-1
 534 -18 l 1,50,-1
 156 0 l 1,0,-1
EndSplineSet
EndChar

StartChar: mu1
Encoding: 181 181 115
Width: 992
Flags: W
LayerCount: 2
Fore
SplineSet
100 -302 m 1,0,-1
 155 -76 l 1,1,-1
 270 500 l 2,2,3
 282 560 282 560 282 611 c 0,4,5
 282 693 282 693 206 782 c 1,6,-1
 368 790 l 1,7,8
 427 740 427 740 427 623 c 0,9,10
 427 576 427 576 409 481 c 2,11,-1
 355 213 l 2,12,13
 347 176 347 176 347 161 c 0,14,15
 347 106 347 106 391 106 c 0,16,17
 446 106 446 106 553.5 229 c 128,-1,18
 661 352 661 352 753 519 c 1,19,-1
 805 782 l 1,20,-1
 958 790 l 1,21,-1
 905 569 l 1,22,-1
 834 213 l 2,23,24
 818 132 818 132 818 106 c 0,25,26
 818 53 818 53 861 53 c 0,27,28
 931 53 931 53 1075 218 c 1,29,-1
 1062 151 l 1,30,31
 905 -18 905 -18 779 -18 c 0,32,33
 675 -18 675 -18 675 91 c 0,34,35
 675 128 675 128 692 213 c 2,36,-1
 727 391 l 1,37,-1
 717 391 l 1,38,39
 517 0 517 0 312 0 c 1,40,-1
 255 -284 l 1,41,-1
 100 -302 l 1,0,-1
EndSplineSet
EndChar

StartChar: logicalnot
Encoding: 172 172 116
Width: 932
Flags: W
LayerCount: 2
Fore
SplineSet
177 510 m 1,0,-1
 193 590 l 1,1,-1
 975 590 l 1,2,-1
 906 248 l 1,3,-1
 814 248 l 1,4,-1
 866 510 l 1,5,-1
 177 510 l 1,0,-1
EndSplineSet
EndChar

StartChar: florin
Encoding: 402 402 117
Width: 679
Flags: W
LayerCount: 2
Fore
SplineSet
158 -231 m 1,0,-1
 210 -18 l 1,1,-1
 286 364 l 1,2,-1
 108 364 l 1,3,-1
 117 409 l 1,4,-1
 294 409 l 1,5,-1
 298 427 l 2,6,7
 330 586 330 586 463 692.5 c 128,-1,8
 596 799 596 799 761 799 c 0,9,10
 818 799 818 799 860 784 c 1,11,-1
 764 678 l 1,12,13
 712 729 712 729 643 729 c 0,14,15
 500 729 500 729 457 512 c 2,16,-1
 436 409 l 1,17,-1
 623 409 l 1,18,-1
 614 364 l 1,19,-1
 427 364 l 1,20,-1
 313 -213 l 1,21,-1
 158 -231 l 1,0,-1
EndSplineSet
EndChar

StartChar: ellipsis
Encoding: 8230 8230 118
Width: 1474
Flags: W
LayerCount: 2
Fore
SplineSet
178 0 m 1,0,-1
 206 142 l 1,1,-1
 348 142 l 1,2,-1
 319 0 l 1,3,-1
 178 0 l 1,0,-1
667 0 m 1,4,-1
 695 142 l 1,5,-1
 837 142 l 1,6,-1
 808 0 l 1,7,-1
 667 0 l 1,4,-1
1155 0 m 1,8,-1
 1183 142 l 1,9,-1
 1326 142 l 1,10,-1
 1297 0 l 1,11,-1
 1155 0 l 1,8,-1
EndSplineSet
EndChar

StartChar: OE
Encoding: 338 338 119
Width: 1477
Flags: W
LayerCount: 2
Fore
SplineSet
816 0 m 1,0,-1
 831 70 l 1,1,2
 711 -27 711 -27 549 -27 c 0,3,4
 371 -27 371 -27 269 81 c 128,-1,5
 167 189 167 189 167 378 c 0,6,7
 167 661 167 661 358 877 c 128,-1,8
 549 1093 549 1093 799 1093 c 0,9,10
 931 1093 931 1093 1017 1007 c 1,11,-1
 1029 1066 l 1,12,-1
 1593 1066 l 1,13,-1
 1529 862 l 1,14,-1
 1484 862 l 1,15,16
 1490 891 1490 891 1490 913 c 0,17,18
 1490 969 1490 969 1424.5 990.5 c 128,-1,19
 1359 1012 1359 1012 1187 1012 c 2,20,-1
 1165 1012 l 1,21,-1
 1082 586 l 1,22,-1
 1402 586 l 1,23,-1
 1329 512 l 1,24,25
 1165 533 1165 533 1107 533 c 2,26,-1
 1071 533 l 1,27,-1
 1012 218 l 2,28,29
 1002 167 1002 167 1002 156 c 0,30,31
 1002 80 1002 80 1228 80 c 0,32,33
 1348 80 1348 80 1453 160 c 1,34,-1
 1442 103 l 1,35,36
 1318 -23 1318 -23 1203 -23 c 0,37,38
 1183 -23 1183 -23 1161 -21 c 2,39,-1
 816 0 l 1,0,-1
888 361 m 2,40,-1
 961 723 l 2,41,42
 974 786 974 786 974 841 c 0,43,44
 974 933 974 933 916.5 990.5 c 128,-1,45
 859 1048 859 1048 769 1048 c 0,46,47
 604 1048 604 1048 466.5 844 c 128,-1,48
 329 640 329 640 329 395 c 0,49,50
 329 218 329 218 396.5 117.5 c 128,-1,51
 464 17 464 17 585 17 c 0,52,53
 818 17 818 17 888 361 c 2,40,-1
EndSplineSet
EndChar

StartChar: oe
Encoding: 339 339 120
Width: 1350
Flags: W
LayerCount: 2
Fore
SplineSet
706 145 m 1,0,1
 535 -18 535 -18 370 -18 c 0,2,3
 273 -18 273 -18 209 55 c 128,-1,4
 145 128 145 128 145 237 c 0,5,6
 145 448 145 448 302.5 623.5 c 128,-1,7
 460 799 460 799 650 799 c 0,8,9
 794 799 794 799 859 630 c 1,10,11
 1025 799 1025 799 1183 799 c 0,12,13
 1246 799 1246 799 1286.5 758 c 128,-1,14
 1327 717 1327 717 1327 651 c 0,15,16
 1327 508 1327 508 1192.5 414 c 128,-1,17
 1058 320 1058 320 841 311 c 1,18,-1
 840 278 l 1,19,20
 840 66 840 66 998 66 c 0,21,22
 1113 66 1113 66 1327 200 c 1,23,-1
 1316 146 l 1,24,25
 1083 -18 1083 -18 917 -18 c 0,26,27
 758 -18 758 -18 706 145 c 1,0,1
431 35 m 0,28,29
 544 35 544 35 636 178.5 c 128,-1,30
 728 322 728 322 728 499 c 0,31,32
 728 607 728 607 689 672 c 128,-1,33
 650 737 650 737 584 737 c 0,34,35
 472 737 472 737 382 594 c 128,-1,36
 292 451 292 451 292 272 c 0,37,38
 292 35 292 35 431 35 c 0,28,29
844 355 m 1,39,40
 1004 368 1004 368 1097.5 438.5 c 128,-1,41
 1191 509 1191 509 1191 620 c 0,42,43
 1191 733 1191 733 1110 733 c 0,44,45
 1024 733 1024 733 941.5 616 c 128,-1,46
 859 499 859 499 844 355 c 1,39,40
EndSplineSet
EndChar

StartChar: endash
Encoding: 8211 8211 121
Width: 434
Flags: W
LayerCount: 2
Fore
SplineSet
434 154 m 1,0,-1
 0 154 l 1,1,-1
 0 234 l 1,2,-1
 434 234 l 1,3,-1
 434 154 l 1,0,-1
EndSplineSet
EndChar

StartChar: emdash
Encoding: 8212 8212 122
Width: 1862
Flags: W
LayerCount: 2
Fore
SplineSet
1866 572 m 1,0,-1
 -4 572 l 1,1,-1
 -4 732 l 1,2,-1
 1866 732 l 1,3,-1
 1866 572 l 1,0,-1
EndSplineSet
EndChar

StartChar: quotedblleft
Encoding: 8220 8220 123
Width: 510
Flags: W
LayerCount: 2
Fore
SplineSet
-34 1295 m 1,0,1
 -58 1272 -58 1272 -73 1244 c 128,-1,2
 -88 1216 -88 1216 -79 1177 c 0,3,4
 -74 1154 -74 1154 -62 1128 c 128,-1,5
 -50 1102 -50 1102 -44 1073 c 0,6,7
 -39 1050 -39 1050 -49 1032 c 128,-1,8
 -59 1014 -59 1014 -82 1014 c 0,9,10
 -118 1014 -118 1014 -136 1038.5 c 128,-1,11
 -154 1063 -154 1063 -162 1096 c 0,12,13
 -169 1130 -169 1130 -162 1162 c 128,-1,14
 -155 1194 -155 1194 -139 1222 c 128,-1,15
 -123 1250 -123 1250 -99.5 1272 c 128,-1,16
 -76 1294 -76 1294 -50 1309 c 1,17,-1
 -34 1295 l 1,0,1
182 1295 m 1,18,19
 159 1272 159 1272 145.5 1244 c 128,-1,20
 132 1216 132 1216 140 1177 c 0,21,22
 145 1154 145 1154 157 1128 c 128,-1,23
 169 1102 169 1102 175 1073 c 0,24,25
 180 1050 180 1050 170 1032 c 128,-1,26
 160 1014 160 1014 137 1014 c 0,27,28
 101 1014 101 1014 81.5 1038.5 c 128,-1,29
 62 1063 62 1063 55 1096 c 0,30,31
 47 1130 47 1130 54.5 1162.5 c 128,-1,32
 62 1195 62 1195 78.5 1223 c 128,-1,33
 95 1251 95 1251 119 1273 c 128,-1,34
 143 1295 143 1295 169 1309 c 1,35,-1
 182 1295 l 1,18,19
EndSplineSet
EndChar

StartChar: quotedblright
Encoding: 8221 8221 124
Width: 510
Flags: W
LayerCount: 2
Fore
SplineSet
55 1036 m 1,0,1
 79 1060 79 1060 94 1087 c 128,-1,2
 109 1114 109 1114 100 1153 c 0,3,4
 95 1176 95 1176 83 1201.5 c 128,-1,5
 71 1227 71 1227 64 1259 c 0,6,7
 59 1282 59 1282 69.5 1299.5 c 128,-1,8
 80 1317 80 1317 100 1317 c 0,9,10
 138 1317 138 1317 157 1293 c 128,-1,11
 176 1269 176 1269 184 1235 c 0,12,13
 191 1200 191 1200 183.5 1168 c 128,-1,14
 176 1136 176 1136 159 1108.5 c 128,-1,15
 142 1081 142 1081 118 1059 c 128,-1,16
 94 1037 94 1037 69 1023 c 1,17,-1
 55 1036 l 1,0,1
-163 1036 m 1,18,19
 -140 1060 -140 1060 -126 1087 c 128,-1,20
 -112 1114 -112 1114 -120 1153 c 0,21,22
 -125 1176 -125 1176 -136.5 1201.5 c 128,-1,23
 -148 1227 -148 1227 -155 1259 c 0,24,25
 -160 1282 -160 1282 -150 1299.5 c 128,-1,26
 -140 1317 -140 1317 -117 1317 c 0,27,28
 -79 1317 -79 1317 -61 1293 c 128,-1,29
 -43 1269 -43 1269 -35 1235 c 0,30,31
 -28 1200 -28 1200 -35 1168 c 128,-1,32
 -42 1136 -42 1136 -59 1108 c 128,-1,33
 -76 1080 -76 1080 -100 1058 c 128,-1,34
 -124 1036 -124 1036 -149 1023 c 1,35,-1
 -163 1036 l 1,18,19
EndSplineSet
EndChar

StartChar: divide
Encoding: 247 247 125
Width: 842
Flags: W
LayerCount: 2
Fore
SplineSet
370 519 m 1,0,-1
 248 519 l 1,1,-1
 219 658 l 1,2,-1
 340 658 l 1,3,-1
 370 519 l 1,0,-1
655 295 m 1,4,-1
 58 295 l 1,5,-1
 41 377 l 1,6,-1
 638 377 l 1,7,-1
 655 295 l 1,4,-1
477 13 m 1,8,-1
 356 13 l 1,9,-1
 326 152 l 1,10,-1
 447 152 l 1,11,-1
 477 13 l 1,8,-1
EndSplineSet
EndChar

StartChar: lozenge
Encoding: 9674 9674 126
Width: 1118
Flags: W
LayerCount: 2
Fore
SplineSet
854 699 m 1,0,-1
 518 197 l 1,1,-1
 -31 699 l 1,2,-1
 304 1202 l 1,3,-1
 854 699 l 1,0,-1
699 699 m 1,4,-1
 339 1036 l 1,5,-1
 122 699 l 1,6,-1
 482 364 l 1,7,-1
 699 699 l 1,4,-1
EndSplineSet
EndChar

StartChar: Euro
Encoding: 8364 8364 128
Width: 812
Flags: W
LayerCount: 2
Fore
SplineSet
210 464 m 1,0,1
 252 596 252 596 371.5 697.5 c 128,-1,2
 491 799 491 799 674 799 c 0,3,4
 773 799 773 799 885 769 c 1,5,-1
 845 624 l 1,6,-1
 795 624 l 1,7,8
 801 653 801 653 801 665 c 0,9,10
 801 701 801 701 757 726 c 128,-1,11
 713 751 713 751 649 751 c 0,12,13
 445 751 445 751 349 464 c 1,14,-1
 686 464 l 1,15,-1
 677 420 l 1,16,-1
 337 420 l 2,17,18
 335 418 335 418 332 404 c 2,19,-1
 325 365 l 1,20,-1
 325 360 l 1,21,-1
 665 360 l 1,22,-1
 656 315 l 1,23,-1
 319 315 l 1,24,-1
 319 289 l 2,25,26
 319 178 319 178 370 115.5 c 128,-1,27
 421 53 421 53 512 53 c 0,28,29
 636 53 636 53 765 135 c 1,30,-1
 755 72 l 1,31,32
 604 -18 604 -18 459 -18 c 0,33,34
 324 -18 324 -18 249.5 59 c 128,-1,35
 175 136 175 136 175 274 c 0,36,37
 175 300 175 300 175 315 c 1,38,-1
 111 315 l 1,39,-1
 120 360 l 1,40,-1
 182 360 l 1,41,-1
 182 364 l 1,42,43
 189 401 189 401 194 420 c 1,44,-1
 118 420 l 1,45,-1
 127 464 l 1,46,-1
 210 464 l 1,0,1
EndSplineSet
EndChar

StartChar: guilsinglleft
Encoding: 8249 8249 129
Width: 560
Flags: W
LayerCount: 2
Fore
SplineSet
375 71 m 1,0,1
 304 237 304 237 167 391 c 1,2,3
 358 507 358 507 437 653 c 1,4,-1
 587 711 l 1,5,6
 536 589 536 589 315 441 c 1,7,8
 423 310 423 310 499 138 c 1,9,-1
 375 71 l 1,0,1
EndSplineSet
EndChar

StartChar: guilsinglright
Encoding: 8250 8250 130
Width: 560
Flags: W
LayerCount: 2
Fore
SplineSet
339 711 m 1,0,1
 410 545 410 545 546 391 c 1,2,3
 356 275 356 275 276 128 c 1,4,-1
 128 71 l 1,5,6
 178 193 178 193 400 341 c 1,7,8
 293 470 293 470 215 643 c 1,9,-1
 339 711 l 1,0,1
EndSplineSet
EndChar

StartChar: daggerdbl
Encoding: 8225 8225 133
Width: 932
Flags: W
LayerCount: 2
Fore
SplineSet
349 -231 m 1,0,-1
 481 185 l 1,1,-1
 161 154 l 1,2,-1
 211 261 l 1,3,-1
 490 229 l 1,4,-1
 567 616 l 1,5,-1
 247 586 l 1,6,-1
 297 693 l 1,7,-1
 575 661 l 1,8,-1
 608 1066 l 1,9,-1
 758 1093 l 1,10,-1
 620 661 l 1,11,-1
 940 693 l 1,12,-1
 889 586 l 1,13,-1
 611 616 l 1,14,-1
 535 229 l 1,15,-1
 855 261 l 1,16,-1
 804 154 l 1,17,-1
 525 185 l 1,18,-1
 499 -213 l 1,19,-1
 349 -231 l 1,0,-1
EndSplineSet
EndChar

StartChar: middot.001
Encoding: 8729 8729 134
Width: 620
Flags: W
LayerCount: 2
Fore
SplineSet
429 516 m 1,0,-1
 190 516 l 1,1,-1
 190 789 l 1,2,-1
 429 789 l 1,3,-1
 429 516 l 1,0,-1
EndSplineSet
EndChar

StartChar: quotesinglbase
Encoding: 8218 8218 135
Width: 322
Flags: W
LayerCount: 2
Fore
SplineSet
79 99 m 1,0,-1
 190 178 l 1,1,-1
 272 69 l 1,2,3
 266 -43 266 -43 202.5 -103.5 c 128,-1,4
 139 -164 139 -164 28 -164 c 1,5,-1
 59 -129 l 1,6,7
 146 -122 146 -122 162 -14 c 1,8,-1
 79 99 l 1,0,-1
EndSplineSet
EndChar

StartChar: quotedblbase
Encoding: 8222 8222 136
Width: 684
Flags: W
LayerCount: 2
Fore
SplineSet
91 92 m 1,0,-1
 204 178 l 1,1,-1
 292 64 l 1,2,3
 270 -213 270 -213 31 -213 c 1,4,-1
 60 -168 l 1,5,6
 166 -148 166 -148 179 -16 c 1,7,-1
 91 92 l 1,0,-1
401 92 m 1,8,-1
 516 178 l 1,9,-1
 602 64 l 1,10,11
 581 -213 581 -213 341 -213 c 1,12,-1
 372 -168 l 1,13,14
 476 -148 476 -148 490 -16 c 1,15,-1
 401 92 l 1,8,-1
EndSplineSet
EndChar

StartChar: perthousand
Encoding: 8240 8240 137
Width: 1571
Flags: W
LayerCount: 2
Fore
SplineSet
385 533 m 0,0,1
 304 533 304 533 254.5 584.5 c 128,-1,2
 205 636 205 636 205 722 c 0,3,4
 205 865 205 865 286.5 965.5 c 128,-1,5
 368 1066 368 1066 483 1066 c 0,6,7
 567 1066 567 1066 617.5 1014.5 c 128,-1,8
 668 963 668 963 668 877 c 0,9,10
 668 733 668 733 585.5 633 c 128,-1,11
 503 533 503 533 385 533 c 0,0,1
311 715 m 0,12,13
 311 578 311 578 398 578 c 0,14,15
 463 578 463 578 517 671.5 c 128,-1,16
 571 765 571 765 571 881 c 0,17,18
 571 1022 571 1022 483 1022 c 0,19,20
 416 1022 416 1022 363.5 928 c 128,-1,21
 311 834 311 834 311 715 c 0,12,13
850 0 m 0,22,23
 769 0 769 0 719.5 51.5 c 128,-1,24
 670 103 670 103 670 189 c 0,25,26
 670 331 670 331 751 432 c 128,-1,27
 832 533 832 533 947 533 c 0,28,29
 1031 533 1031 533 1081.5 481.5 c 128,-1,30
 1132 430 1132 430 1132 344 c 0,31,32
 1132 200 1132 200 1049.5 100 c 128,-1,33
 967 0 967 0 850 0 c 0,22,23
776 182 m 0,34,35
 776 44 776 44 862 44 c 0,36,37
 929 44 929 44 982 138 c 128,-1,38
 1035 232 1035 232 1035 348 c 0,39,40
 1035 490 1035 490 948 490 c 0,41,42
 880 490 880 490 828 395.5 c 128,-1,43
 776 301 776 301 776 182 c 0,34,35
131 -27 m 1,44,-1
 1111 1093 l 1,45,-1
 1206 1093 l 1,46,-1
 225 -27 l 1,47,-1
 131 -27 l 1,44,-1
1376 0 m 0,48,49
 1294 0 1294 0 1244.5 51.5 c 128,-1,50
 1195 103 1195 103 1195 189 c 0,51,52
 1195 331 1195 331 1276.5 432 c 128,-1,53
 1358 533 1358 533 1473 533 c 0,54,55
 1557 533 1557 533 1607.5 481.5 c 128,-1,56
 1658 430 1658 430 1658 344 c 0,57,58
 1658 200 1658 200 1575.5 100 c 128,-1,59
 1493 0 1493 0 1376 0 c 0,48,49
1301 183 m 0,60,61
 1301 44 1301 44 1389 44 c 0,62,63
 1453 44 1453 44 1507 138 c 128,-1,64
 1561 232 1561 232 1561 347 c 0,65,66
 1561 490 1561 490 1473 490 c 0,67,68
 1406 490 1406 490 1353.5 395.5 c 128,-1,69
 1301 301 1301 301 1301 183 c 0,60,61
EndSplineSet
EndChar

StartChar: circumflex
Encoding: 710 710 139
Width: 862
Flags: W
LayerCount: 2
Fore
SplineSet
870 976 m 1,0,-1
 783 923 l 1,1,2
 729 984 729 984 693 1082 c 1,3,4
 652 1032 652 1032 574 953 c 0,5,6
 571 949 571 949 553 931 c 1,7,-1
 452 923 l 1,8,9
 607 1037 607 1037 674 1120 c 1,10,-1
 772 1182 l 1,11,12
 805 1069 805 1069 870 976 c 1,0,-1
EndSplineSet
EndChar

StartChar: cedilla
Encoding: 184 184 140
Width: 862
Flags: W
LayerCount: 2
Fore
SplineSet
456 0 m 1,0,-1
 414 -64 l 1,1,2
 485 -86 485 -86 485 -147 c 0,3,4
 485 -198 485 -198 428.5 -241 c 128,-1,5
 372 -284 372 -284 303 -284 c 0,6,7
 272 -284 272 -284 237 -277 c 1,8,-1
 292 -201 l 1,9,10
 326 -223 326 -223 352 -223 c 0,11,12
 416 -223 416 -223 416 -171 c 0,13,14
 416 -112 416 -112 318 -112 c 1,15,-1
 394 0 l 1,16,-1
 456 0 l 1,0,-1
EndSplineSet
EndChar

StartChar: brokenbar
Encoding: 166 166 141
Width: 355
Flags: W
LayerCount: 2
Fore
SplineSet
86 -213 m 1,0,-1
 203 373 l 1,1,-1
 301 373 l 1,2,-1
 184 -213 l 1,3,-1
 86 -213 l 1,0,-1
238 551 m 1,4,-1
 355 1137 l 1,5,-1
 453 1137 l 1,6,-1
 337 551 l 1,7,-1
 238 551 l 1,4,-1
EndSplineSet
EndChar

StartChar: minus
Encoding: 8722 8722 142
Width: 1490
Flags: W
LayerCount: 2
Fore
SplineSet
1308 572 m 1,0,-1
 182 572 l 1,1,-1
 182 732 l 1,2,-1
 1308 732 l 1,3,-1
 1308 572 l 1,0,-1
EndSplineSet
EndChar

StartChar: multiply
Encoding: 215 215 143
Width: 668
Flags: W
LayerCount: 2
Fore
SplineSet
373 731 m 1,0,-1
 461 659 l 1,1,-1
 326 487 l 1,2,-1
 534 315 l 1,3,-1
 477 243 l 1,4,-1
 269 414 l 1,5,-1
 133 243 l 1,6,-1
 45 315 l 1,7,-1
 181 487 l 1,8,-1
 -27 659 l 1,9,-1
 29 731 l 1,10,-1
 239 560 l 1,11,-1
 373 731 l 1,0,-1
EndSplineSet
EndChar

StartChar: onesuperior
Encoding: 185 185 144
Width: 596
Flags: W
LayerCount: 2
Fore
SplineSet
573 1093 m 1,0,-1
 487 657 l 2,1,2
 476 607 476 607 476 589 c 0,3,4
 476 570 476 570 532 563 c 1,5,-1
 591 560 l 1,6,-1
 582 516 l 1,7,-1
 210 516 l 1,8,-1
 218 560 l 1,9,-1
 279 563 l 2,10,11
 328 567 328 567 337.5 578 c 128,-1,12
 347 589 347 589 362 657 c 2,13,-1
 418 938 l 2,14,15
 423 960 423 960 423 978 c 0,16,17
 423 1004 423 1004 355 1013 c 2,18,-1
 310 1021 l 1,19,-1
 319 1066 l 1,20,-1
 573 1093 l 1,0,-1
EndSplineSet
EndChar

StartChar: twosuperior
Encoding: 178 178 145
Width: 596
Flags: W
LayerCount: 2
Fore
SplineSet
187 516 m 1,0,-1
 207 617 l 1,1,2
 362 712 362 712 454.5 803.5 c 128,-1,3
 547 895 547 895 547 952 c 0,4,5
 547 1046 547 1046 463 1046 c 0,6,7
 352 1046 352 1046 331 928 c 1,8,-1
 278 928 l 1,9,-1
 304 1059 l 1,10,11
 400 1093 400 1093 484 1093 c 0,12,13
 674 1093 674 1093 674 959 c 0,14,15
 674 887 674 887 624.5 842 c 128,-1,16
 575 797 575 797 297 617 c 1,17,-1
 607 617 l 1,18,-1
 587 516 l 1,19,-1
 187 516 l 1,0,-1
EndSplineSet
EndChar

StartChar: threesuperior
Encoding: 179 179 146
Width: 596
Flags: W
LayerCount: 2
Fore
SplineSet
185 545 m 1,0,-1
 257 620 l 1,1,2
 337 556 337 556 418 556 c 0,3,4
 460 556 460 556 490.5 587 c 128,-1,5
 521 618 521 618 521 661 c 0,6,7
 521 776 521 776 345 776 c 0,8,9
 323 776 323 776 301 773 c 1,10,-1
 331 859 l 1,11,12
 350 860 350 860 365 860 c 0,13,14
 412 860 412 860 466 849 c 1,15,16
 547 886 547 886 547 961 c 0,17,18
 547 1046 547 1046 454 1046 c 0,19,20
 365 1046 365 1046 342 941 c 1,21,-1
 289 941 l 1,22,-1
 311 1057 l 1,23,24
 398 1093 398 1093 484 1093 c 0,25,26
 662 1093 662 1093 662 984 c 0,27,28
 662 893 662 893 520 829 c 1,29,30
 625 790 625 790 625 693 c 0,31,32
 625 616 625 616 554.5 563 c 128,-1,33
 484 510 484 510 378 510 c 0,34,35
 289 510 289 510 185 545 c 1,0,-1
EndSplineSet
EndChar

StartChar: onehalf
Encoding: 189 189 147
Width: 1262
Flags: W
LayerCount: 2
Fore
SplineSet
528 1093 m 1,0,-1
 442 657 l 2,1,2
 432 606 432 606 432 589 c 0,3,4
 432 570 432 570 488 563 c 1,5,-1
 547 560 l 1,6,-1
 538 516 l 1,7,-1
 165 516 l 1,8,-1
 174 560 l 1,9,-1
 235 563 l 2,10,11
 283 567 283 567 293 578 c 128,-1,12
 303 589 303 589 318 657 c 2,13,-1
 373 938 l 2,14,15
 378 960 378 960 378 978 c 0,16,17
 378 1004 378 1004 310 1013 c 2,18,-1
 265 1021 l 1,19,-1
 274 1066 l 1,20,-1
 528 1093 l 1,0,-1
160 -27 m 1,21,-1
 1180 1093 l 1,22,-1
 1280 1093 l 1,23,-1
 257 -27 l 1,24,-1
 160 -27 l 1,21,-1
778 0 m 1,25,-1
 797 103 l 1,26,27
 952 197 952 197 1045 288 c 128,-1,28
 1138 379 1138 379 1138 436 c 0,29,30
 1138 530 1138 530 1053 530 c 0,31,32
 942 530 942 530 922 413 c 1,33,-1
 868 413 l 1,34,-1
 895 544 l 1,35,36
 989 578 989 578 1075 578 c 0,37,38
 1264 578 1264 578 1264 445 c 0,39,40
 1264 373 1264 373 1214.5 328 c 128,-1,41
 1165 283 1165 283 887 103 c 1,42,-1
 1197 103 l 1,43,-1
 1177 0 l 1,44,-1
 778 0 l 1,25,-1
EndSplineSet
EndChar

StartChar: onequarter
Encoding: 188 188 148
Width: 1262
Flags: W
LayerCount: 2
Fore
SplineSet
546 1093 m 1,0,-1
 460 657 l 2,1,2
 450 606 450 606 450 589 c 0,3,4
 450 570 450 570 506 563 c 1,5,-1
 565 560 l 1,6,-1
 556 516 l 1,7,-1
 183 516 l 1,8,-1
 192 560 l 1,9,-1
 253 563 l 2,10,11
 301 567 301 567 311 578 c 128,-1,12
 321 589 321 589 336 657 c 2,13,-1
 391 938 l 2,14,15
 396 960 396 960 396 978 c 0,16,17
 396 1004 396 1004 328 1013 c 2,18,-1
 283 1021 l 1,19,-1
 292 1066 l 1,20,-1
 546 1093 l 1,0,-1
178 -27 m 1,21,-1
 1198 1093 l 1,22,-1
 1298 1093 l 1,23,-1
 275 -27 l 1,24,-1
 178 -27 l 1,21,-1
981 164 m 1,25,-1
 732 182 l 1,26,-1
 747 261 l 1,27,-1
 1102 578 l 1,28,-1
 1170 578 l 1,29,-1
 1102 236 l 1,30,-1
 1212 229 l 1,31,-1
 1168 149 l 1,32,-1
 1086 157 l 1,33,34
 1076 102 1076 102 1076 74 c 0,35,36
 1076 52 1076 52 1129 49 c 2,37,-1
 1189 45 l 1,38,-1
 1180 0 l 1,39,-1
 820 0 l 1,40,-1
 829 45 l 1,41,-1
 886 49 l 2,42,43
 937 52 937 52 952 64 c 128,-1,44
 967 76 967 76 973 117 c 0,45,46
 976 134 976 134 981 164 c 1,25,-1
997 244 m 1,47,-1
 1038 446 l 1,48,-1
 823 255 l 1,49,-1
 997 244 l 1,47,-1
EndSplineSet
EndChar

StartChar: threequarters
Encoding: 190 190 149
Width: 1262
Flags: W
LayerCount: 2
Fore
SplineSet
174 545 m 1,0,-1
 247 620 l 1,1,2
 326 556 326 556 407 556 c 0,3,4
 448 556 448 556 478.5 587 c 128,-1,5
 509 618 509 618 509 661 c 0,6,7
 509 776 509 776 333 776 c 0,8,9
 311 776 311 776 289 773 c 1,10,-1
 319 859 l 1,11,12
 338 860 338 860 355 860 c 0,13,14
 401 860 401 860 455 849 c 1,15,16
 535 886 535 886 535 961 c 0,17,18
 535 1046 535 1046 442 1046 c 0,19,20
 354 1046 354 1046 330 941 c 1,21,-1
 277 941 l 1,22,-1
 301 1057 l 1,23,24
 387 1093 387 1093 472 1093 c 0,25,26
 651 1093 651 1093 651 984 c 0,27,28
 651 893 651 893 508 829 c 1,29,30
 614 790 614 790 614 693 c 0,31,32
 614 616 614 616 543 563 c 128,-1,33
 472 510 472 510 366 510 c 0,34,35
 277 510 277 510 174 545 c 1,0,-1
178 -27 m 1,36,-1
 1198 1093 l 1,37,-1
 1298 1093 l 1,38,-1
 275 -27 l 1,39,-1
 178 -27 l 1,36,-1
981 164 m 1,40,-1
 732 182 l 1,41,-1
 747 261 l 1,42,-1
 1102 578 l 1,43,-1
 1170 578 l 1,44,-1
 1102 236 l 1,45,-1
 1212 229 l 1,46,-1
 1168 149 l 1,47,-1
 1086 157 l 1,48,49
 1076 102 1076 102 1076 74 c 0,50,51
 1076 52 1076 52 1129 49 c 2,52,-1
 1189 45 l 1,53,-1
 1180 0 l 1,54,-1
 820 0 l 1,55,-1
 829 45 l 1,56,-1
 886 49 l 2,57,58
 938 52 938 52 952.5 64 c 128,-1,59
 967 76 967 76 973 117 c 0,60,61
 976 134 976 134 981 164 c 1,40,-1
997 244 m 1,62,-1
 1038 446 l 1,63,-1
 823 255 l 1,64,-1
 997 244 l 1,62,-1
EndSplineSet
EndChar

StartChar: macron
Encoding: 175 175 150
Width: 1118
Flags: W
LayerCount: 2
Fore
SplineSet
1134 1659 m 1,0,-1
 -16 1659 l 1,1,-1
 -16 1789 l 1,2,-1
 1134 1789 l 1,3,-1
 1134 1659 l 1,0,-1
EndSplineSet
EndChar

StartChar: periodcentered
Encoding: 183 183 151
Width: 724
Flags: W
LayerCount: 2
Fore
SplineSet
482 832 m 1,0,-1
 243 832 l 1,1,-1
 243 1117 l 1,2,-1
 482 1117 l 1,3,-1
 482 832 l 1,0,-1
EndSplineSet
EndChar

StartChar: H22073
Encoding: 9633 9633 152
Width: 1237
Flags: W
LayerCount: 2
Fore
SplineSet
146 944 m 1,0,-1
 1090 944 l 1,1,-1
 1090 0 l 1,2,-1
 146 0 l 1,3,-1
 146 944 l 1,0,-1
222 868 m 1,4,-1
 222 76 l 1,5,-1
 1014 76 l 1,6,-1
 1014 868 l 1,7,-1
 222 868 l 1,4,-1
EndSplineSet
EndChar

StartChar: H18543
Encoding: 9642 9642 153
Width: 1089
Flags: W
LayerCount: 2
Fore
SplineSet
674 994 m 1,0,-1
 822 300 l 1,1,-1
 128 300 l 1,2,-1
 -19 994 l 1,3,-1
 674 994 l 1,0,-1
EndSplineSet
EndChar

StartChar: H18551
Encoding: 9643 9643 154
Width: 1089
Flags: W
LayerCount: 2
Fore
SplineSet
676 996 m 1,0,-1
 824 301 l 1,1,-1
 129 301 l 1,2,-1
 -18 996 l 1,3,-1
 676 996 l 1,0,-1
586 882 m 1,4,-1
 119 882 l 1,5,-1
 218 415 l 1,6,-1
 685 415 l 1,7,-1
 586 882 l 1,4,-1
EndSplineSet
EndChar

StartChar: H18533
Encoding: 9679 9679 155
Width: 1339
Flags: W
LayerCount: 2
Fore
SplineSet
51 719 m 0,0,1
 8 920 8 920 119 1061 c 128,-1,2
 230 1202 230 1202 429 1202 c 0,3,4
 629 1202 629 1202 800 1061 c 128,-1,5
 971 920 971 920 1014 719 c 0,6,7
 1056 521 1056 521 945 380 c 128,-1,8
 834 239 834 239 634 239 c 0,9,10
 435 239 435 239 264 380 c 128,-1,11
 93 521 93 521 51 719 c 0,0,1
EndSplineSet
EndChar

StartChar: openbullet
Encoding: 9702 9702 156
Width: 1089
Flags: W
LayerCount: 2
Fore
SplineSet
295 1171 m 0,0,1
 451 1171 451 1171 585 1060.5 c 128,-1,2
 719 950 719 950 752 794 c 256,3,4
 785 638 785 638 698 528 c 128,-1,5
 611 418 611 418 455 418 c 256,6,7
 299 418 299 418 165.5 528 c 128,-1,8
 32 638 32 638 0 794 c 0,9,10
 -33 950 -33 950 52.5 1060.5 c 128,-1,11
 138 1171 138 1171 295 1171 c 0,0,1
319 1057 m 0,12,13
 210 1057 210 1057 150 979.5 c 128,-1,14
 90 902 90 902 113 794 c 0,15,16
 136 685 136 685 229 608.5 c 128,-1,17
 322 532 322 532 430 532 c 256,18,19
 538 532 538 532 599.5 608.5 c 128,-1,20
 661 685 661 685 638 794 c 0,21,22
 615 902 615 902 522 979.5 c 128,-1,23
 429 1057 429 1057 319 1057 c 0,12,13
EndSplineSet
EndChar

StartChar: currency
Encoding: 164 164 157
Width: 932
Flags: W
LayerCount: 2
Fore
SplineSet
769 322 m 1,0,-1
 879 184 l 1,1,-1
 841 153 l 1,2,-1
 732 292 l 1,3,4
 616 214 616 214 504 214 c 0,5,6
 394 214 394 214 310 292 c 1,7,-1
 145 153 l 1,8,-1
 120 184 l 1,9,-1
 286 322 l 1,10,11
 243 397 243 397 243 470 c 0,12,13
 243 613 243 613 369 743 c 1,14,-1
 259 882 l 1,15,-1
 297 913 l 1,16,-1
 407 775 l 1,17,18
 521 852 521 852 634 852 c 0,19,20
 744 852 744 852 828 775 c 1,21,-1
 994 913 l 1,22,-1
 1019 882 l 1,23,-1
 852 743 l 1,24,25
 895 668 895 668 895 596 c 0,26,27
 895 455 895 455 769 322 c 1,0,-1
818 579 m 0,28,29
 818 666 818 666 762 721.5 c 128,-1,30
 706 777 706 777 620 777 c 0,31,32
 502 777 502 777 411 688 c 128,-1,33
 320 599 320 599 320 485 c 0,34,35
 320 400 320 400 376.5 344.5 c 128,-1,36
 433 289 433 289 519 289 c 0,37,38
 635 289 635 289 726.5 377.5 c 128,-1,39
 818 466 818 466 818 579 c 0,28,29
EndSplineSet
EndChar

StartChar: uniFFFC
Encoding: 65532 65532 158
Width: 2048
Flags: W
LayerCount: 2
Fore
SplineSet
2048 1150 m 1,0,-1
 1948 1150 l 1,1,-1
 1948 1373 l 1,2,-1
 1725 1373 l 1,3,-1
 1725 1473 l 1,4,-1
 2048 1473 l 1,5,-1
 2048 1150 l 1,0,-1
1473 1373 m 1,6,-1
 1150 1373 l 1,7,-1
 1150 1473 l 1,8,-1
 1473 1473 l 1,9,-1
 1473 1373 l 1,6,-1
2048 575 m 1,10,-1
 1948 575 l 1,11,-1
 1948 898 l 1,12,-1
 2048 898 l 1,13,-1
 2048 575 l 1,10,-1
1782 611 m 2,14,15
 1782 370 1782 370 1571 370 c 0,16,17
 1485 370 1485 370 1433 415 c 1,18,-1
 1506 494 l 1,19,20
 1531 468 1531 468 1571 468 c 0,21,22
 1666 468 1666 468 1666 606 c 2,23,-1
 1666 1090 l 1,24,-1
 1782 1090 l 1,25,-1
 1782 611 l 2,14,15
898 1373 m 1,26,-1
 575 1373 l 1,27,-1
 575 1473 l 1,28,-1
 898 1473 l 1,29,-1
 898 1373 l 1,26,-1
2048 0 m 1,30,-1
 1725 0 l 1,31,-1
 1725 100 l 1,32,-1
 1948 100 l 1,33,-1
 1948 323 l 1,34,-1
 2048 323 l 1,35,-1
 2048 0 l 1,30,-1
1423 591 m 0,36,37
 1423 382 1423 382 1149 382 c 2,38,-1
 909 382 l 1,39,-1
 909 1090 l 1,40,-1
 1144 1090 l 2,41,42
 1393 1090 1393 1090 1393 904 c 0,43,44
 1393 813 1393 813 1304 759 c 1,45,46
 1423 713 1423 713 1423 591 c 0,36,37
323 1373 m 1,47,-1
 100 1373 l 1,48,-1
 100 1150 l 1,49,-1
 0 1150 l 1,50,-1
 0 1473 l 1,51,-1
 323 1473 l 1,52,-1
 323 1373 l 1,47,-1
1473 0 m 1,53,-1
 1150 0 l 1,54,-1
 1150 100 l 1,55,-1
 1473 100 l 1,56,-1
 1473 0 l 1,53,-1
854 735 m 0,57,58
 854 562 854 562 772 466 c 128,-1,59
 690 370 690 370 537 370 c 256,60,61
 384 370 384 370 303.5 466 c 128,-1,62
 223 562 223 562 223 735 c 0,63,64
 223 910 223 910 303.5 1006 c 128,-1,65
 384 1102 384 1102 537 1102 c 256,66,67
 690 1102 690 1102 772 1006 c 128,-1,68
 854 910 854 910 854 735 c 0,57,58
100 575 m 1,69,-1
 0 575 l 1,70,-1
 0 898 l 1,71,-1
 100 898 l 1,72,-1
 100 575 l 1,69,-1
898 0 m 1,73,-1
 575 0 l 1,74,-1
 575 100 l 1,75,-1
 898 100 l 1,76,-1
 898 0 l 1,73,-1
323 0 m 1,77,-1
 0 0 l 1,78,-1
 0 323 l 1,79,-1
 100 323 l 1,80,-1
 100 100 l 1,81,-1
 323 100 l 1,82,-1
 323 0 l 1,77,-1
1277 893 m 0,83,84
 1277 992 1277 992 1114 992 c 2,85,-1
 1025 992 l 1,86,-1
 1025 798 l 1,87,-1
 1126 798 l 2,88,89
 1277 798 1277 798 1277 893 c 0,83,84
1307 591 m 0,90,91
 1307 700 1307 700 1136 700 c 2,92,-1
 1025 700 l 1,93,-1
 1025 480 l 1,94,-1
 1149 480 l 2,95,96
 1307 480 1307 480 1307 591 c 0,90,91
738 735 m 0,97,98
 738 1004 738 1004 537 1004 c 0,99,100
 339 1004 339 1004 339 735 c 0,101,102
 339 468 339 468 537 468 c 0,103,104
 738 468 738 468 738 735 c 0,97,98
EndSplineSet
EndChar

StartChar: dotbelowcomb
Encoding: 65538 -1 160
Width: 0
Flags: W
LayerCount: 2
Fore
SplineSet
513 -294 m 1,0,-1
 348 -294 l 1,1,-1
 348 -144 l 1,2,-1
 513 -144 l 1,3,-1
 513 -294 l 1,0,-1
EndSplineSet
EndChar

StartChar: zerowidthnonjoiner
Encoding: 8204 8204 175
Width: 0
GlyphClass: 2
Flags: W
LayerCount: 2
Fore
SplineSet
36 1289 m 1,0,-1
 36 -275 l 1,1,-1
 -36 -275 l 1,2,-1
 -36 1289 l 1,3,-1
 36 1289 l 1,0,-1
EndSplineSet
EndChar

StartChar: zerowidthjoiner
Encoding: 8205 8205 176
Width: 0
GlyphClass: 2
Flags: W
LayerCount: 2
Fore
SplineSet
36 -275 m 1,0,-1
 -36 -275 l 1,1,-1
 -36 1114 l 1,2,-1
 -170 978 l 1,3,-1
 -219 1027 l 1,4,-1
 -48 1196 l 1,5,-1
 -219 1364 l 1,6,-1
 -170 1413 l 1,7,-1
 0 1242 l 1,8,-1
 170 1413 l 1,9,-1
 219 1364 l 1,10,-1
 48 1196 l 1,11,-1
 219 1027 l 1,12,-1
 170 978 l 1,13,-1
 36 1114 l 1,14,-1
 36 -275 l 1,0,-1
EndSplineSet
EndChar

StartChar: lefttorightmark
Encoding: 8206 8206 177
Width: 0
GlyphClass: 2
Flags: W
LayerCount: 2
Fore
SplineSet
430 1198 m 1,0,-1
 213 984 l 1,1,-1
 164 1033 l 1,2,-1
 301 1163 l 1,3,-1
 35 1163 l 1,4,-1
 35 -275 l 1,5,-1
 -36 -275 l 1,6,-1
 -36 1234 l 1,7,-1
 301 1234 l 1,8,-1
 164 1364 l 1,9,-1
 213 1413 l 1,10,-1
 430 1198 l 1,0,-1
EndSplineSet
EndChar

StartChar: righttoleftmark
Encoding: 8207 8207 178
Width: 0
GlyphClass: 2
Flags: W
LayerCount: 2
Fore
SplineSet
35 -275 m 1,0,-1
 -36 -275 l 1,1,-1
 -36 1163 l 1,2,-1
 -302 1163 l 1,3,-1
 -165 1033 l 1,4,-1
 -214 984 l 1,5,-1
 -431 1198 l 1,6,-1
 -214 1413 l 1,7,-1
 -165 1364 l 1,8,-1
 -302 1234 l 1,9,-1
 35 1234 l 1,10,-1
 35 -275 l 1,0,-1
EndSplineSet
EndChar

StartChar: afii57388.001
Encoding: 1644 1644 179
Width: 272
GlyphClass: 2
Flags: W
LayerCount: 2
Fore
SplineSet
162 504 m 0,0,1
 153 482 153 482 142 464 c 0,2,3
 138 459 138 459 133 456.5 c 128,-1,4
 128 454 128 454 124.5 454 c 128,-1,5
 121 454 121 454 119 456.5 c 128,-1,6
 117 459 117 459 119 464 c 0,7,8
 144 508 144 508 156 549 c 128,-1,9
 168 590 168 590 168 616 c 1,10,11
 150 620 150 620 138 628.5 c 128,-1,12
 126 637 126 637 119.5 645.5 c 128,-1,13
 113 654 113 654 110.5 661.5 c 128,-1,14
 108 669 108 669 108 673 c 0,15,16
 108 685 108 685 112 698 c 128,-1,17
 116 711 116 711 123.5 721.5 c 128,-1,18
 131 732 131 732 141.5 738.5 c 128,-1,19
 152 745 152 745 164 745 c 0,20,21
 209 745 209 745 209 673 c 0,22,23
 209 661 209 661 206 642.5 c 128,-1,24
 203 624 203 624 197 601.5 c 128,-1,25
 191 579 191 579 182 554 c 128,-1,26
 173 529 173 529 162 504 c 0,0,1
EndSplineSet
EndChar

StartChar: afii57409
Encoding: 1569 1569 180
Width: 517
GlyphClass: 2
Flags: W
AnchorPoint: "Anchor-3" 270 -390 basechar 0
AnchorPoint: "Anchor-2" 165 525 basechar 0
LayerCount: 2
Fore
SplineSet
97 46 m 1,0,1
 152 81 152 81 182 97 c 1,2,3
 111 155 111 155 99 207 c 0,4,5
 90 253 90 253 128 316 c 128,-1,6
 166 379 166 379 213 379 c 0,7,8
 233 379 233 379 263 361 c 128,-1,9
 293 343 293 343 298 320 c 0,10,11
 302 304 302 304 290 273 c 1,12,-1
 282 265 l 1,13,14
 236 295 236 295 201 295 c 0,15,16
 171 295 171 295 165 243 c 1,17,18
 171 216 171 216 225 175 c 128,-1,19
 279 134 279 134 308 134 c 0,20,21
 316 134 316 134 414 157 c 2,22,-1
 424 159 l 1,23,-1
 440 83 l 2,24,25
 440 75 440 75 437 69 c 1,26,-1
 114 3 l 1,27,-1
 105 11 l 1,28,-1
 96 32 l 1,29,-1
 97 46 l 1,0,1
EndSplineSet
EndChar

StartChar: afii57440
Encoding: 1600 1600 181
Width: 407
GlyphClass: 2
Flags: W
LayerCount: 2
Fore
SplineSet
-51 150 m 1,0,-1
 388 150 l 1,1,-1
 420 0 l 1,2,-1
 -19 0 l 1,3,-1
 -51 150 l 1,0,-1
EndSplineSet
EndChar

StartChar: afii57453
Encoding: 1613 1613 182
Width: 0
GlyphClass: 4
Flags: W
AnchorPoint: "Anchor-3" 0 0 mark 0
AnchorPoint: "Anchor-1" 0 0 mark 0
LayerCount: 2
Fore
SplineSet
123 139 m 1,0,-1
 -162 -2 l 1,1,-1
 -162 65 l 1,2,-1
 125 207 l 1,3,-1
 123 139 l 1,0,-1
146 31 m 1,4,-1
 -139 -111 l 1,5,-1
 -139 -43 l 1,6,-1
 148 99 l 1,7,-1
 146 31 l 1,4,-1
EndSplineSet
EndChar

StartChar: afii57455.001
Encoding: 65539 -1 183
Width: 390
GlyphClass: 4
Flags: W
LayerCount: 2
Fore
SplineSet
162 1057 m 1,0,-1
 174 959 l 1,1,-1
 130 981 l 1,2,-1
 86 1009 l 1,3,4
 40 943 40 943 5 907 c 0,5,6
 -40 865 -40 865 -84 865 c 0,7,8
 -98 865 -98 865 -121 869 c 2,9,-1
 -149 877 l 1,10,11
 -92 913 -92 913 -57 943 c 0,12,13
 -32 966 -32 966 35 1035 c 1,14,15
 -6 1062 -6 1062 -23.5 1081.5 c 128,-1,16
 -41 1101 -41 1101 -47 1128 c 0,17,18
 -56 1173 -56 1173 -34 1238 c 0,19,20
 -22 1268 -22 1268 -3.5 1281.5 c 128,-1,21
 15 1295 15 1295 33 1295 c 0,22,23
 102 1295 102 1295 121 1207 c 0,24,25
 126 1185 126 1185 124.5 1158 c 128,-1,26
 123 1131 123 1131 113 1089 c 1,27,-1
 162 1057 l 1,0,-1
69 1150 m 0,28,29
 65 1172 65 1172 46 1191 c 128,-1,30
 27 1210 27 1210 6 1210 c 0,31,32
 0 1210 0 1210 -3 1205 c 0,33,34
 -8 1199 -8 1199 -11 1193 c 1,35,36
 -6 1172 -6 1172 9.5 1157.5 c 128,-1,37
 25 1143 25 1143 72 1112 c 1,38,39
 72 1136 72 1136 69 1150 c 0,28,29
EndSplineSet
EndChar

StartChar: afii57458.001
Encoding: 65540 -1 184
Width: 0
GlyphClass: 4
Flags: W
LayerCount: 2
Fore
SplineSet
-69 864 m 0,0,1
 -34 701 -34 701 -165 701 c 0,2,3
 -280 701 -280 701 -305 822 c 0,4,5
 -317 879 -317 879 -301 957 c 0,6,7
 -283 1044 -283 1044 -238 1044 c 0,8,9
 -208 1044 -208 1044 -182 1028.5 c 128,-1,10
 -156 1013 -156 1013 -129 989 c 1,11,12
 -82 924 -82 924 -69 864 c 0,0,1
-109 845 m 0,13,14
 -116 879 -116 879 -154 901.5 c 128,-1,15
 -192 924 -192 924 -225 924 c 0,16,17
 -252 924 -252 924 -262.5 897 c 128,-1,18
 -273 870 -273 870 -268 845 c 0,19,20
 -257 796 -257 796 -185 796 c 2,21,-1
 -176 796 l 2,22,23
 -98 796 -98 796 -109 845 c 0,13,14
EndSplineSet
EndChar

StartChar: afii57381
Encoding: 1642 1642 185
Width: 788
GlyphClass: 2
Flags: W
LayerCount: 2
Fore
SplineSet
191 -102 m 1,0,-1
 383 1028 l 1,1,-1
 454 1002 l 1,2,-1
 263 -128 l 1,3,-1
 191 -102 l 1,0,-1
714 40 m 0,4,5
 721 8 721 8 703 -14.5 c 128,-1,6
 685 -37 685 -37 654 -37 c 0,7,8
 621 -37 621 -37 593.5 -14.5 c 128,-1,9
 566 8 566 8 559 41 c 0,10,11
 553 72 553 72 570.5 95 c 128,-1,12
 588 118 588 118 620 118 c 0,13,14
 653 118 653 118 680.5 95 c 128,-1,15
 708 72 708 72 714 40 c 0,4,5
61 874 m 0,16,17
 68 843 68 843 50 820.5 c 128,-1,18
 32 798 32 798 0 798 c 256,19,20
 -32 798 -32 798 -59 820.5 c 128,-1,21
 -86 843 -86 843 -93 875 c 256,22,23
 -100 907 -100 907 -82 929.5 c 128,-1,24
 -64 952 -64 952 -32 952 c 256,25,26
 0 952 0 952 27 929.5 c 128,-1,27
 54 907 54 907 61 874 c 0,16,17
EndSplineSet
EndChar

StartChar: afii57461
Encoding: 1643 1643 186
Width: 758
GlyphClass: 2
Flags: W
LayerCount: 2
Fore
SplineSet
176 -401 m 1,0,-1
 511 387 l 1,1,-1
 599 387 l 1,2,-1
 263 -401 l 1,3,-1
 176 -401 l 1,0,-1
EndSplineSet
EndChar

StartChar: afii63167
Encoding: 1645 1645 187
Width: 861
GlyphClass: 2
Flags: W
LayerCount: 2
Fore
SplineSet
534 561 m 1,0,-1
 814 564 l 1,1,-1
 814 470 l 1,2,-1
 541 471 l 1,3,-1
 748 271 l 1,4,-1
 680 203 l 1,5,-1
 474 415 l 1,6,-1
 480 129 l 1,7,-1
 383 129 l 1,8,-1
 387 415 l 1,9,-1
 182 203 l 1,10,-1
 113 271 l 1,11,-1
 325 473 l 1,12,-1
 49 470 l 1,13,-1
 49 564 l 1,14,-1
 323 561 l 1,15,-1
 131 751 l 1,16,-1
 199 820 l 1,17,-1
 387 629 l 1,18,-1
 383 906 l 1,19,-1
 480 906 l 1,20,-1
 474 626 l 1,21,-1
 662 820 l 1,22,-1
 730 751 l 1,23,-1
 534 561 l 1,0,-1
EndSplineSet
EndChar

StartChar: afii57459
Encoding: 65541 -1 188
Width: 473
GlyphClass: 2
Flags: W
LayerCount: 2
Fore
SplineSet
-47 150 m 1,0,1
 341 145 341 145 321 238 c 0,2,3
 313 274 313 274 277 322 c 1,4,5
 209 265 209 265 145 265 c 0,6,7
 36 265 36 265 12 383 c 0,8,9
 -4 459 -4 459 24 576 c 0,10,11
 59 710 59 710 123 710 c 0,12,13
 199 710 199 710 285 572 c 0,14,15
 358 459 358 459 377 369 c 0,16,17
 456 0 456 0 69 0 c 2,18,-1
 -15 0 l 1,19,-1
 -47 150 l 1,0,1
79 451 m 0,20,21
 90 397 90 397 130 397 c 2,22,-1
 155 397 l 2,23,24
 179 397 179 397 219 438 c 1,25,26
 213 470 213 470 186 511 c 0,27,28
 152 558 152 558 126 558 c 0,29,30
 93 558 93 558 82 519 c 0,31,32
 71 487 71 487 79 451 c 0,20,21
EndSplineSet
EndChar

StartChar: afii57543
Encoding: 65542 -1 189
Width: 521
Flags: W
LayerCount: 2
Fore
SplineSet
-49 150 m 1,0,1
 91 150 91 150 120 162 c 0,2,3
 186 190 186 190 229 274 c 1,4,5
 317 148 317 148 469 150 c 2,6,-1
 499 150 l 1,7,-1
 531 0 l 1,8,-1
 468 0 l 2,9,10
 408 0 408 0 345 37.5 c 128,-1,11
 282 75 282 75 243 131 c 1,12,13
 225 75 225 75 169 37.5 c 128,-1,14
 113 0 113 0 52 0 c 2,15,-1
 -18 0 l 1,16,-1
 -49 150 l 1,0,1
EndSplineSet
EndChar

StartChar: afii57534
Encoding: 1749 1749 190
Width: 581
GlyphClass: 2
Flags: W
LayerCount: 2
Fore
SplineSet
88 183 m 0,0,1
 72 256 72 256 99 388 c 0,2,3
 132 534 132 534 193 534 c 0,4,5
 290 534 290 534 377 437 c 0,6,7
 452 349 452 349 474 248 c 0,8,9
 497 136 497 136 464 68 c 0,10,11
 425 -11 425 -11 316 -11 c 0,12,13
 129 -11 129 -11 88 183 c 0,0,1
152 219 m 0,14,15
 168 142 168 142 278 142 c 2,16,-1
 305 142 l 2,17,18
 346 142 346 142 376 159 c 0,19,20
 411 183 411 183 403 219 c 0,21,22
 393 266 393 266 330 306 c 0,23,24
 269 342 269 342 219 342 c 0,25,26
 183 342 183 342 161 300 c 0,27,28
 143 259 143 259 152 219 c 0,14,15
EndSplineSet
EndChar

StartChar: afii64240
Encoding: 65543 -1 191
Width: 424
Flags: W
LayerCount: 2
Fore
SplineSet
179 212 m 1,0,-1
 311 105 l 1,1,-1
 229 -1 l 1,2,-1
 97 106 l 1,3,-1
 179 212 l 1,0,-1
EndSplineSet
EndChar

StartChar: afii64241
Encoding: 65544 -1 192
Width: 550
Flags: W
LayerCount: 2
Fore
SplineSet
137 227 m 1,0,-1
 274 114 l 1,1,-1
 189 3 l 1,2,-1
 50 117 l 1,3,-1
 137 227 l 1,0,-1
353 236 m 1,4,-1
 487 126 l 1,5,-1
 403 14 l 1,6,-1
 265 128 l 1,7,-1
 353 236 l 1,4,-1
EndSplineSet
EndChar

StartChar: afii63954
Encoding: 65545 -1 193
Width: 581
Flags: W
LayerCount: 2
Fore
SplineSet
193 -2 m 1,0,-1
 62 106 l 1,1,-1
 147 209 l 1,2,-1
 276 102 l 1,3,-1
 193 -2 l 1,0,-1
248 215 m 1,4,-1
 119 322 l 1,5,-1
 202 426 l 1,6,-1
 330 320 l 1,7,-1
 248 215 l 1,4,-1
407 8 m 1,8,-1
 275 117 l 1,9,-1
 358 219 l 1,10,-1
 487 112 l 1,11,-1
 407 8 l 1,8,-1
EndSplineSet
EndChar

StartChar: afii57382
Encoding: 65546 -1 194
Width: 611
Flags: W
LayerCount: 2
Fore
SplineSet
389 -4 m 1,0,-1
 508 -102 l 1,1,-1
 430 -194 l 1,2,-1
 313 -98 l 1,3,-1
 389 -4 l 1,0,-1
340 -199 m 1,4,-1
 457 -296 l 1,5,-1
 381 -390 l 1,6,-1
 266 -295 l 1,7,-1
 340 -199 l 1,4,-1
195 -13 m 1,8,-1
 315 -111 l 1,9,-1
 240 -204 l 1,10,-1
 122 -107 l 1,11,-1
 195 -13 l 1,8,-1
EndSplineSet
EndChar

StartChar: afii64242
Encoding: 65547 -1 195
Width: 334
Flags: W
LayerCount: 2
Fore
SplineSet
-38 150 m 1,0,1
 228 149 228 149 211 230 c 0,2,3
 202 274 202 274 84 391 c 1,4,-1
 122 511 l 2,5,6
 128 530 128 530 143 513 c 0,7,8
 245 390 245 390 266 293 c 0,9,10
 290 178 290 178 236 90 c 0,11,12
 176 0 176 0 65 0 c 2,13,-1
 -6 0 l 1,14,-1
 -38 150 l 1,0,1
EndSplineSet
EndChar

StartChar: afii57373
Encoding: 65548 -1 200
Width: 0
Flags: W
LayerCount: 2
Fore
SplineSet
-187 1237 m 1,0,1
 -142 1264 -142 1264 -118 1277 c 1,2,3
 -176 1324 -176 1324 -185 1366 c 0,4,5
 -193 1404 -193 1404 -162.5 1454.5 c 128,-1,6
 -132 1505 -132 1505 -94 1505 c 0,7,8
 -77 1505 -77 1505 -53 1490.5 c 128,-1,9
 -29 1476 -29 1476 -25 1457 c 0,10,11
 -22 1445 -22 1445 -32 1419 c 1,12,-1
 -39 1413 l 1,13,14
 -75 1437 -75 1437 -103 1437 c 0,15,16
 -127 1437 -127 1437 -132 1395 c 1,17,18
 -128 1374 -128 1374 -84.5 1340.5 c 128,-1,19
 -41 1307 -41 1307 -17 1307 c 0,20,21
 -11 1307 -11 1307 68 1326 c 1,22,-1
 77 1320 l 1,23,-1
 89 1267 l 2,24,25
 89 1260 89 1260 86 1255 c 1,26,-1
 -173 1202 l 1,27,-1
 -181 1208 l 1,28,-1
 -188 1225 l 1,29,-1
 -187 1237 l 1,0,1
EndSplineSet
EndChar

StartChar: afii57374
Encoding: 65549 -1 201
Width: 680
GlyphClass: 2
Flags: W
LayerCount: 2
Fore
SplineSet
-49 150 m 1,0,1
 122 145 122 145 177 166 c 1,2,-1
 155 199 l 1,3,4
 137 251 137 251 136 256 c 0,5,6
 119 340 119 340 188 471 c 0,7,8
 261 609 261 609 341 609 c 0,9,10
 384 609 384 609 425 541 c 0,11,12
 460 484 460 484 470 435 c 0,13,14
 509 253 509 253 414 173 c 1,15,16
 508 149 508 149 627 150 c 2,17,-1
 660 150 l 1,18,-1
 692 0 l 1,19,-1
 541 0 l 2,20,21
 501 0 501 0 419 23.5 c 128,-1,22
 337 47 337 47 300 69 c 1,23,24
 139 0 139 0 47 0 c 2,25,-1
 -18 0 l 1,26,-1
 -49 150 l 1,0,1
204 307 m 0,27,28
 218 239 218 239 304 215 c 1,29,30
 349 226 349 226 383 256 c 0,31,32
 423 293 423 293 414 334 c 0,33,34
 407 367 407 367 373.5 396.5 c 128,-1,35
 340 426 340 426 306 426 c 0,36,37
 267 426 267 426 231.5 384.5 c 128,-1,38
 196 343 196 343 204 307 c 0,27,28
EndSplineSet
EndChar

StartChar: afii57375
Encoding: 1619 1619 202
Width: 721
GlyphClass: 2
Flags: W
LayerCount: 2
Fore
SplineSet
-263 1188 m 0,0,1
 -270 1223 -270 1223 -249.5 1250 c 128,-1,2
 -229 1277 -229 1277 -194 1277 c 0,3,4
 -154 1277 -154 1277 -68.5 1262.5 c 128,-1,5
 17 1248 17 1248 59 1248 c 0,6,7
 249 1248 249 1248 388 1302 c 1,8,9
 408 1315 408 1315 410 1287 c 0,10,11
 413 1220 413 1220 306 1175 c 128,-1,12
 199 1130 199 1130 61 1135 c 0,13,14
 -5 1135 -5 1135 -108 1153 c 1,15,16
 -152 1141 -152 1141 -157 1083 c 1,17,18
 -192 1083 -192 1083 -223.5 1117.5 c 128,-1,19
 -255 1152 -255 1152 -263 1188 c 0,0,1
EndSplineSet
EndChar

StartChar: afii57471
Encoding: 65550 -1 203
Width: 1591
Flags: W
LayerCount: 2
Fore
SplineSet
28 279 m 0,0,1
 15 334 15 334 28 410 c 0,2,3
 47 498 47 498 86 514 c 0,4,5
 98 517 98 517 98 501 c 0,6,7
 99 484 99 484 85 426 c 0,8,9
 75 379 75 379 82 349 c 0,10,11
 110 215 110 215 372 162 c 0,12,13
 535 128 535 128 740 128 c 0,14,15
 893 128 893 128 1024 159 c 0,16,17
 1204 205 1204 205 1241 296 c 0,18,19
 1246 311 1246 311 1257.5 310 c 128,-1,20
 1269 309 1269 309 1275 293 c 0,21,22
 1309 203 1309 203 1373 172 c 0,23,24
 1420 150 1420 150 1515 150 c 2,25,-1
 1572 150 l 1,26,-1
 1604 0 l 1,27,28
 1468 0 1468 0 1408 27 c 0,29,30
 1328 62 1328 62 1260 178 c 1,31,32
 1136 -25 1136 -25 682 -25 c 0,33,34
 92 -25 92 -25 28 279 c 0,0,1
EndSplineSet
EndChar

StartChar: afii52258
Encoding: 65551 -1 204
Width: 1729
GlyphClass: 2
Flags: W
LayerCount: 2
Fore
SplineSet
50 166 m 0,0,1
 36 232 36 232 45 314 c 0,2,3
 57 405 57 405 95 437 c 1,4,-1
 103 424 l 2,5,6
 104 415 104 415 99 322 c 0,7,8
 96 260 96 260 105 218 c 0,9,10
 131 95 131 95 326 41 c 0,11,12
 457 5 457 5 623 5 c 0,13,14
 787 5 787 5 971 39 c 0,15,16
 1184 80 1184 80 1281 149 c 1,17,18
 1196 203 1196 203 1184 260 c 0,19,20
 1168 336 1168 336 1219 471 c 0,21,22
 1275 617 1275 617 1344 617 c 0,23,24
 1394 617 1394 617 1459 522 c 0,25,26
 1512 443 1512 443 1525 383 c 0,27,28
 1556 238 1556 238 1504 172 c 1,29,30
 1568 149 1568 149 1679 150 c 2,31,-1
 1704 150 l 1,32,-1
 1736 0 l 1,33,-1
 1720 0 l 2,34,35
 1565 -2 1565 -2 1410 77 c 1,36,37
 1283 -19 1283 -19 1071 -88.5 c 128,-1,38
 859 -158 859 -158 685 -158 c 0,39,40
 438 -158 438 -158 306 -110 c 0,41,42
 92 -36 92 -36 50 166 c 0,0,1
1246 316 m 0,43,44
 1250 296 1250 296 1297 256 c 1,45,46
 1351 232 1351 232 1380 219 c 1,47,48
 1433 259 1433 259 1440 265 c 0,49,50
 1472 300 1472 300 1465 336 c 0,51,52
 1458 363 1458 363 1424 405 c 0,53,54
 1386 453 1386 453 1362 453 c 0,55,56
 1332 453 1332 453 1286 398 c 128,-1,57
 1240 343 1240 343 1246 316 c 0,43,44
EndSplineSet
EndChar

StartChar: afii62889
Encoding: 65552 -1 210
Width: 1173
Flags: W
LayerCount: 2
Fore
SplineSet
132 -213 m 0,0,1
 117 -143 117 -143 143 5 c 0,2,3
 172 170 172 170 228 164 c 1,4,-1
 239 152 l 1,5,6
 239 112 239 112 204 22 c 0,7,8
 179 -52 179 -52 195 -125 c 0,9,10
 220 -244 220 -244 329 -309 c 0,11,12
 423 -367 423 -367 547 -367 c 0,13,14
 723 -367 723 -367 858 -293 c 0,15,16
 1030 -203 1030 -203 996 -47 c 0,17,18
 995 -39 995 -39 981 0 c 1,19,20
 888 -2 888 -2 815 27 c 0,21,22
 718 66 718 66 701 149 c 0,23,24
 686 218 686 218 717 313 c 0,25,26
 753 418 753 418 818 418 c 0,27,28
 879 418 879 418 943 309 c 0,29,30
 986 239 986 239 1016 150 c 1,31,-1
 1149 150 l 1,32,-1
 1181 0 l 1,33,-1
 1052 0 l 1,34,35
 1100 -227 1100 -227 946 -385 c 1,36,37
 795 -531 795 -531 565 -531 c 0,38,39
 199 -531 199 -531 132 -213 c 0,0,1
777 215 m 0,40,41
 789 156 789 156 906 156 c 2,42,-1
 926 156 l 1,43,44
 919 194 919 194 890 235 c 0,45,46
 853 287 853 287 822 287 c 0,47,48
 798 287 798 287 785 262.5 c 128,-1,49
 772 238 772 238 777 215 c 0,40,41
EndSplineSet
EndChar

StartChar: afii62887
Encoding: 65553 -1 211
Width: 1418
Flags: W
LayerCount: 2
Fore
SplineSet
23 253 m 0,0,1
 9 316 9 316 22 390 c 0,2,3
 40 470 40 470 82 500 c 0,4,5
 94 505 94 505 92 486 c 0,6,7
 84 447 84 447 75 410 c 0,8,9
 65 364 65 364 73 330 c 0,10,11
 96 218 96 218 312 166 c 0,12,13
 450 132 450 132 611 132 c 0,14,15
 768 132 768 132 996 178 c 0,16,17
 1295 235 1295 235 1277 320 c 0,18,19
 1270 355 1270 355 1223 407.5 c 128,-1,20
 1176 460 1176 460 1175 465 c 0,21,22
 1167 501 1167 501 1212 588 c 1,23,24
 1248 567 1248 567 1280 511 c 0,25,26
 1313 456 1313 456 1321 415 c 0,27,28
 1349 286 1349 286 1325 211 c 0,29,30
 1288 95 1288 95 1001 30 c 0,31,32
 787 -15 787 -15 577 -15 c 0,33,34
 80 -15 80 -15 23 253 c 0,0,1
EndSplineSet
EndChar

StartChar: afii62888
Encoding: 1697 1697 212
Width: 1577
GlyphClass: 2
Flags: W
LayerCount: 2
Fore
SplineSet
44 301 m 0,0,1
 20 415 20 415 72 528 c 1,2,-1
 95 549 l 1,3,-1
 106 539 l 1,4,5
 111 507 111 507 99 443 c 0,6,7
 90 382 90 382 99 342 c 0,8,9
 149 109 149 109 690 109 c 0,10,11
 909 109 909 109 1135 166 c 0,12,13
 1451 246 1451 246 1420 390 c 0,14,15
 1411 430 1411 430 1393 464 c 1,16,17
 1341 373 1341 373 1247 373 c 0,18,19
 1180 373 1180 373 1128 426 c 0,20,21
 1081 476 1081 476 1066 546 c 0,22,23
 1047 635 1047 635 1083 727 c 0,24,25
 1123 834 1123 834 1208 834 c 0,26,27
 1226 834 1226 834 1278 795 c 0,28,29
 1428 681 1428 681 1481 438 c 0,30,31
 1522 239 1522 239 1438 149 c 0,32,33
 1376 80 1376 80 1177 21 c 0,34,35
 921 -54 921 -54 654 -54 c 0,36,37
 119 -54 119 -54 44 301 c 0,0,1
1146 602 m 0,38,39
 1162 527 1162 527 1220 527 c 0,40,41
 1277 527 1277 527 1294 596 c 1,42,43
 1242 685 1242 685 1178 695 c 1,44,45
 1132 670 1132 670 1146 602 c 0,38,39
EndSplineSet
Substitution2: "'fina' Terminal Forms in Arabic lookup 3 subtable" afii52258
Substitution2: "'medi' Medial Forms in Arabic lookup 2 subtable" afii57374
Substitution2: "'init' Initial Forms in Arabic lookup 1 subtable" afii57459
EndChar

StartChar: afii57567
Encoding: 1705 1705 219
Width: 1588
GlyphClass: 2
Flags: W
AnchorPoint: "Anchor-3" 570 -450 basechar 0
AnchorPoint: "Anchor-2" 465 1020 basechar 0
LayerCount: 2
Fore
SplineSet
43 256 m 0,0,1
 28 330 28 330 39 399 c 0,2,3
 55 484 55 484 107 506 c 1,4,-1
 116 498 l 1,5,6
 118 478 118 478 103 426 c 0,7,8
 90 383 90 383 97 350 c 0,9,10
 122 230 122 230 328 170 c 0,11,12
 470 129 470 129 630 129 c 0,13,14
 819 129 819 129 994 159 c 0,15,16
 1257 206 1257 206 1237 300 c 0,17,18
 1227 347 1227 347 1059 476 c 0,19,20
 842 642 842 642 841 644 c 0,21,22
 798 685 798 685 778 778 c 0,23,24
 765 839 765 839 785 877 c 0,25,26
 881 1064 881 1064 1444 1307 c 0,27,28
 1543 1351 1543 1351 1573 1354 c 1,29,-1
 1581 1347 l 1,30,31
 1592 1216 1592 1216 1572 1202 c 1,32,33
 1501 1177 1501 1177 1443 1160 c 0,34,35
 1073 1038 1073 1038 833 806 c 1,36,-1
 829 792 l 1,37,38
 848 765 848 765 962 683 c 0,39,40
 1105 584 1105 584 1160 534 c 0,41,42
 1266 443 1266 443 1281 373 c 0,43,44
 1335 119 1335 119 1085 33 c 0,45,46
 942 -15 942 -15 615 -15 c 0,47,48
 427 -15 427 -15 283 33 c 0,49,50
 75 102 75 102 43 256 c 0,0,1
EndSplineSet
Substitution2: "'fina' Terminal Forms in Arabic lookup 3 subtable" afii62964
Substitution2: "'medi' Medial Forms in Arabic lookup 2 subtable" afii52306
Substitution2: "'init' Initial Forms in Arabic lookup 1 subtable" afii52305
EndChar

StartChar: afii62964
Encoding: 64399 64399 220
Width: 1982
GlyphClass: 2
Flags: W
AnchorPoint: "Anchor-3" 675 -465 basechar 0
AnchorPoint: "Anchor-2" 510 990 basechar 0
LayerCount: 2
Fore
SplineSet
49 256 m 0,0,1
 34 330 34 330 44 399 c 0,2,3
 59 484 59 484 113 506 c 1,4,-1
 122 498 l 1,5,6
 122 478 122 478 109 426 c 0,7,8
 95 383 95 383 102 350 c 0,9,10
 129 221 129 221 357 166 c 0,11,12
 501 131 501 131 688 131 c 0,13,14
 1299 131 1299 131 1247 379 c 0,15,16
 1237 426 1237 426 1126 481 c 0,17,18
 957 563 957 563 918 593 c 0,19,20
 802 675 802 675 778 788 c 0,21,22
 770 829 770 829 778 856 c 0,23,24
 812 957 812 957 1134 1153 c 0,25,26
 1448 1341 1448 1341 1579 1354 c 1,27,-1
 1585 1347 l 1,28,29
 1595 1214 1595 1214 1578 1202 c 1,30,31
 1480 1173 1480 1173 1381 1136 c 1,32,33
 1070 998 1070 998 926 870 c 0,34,35
 844 798 844 798 835 771 c 1,36,37
 842 760 842 760 855 752 c 0,38,39
 1165 599 1165 599 1207 576 c 0,40,41
 1385 478 1385 478 1708 244 c 0,42,43
 1838 150 1838 150 1893 150 c 2,44,-1
 1960 150 l 1,45,-1
 1992 0 l 1,46,47
 1896 0 1896 0 1858 12.5 c 128,-1,48
 1820 25 1820 25 1736 87 c 0,49,50
 1627 172 1627 172 1516 256 c 0,51,52
 1359 379 1359 379 1300 403 c 1,53,54
 1294 379 1294 379 1298.5 317.5 c 128,-1,55
 1303 256 1303 256 1296 230 c 0,56,57
 1257 71 1257 71 1043 15 c 0,58,59
 915 -15 915 -15 664 -15 c 0,60,61
 107 -15 107 -15 49 256 c 0,0,1
EndSplineSet
EndChar

StartChar: afii52305
Encoding: 64400 64400 221
Width: 697
GlyphClass: 2
Flags: W
AnchorPoint: "Anchor-3" 315 -555 basechar 0
AnchorPoint: "Anchor-2" 0 1215 basechar 0
LayerCount: 2
Fore
SplineSet
-55 150 m 1,0,1
 53 149 53 149 32 149 c 1,2,3
 373 149 373 149 346 276 c 0,4,5
 332 343 332 343 36 569 c 0,6,7
 -18 611 -18 611 -51 635 c 1,8,9
 -96 685 -96 685 -114 765 c 0,10,11
 -127 826 -127 826 -104 861 c 1,12,13
 -41 929 -41 929 -5 959 c 0,14,15
 307 1250 307 1250 677 1347 c 1,16,-1
 691 1351 l 1,17,18
 704 1204 704 1204 687 1190 c 1,19,20
 554 1137 554 1137 451 1103 c 1,21,22
 114 968 114 968 -58 793 c 1,23,-1
 -63 779 l 1,24,25
 -44 752 -44 752 69 671 c 0,26,27
 213 572 213 572 270 522 c 0,28,29
 375 430 375 430 388 367 c 0,30,31
 467 0 467 0 115 0 c 2,32,-1
 -24 0 l 1,33,-1
 -55 150 l 1,0,1
EndSplineSet
EndChar

StartChar: afii52306
Encoding: 64401 64401 222
Width: 1088
GlyphClass: 2
Flags: W
AnchorPoint: "Anchor-3" 405 -510 basechar 0
AnchorPoint: "Anchor-2" 0 1245 basechar 0
LayerCount: 2
Fore
SplineSet
-52 150 m 1,0,1
 -41 150 -41 150 7 149 c 2,2,-1
 81 149 l 2,3,4
 439 149 439 149 404 313 c 0,5,6
 387 396 387 396 266 465 c 0,7,8
 155 525 155 525 45 584 c 1,9,10
 -77 668 -77 668 -102 787 c 0,11,12
 -128 909 -128 909 217 1120 c 0,13,14
 512 1300 512 1300 690 1347 c 1,15,-1
 704 1331 l 1,16,17
 719 1202 719 1202 701 1190 c 1,18,19
 612 1153 612 1153 557 1140 c 1,20,21
 402 1082 402 1082 300 1029 c 0,22,23
 -28 855 -28 855 -55 773 c 1,24,-1
 -39 757 l 1,25,26
 301 607 301 607 492 471 c 2,27,-1
 813 244 l 2,28,29
 899 185 899 185 937 170 c 0,30,31
 985 150 985 150 1070 150 c 1,32,-1
 1103 0 l 1,33,-1
 1014 0 l 2,34,35
 949 0 949 0 732 164 c 0,36,37
 484 350 484 350 445 369 c 1,38,-1
 443 358 l 1,39,40
 455 328 455 328 467 238 c 0,41,42
 492 0 492 0 161 0 c 2,43,-1
 -21 0 l 1,44,-1
 -52 150 l 1,0,1
EndSplineSet
EndChar

StartChar: afii57509
Encoding: 1711 1711 223
Width: 1598
GlyphClass: 2
Flags: W
AnchorPoint: "Anchor-3" 600 -465 basechar 0
AnchorPoint: "Anchor-2" 345 1110 basechar 0
LayerCount: 2
Fore
SplineSet
45 256 m 0,0,1
 29 330 29 330 41 399 c 0,2,3
 56 484 56 484 110 506 c 1,4,-1
 119 498 l 1,5,6
 119 478 119 478 106 426 c 0,7,8
 92 383 92 383 99 350 c 0,9,10
 124 230 124 230 330 170 c 0,11,12
 472 129 472 129 630 129 c 0,13,14
 821 129 821 129 997 159 c 0,15,16
 1260 206 1260 206 1240 300 c 0,17,18
 1230 347 1230 347 1060 476 c 0,19,20
 842 642 842 642 842 644 c 0,21,22
 799 685 799 685 779 778 c 0,23,24
 766 839 766 839 786 877 c 0,25,26
 881 1064 881 1064 1445 1307 c 0,27,28
 1545 1351 1545 1351 1575 1354 c 1,29,-1
 1582 1347 l 1,30,31
 1594 1216 1594 1216 1575 1202 c 1,32,33
 1505 1177 1505 1177 1447 1160 c 0,34,35
 1077 1038 1077 1038 835 806 c 1,36,-1
 831 792 l 1,37,38
 849 765 849 765 963 683 c 0,39,40
 1105 584 1105 584 1163 534 c 0,41,42
 1267 443 1267 443 1282 373 c 0,43,44
 1337 119 1337 119 1086 33 c 0,45,46
 943 -15 943 -15 618 -15 c 0,47,48
 429 -15 429 -15 283 33 c 0,49,50
 77 102 77 102 45 256 c 0,0,1
703 1074 m 1,51,52
 985 1361 985 1361 1437 1571 c 0,53,54
 1518 1607 1518 1607 1544 1615 c 1,55,-1
 1554 1607 l 1,56,57
 1552 1533 1552 1533 1521 1457 c 1,58,59
 1048 1271 1048 1271 720 993 c 1,60,-1
 703 1074 l 1,51,52
EndSplineSet
Substitution2: "'fina' Terminal Forms in Arabic lookup 3 subtable" afii62967
Substitution2: "'medi' Medial Forms in Arabic lookup 2 subtable" afii62966
Substitution2: "'init' Initial Forms in Arabic lookup 1 subtable" afii62965
EndChar

StartChar: afii62967
Encoding: 64403 64403 224
Width: 1971
GlyphClass: 2
Flags: W
AnchorPoint: "Anchor-3" 645 -525 basechar 0
AnchorPoint: "Anchor-2" 465 1200 basechar 0
LayerCount: 2
Fore
SplineSet
38 256 m 0,0,1
 23 330 23 330 35 399 c 0,2,3
 50 484 50 484 102 506 c 1,4,-1
 112 498 l 1,5,6
 113 478 113 478 99 426 c 0,7,8
 85 383 85 383 92 350 c 0,9,10
 119 221 119 221 346 166 c 0,11,12
 492 131 492 131 678 131 c 0,13,14
 1288 131 1288 131 1236 379 c 0,15,16
 1226 426 1226 426 1116 481 c 0,17,18
 947 563 947 563 908 593 c 0,19,20
 791 675 791 675 767 788 c 0,21,22
 758 829 758 829 768 856 c 0,23,24
 802 957 802 957 1125 1153 c 0,25,26
 1438 1341 1438 1341 1568 1354 c 1,27,-1
 1576 1347 l 1,28,29
 1585 1214 1585 1214 1567 1202 c 1,30,31
 1475 1169 1475 1169 1370 1136 c 1,32,33
 1060 998 1060 998 917 870 c 0,34,35
 833 798 833 798 825 771 c 1,36,37
 832 760 832 760 846 752 c 0,38,39
 1154 599 1154 599 1197 576 c 0,40,41
 1376 478 1376 478 1698 244 c 0,42,43
 1829 150 1829 150 1883 150 c 2,44,-1
 1948 150 l 1,45,-1
 1980 0 l 1,46,47
 1884 0 1884 0 1846.5 12.5 c 128,-1,48
 1809 25 1809 25 1726 87 c 0,49,50
 1615 172 1615 172 1507 256 c 0,51,52
 1350 379 1350 379 1291 403 c 1,53,54
 1284 379 1284 379 1289 317.5 c 128,-1,55
 1294 256 1294 256 1287 230 c 0,56,57
 1246 71 1246 71 1033 15 c 1,58,59
 903 -15 903 -15 654 -15 c 0,60,61
 96 -15 96 -15 38 256 c 0,0,1
697 1074 m 1,62,63
 979 1361 979 1361 1431 1571 c 0,64,65
 1511 1607 1511 1607 1538 1615 c 1,66,-1
 1548 1607 l 1,67,68
 1544 1533 1544 1533 1512 1457 c 1,69,70
 1040 1271 1040 1271 714 993 c 1,71,-1
 697 1074 l 1,62,63
EndSplineSet
EndChar

StartChar: afii62965
Encoding: 64404 64404 225
Width: 701
GlyphClass: 2
Flags: W
AnchorPoint: "Anchor-3" 330 -480 basechar 0
AnchorPoint: "Anchor-2" 0 1440 basechar 0
LayerCount: 2
Fore
SplineSet
-47 150 m 1,0,1
 61 149 61 149 40 149 c 1,2,3
 381 149 381 149 354 276 c 0,4,5
 340 343 340 343 44 569 c 0,6,7
 -9 611 -9 611 -43 635 c 1,8,9
 -88 685 -88 685 -105 765 c 0,10,11
 -119 826 -119 826 -95 861 c 1,12,13
 -36 929 -36 929 1 959 c 0,14,15
 316 1250 316 1250 685 1347 c 1,16,-1
 698 1331 l 1,17,18
 711 1204 711 1204 695 1190 c 1,19,20
 562 1137 562 1137 459 1103 c 1,21,22
 122 968 122 968 -49 793 c 1,23,-1
 -55 779 l 1,24,25
 -36 752 -36 752 78 671 c 0,26,27
 220 572 220 572 278 522 c 0,28,29
 383 430 383 430 396 367 c 0,30,31
 474 0 474 0 123 0 c 2,32,-1
 -15 0 l 1,33,-1
 -47 150 l 1,0,1
-180 1064 m 1,34,35
 -19 1235 -19 1235 198 1381 c 0,36,37
 428 1538 428 1538 642 1613 c 1,38,-1
 651 1615 l 1,39,-1
 659 1607 l 1,40,41
 665 1545 665 1545 634 1457 c 1,42,43
 104 1231 104 1231 -163 984 c 1,44,-1
 -180 1064 l 1,34,35
EndSplineSet
EndChar

StartChar: afii62966
Encoding: 64405 64405 226
Width: 1085
GlyphClass: 2
Flags: W
AnchorPoint: "Anchor-3" 420 -510 basechar 0
AnchorPoint: "Anchor-2" 15 1425 basechar 0
LayerCount: 2
Fore
SplineSet
-55 150 m 1,0,1
 -44 150 -44 150 4 149 c 2,2,-1
 78 149 l 2,3,4
 436 149 436 149 401 313 c 0,5,6
 383 396 383 396 263 465 c 0,7,8
 152 525 152 525 42 584 c 1,9,10
 -80 668 -80 668 -105 787 c 0,11,12
 -131 909 -131 909 214 1120 c 0,13,14
 509 1300 509 1300 687 1347 c 1,15,-1
 701 1331 l 1,16,17
 716 1202 716 1202 698 1190 c 1,18,19
 609 1153 609 1153 554 1140 c 1,20,21
 399 1082 399 1082 296 1029 c 0,22,23
 -31 855 -31 855 -59 773 c 1,24,-1
 -42 757 l 1,25,26
 298 607 298 607 489 471 c 2,27,-1
 810 244 l 2,28,29
 895 185 895 185 934 170 c 0,30,31
 982 150 982 150 1066 150 c 1,32,-1
 1099 0 l 1,33,-1
 1011 0 l 2,34,35
 946 0 946 0 729 164 c 0,36,37
 480 350 480 350 442 369 c 1,38,-1
 440 358 l 1,39,40
 452 328 452 328 464 238 c 0,41,42
 489 0 489 0 158 0 c 2,43,-1
 -24 0 l 1,44,-1
 -55 150 l 1,0,1
-177 1064 m 1,45,46
 -16 1235 -16 1235 199 1381 c 0,47,48
 431 1538 431 1538 644 1613 c 1,49,-1
 654 1615 l 1,50,-1
 663 1607 l 1,51,52
 665 1545 665 1545 636 1457 c 1,53,54
 107 1231 107 1231 -160 984 c 1,55,-1
 -177 1064 l 1,45,46
EndSplineSet
EndChar

StartChar: afii57555
Encoding: 1740 1740 227
Width: 1208
GlyphClass: 2
Flags: W
AnchorPoint: "Anchor-3" 570 -915 basechar 0
AnchorPoint: "Anchor-2" 450 705 basechar 0
LayerCount: 2
Fore
SplineSet
151 -125 m 0,0,1
 131 -32 131 -32 146 80 c 1,2,3
 168 205 168 205 219 253 c 1,4,-1
 229 239 l 1,5,6
 179 82 179 82 206 -55 c 0,7,8
 234 -189 234 -189 361 -257 c 0,9,10
 468 -314 468 -314 609 -314 c 0,11,12
 711 -314 711 -314 896 -257 c 0,13,14
 1114 -189 1114 -189 1101 -120 c 1,15,16
 1056 -90 1056 -90 937 -69.5 c 128,-1,17
 818 -49 818 -49 772 -28 c 0,18,19
 688 9 688 9 670 96 c 0,20,21
 639 239 639 239 731 396 c 0,22,23
 828 555 828 555 968 555 c 0,24,25
 1056 555 1056 555 1087 513 c 1,26,27
 1093 443 1093 443 1065 388 c 1,28,29
 1008 403 1008 403 953 403 c 0,30,31
 865 403 865 403 788 331 c 0,32,33
 707 254 707 254 725 167 c 0,34,35
 741 95 741 95 841 73 c 128,-1,36
 941 51 941 51 1036 35 c 1,37,38
 1140 9 1140 9 1155 -62 c 0,39,40
 1193 -246 1193 -246 977 -366 c 0,41,42
 796 -464 796 -464 590 -464 c 0,43,44
 223 -464 223 -464 151 -125 c 0,0,1
EndSplineSet
Substitution2: "'fina' Terminal Forms in Arabic lookup 3 subtable" afii52364
Substitution2: "'medi' Medial Forms in Arabic lookup 2 subtable" afii62832
Substitution2: "'init' Initial Forms in Arabic lookup 1 subtable" uniFBFE
EndChar

StartChar: afii52364
Encoding: 64509 64509 228
Width: 1126
GlyphClass: 2
Flags: W
AnchorPoint: "Anchor-3" 660 -1035 basechar 0
AnchorPoint: "Anchor-2" 420 465 basechar 0
LayerCount: 2
Fore
SplineSet
139 -213 m 0,0,1
 122 -128 122 -128 133 -27 c 1,2,3
 154 92 154 92 199 128 c 1,4,-1
 211 112 l 1,5,6
 165 -28 165 -28 188 -137 c 0,7,8
 224 -306 224 -306 346 -380 c 0,9,10
 446 -438 446 -438 621 -438 c 0,11,12
 732 -438 732 -438 892 -400 c 0,13,14
 1097 -350 1097 -350 1083 -281 c 0,15,16
 1077 -257 1077 -257 999 -239 c 0,17,18
 882 -218 882 -218 847 -203 c 0,19,20
 762 -169 762 -169 747 -96 c 0,21,22
 723 15 723 15 829 89 c 0,23,24
 920 150 920 150 1042 150 c 2,25,-1
 1103 150 l 1,26,-1
 1136 0 l 1,27,28
 809 0 809 0 814 -72 c 1,29,30
 849 -98 849 -98 936 -113 c 0,31,32
 1025 -129 1025 -129 1061 -152 c 0,33,34
 1122 -191 1122 -191 1143 -287 c 0,35,36
 1174 -435 1174 -435 964 -524 c 0,37,38
 800 -590 800 -590 621 -590 c 0,39,40
 437 -590 437 -590 310 -494 c 0,41,42
 179 -396 179 -396 139 -213 c 0,0,1
EndSplineSet
EndChar

StartChar: afii62945
Encoding: 65554 -1 234
Width: 1333
GlyphClass: 3
Flags: W
LayerCount: 2
Fore
SplineSet
42 218 m 0,0,1
 23 307 23 307 105 410 c 0,2,3
 176 497 176 497 269 537 c 1,4,-1
 239 615 l 1,5,-1
 274 681 l 1,6,-1
 290 685 l 1,7,-1
 296 677 l 1,8,9
 321 581 321 581 348 484 c 0,10,11
 389 336 389 336 439 256 c 0,12,13
 505 149 505 149 591 149 c 2,14,-1
 610 149 l 1,15,-1
 610 150 l 1,16,17
 783 150 783 150 750 307 c 0,18,19
 721 445 721 445 685 564 c 128,-1,20
 649 683 649 683 620 820 c 0,21,22
 608 877 608 877 638 877 c 0,23,24
 696 877 696 877 703 845 c 2,25,-1
 762 572 l 2,26,27
 777 500 777 500 812 397 c 0,28,29
 899 150 899 150 1015 150 c 1,30,31
 1176 158 1176 158 1157 248 c 0,32,33
 1132 364 1132 364 1075 517 c 128,-1,34
 1018 670 1018 670 993 787 c 0,35,36
 949 992 949 992 1016 1041 c 1,37,38
 1037 1029 1037 1029 1083 979 c 0,39,40
 1122 937 1122 937 1139 910 c 1,41,42
 1120 875 1120 875 1098 841 c 1,43,44
 1080 801 1080 801 1090 757 c 0,45,46
 1112 651 1112 651 1152.5 524 c 128,-1,47
 1193 397 1193 397 1215 293 c 0,48,49
 1236 194 1236 194 1201 104 c 0,50,51
 1167 15 1167 15 1095 2 c 1,52,-1
 1096 0 l 1,53,-1
 1011 0 l 1,54,-1
 1010 2 l 1,55,56
 948 12 948 12 902 60 c 0,57,58
 865 95 865 95 812 191 c 1,59,60
 808 128 808 128 784 71 c 0,61,62
 754 0 754 0 650 3 c 128,-1,63
 546 6 546 6 496 51 c 1,64,65
 424 102 424 102 366 232 c 1,66,67
 305 128 305 128 280 128 c 0,68,69
 210 128 210 128 146 143 c 0,70,71
 52 170 52 170 42 218 c 0,0,1
138 322 m 0,72,73
 146 283 146 283 310 283 c 2,74,-1
 344 283 l 1,75,-1
 301 437 l 1,76,77
 264 426 264 426 204 390 c 0,78,79
 132 347 132 347 138 322 c 0,72,73
EndSplineSet
EndChar

StartChar: afii64184
Encoding: 65010 65010 235
Width: 1333
GlyphClass: 3
Flags: W
AnchorPoint: "Anchor-1" 1155 -405 baselig 0
AnchorPoint: "Anchor-0" 1020 1095 baselig 0
AnchorPoint: "Anchor-1" 810 -375 baselig 1
AnchorPoint: "Anchor-0" 630 900 baselig 1
AnchorPoint: "Anchor-1" 330 -375 baselig 2
AnchorPoint: "Anchor-0" 150 705 baselig 2
LayerCount: 2
Fore
SplineSet
42 218 m 0,0,1
 23 307 23 307 105 410 c 0,2,3
 176 497 176 497 269 537 c 1,4,-1
 239 615 l 1,5,-1
 274 681 l 1,6,-1
 290 685 l 1,7,-1
 296 677 l 1,8,9
 321 581 321 581 348 484 c 0,10,11
 389 336 389 336 439 256 c 0,12,13
 505 149 505 149 591 149 c 2,14,-1
 610 149 l 1,15,-1
 610 150 l 1,16,17
 783 150 783 150 750 307 c 0,18,19
 721 445 721 445 685 564 c 128,-1,20
 649 683 649 683 620 820 c 0,21,22
 608 877 608 877 638 877 c 0,23,24
 696 877 696 877 703 845 c 2,25,-1
 762 572 l 2,26,27
 777 500 777 500 812 397 c 0,28,29
 899 150 899 150 1015 150 c 1,30,31
 1176 158 1176 158 1157 248 c 0,32,33
 1132 364 1132 364 1075 517 c 128,-1,34
 1018 670 1018 670 993 787 c 0,35,36
 949 992 949 992 1016 1041 c 1,37,38
 1037 1029 1037 1029 1083 979 c 0,39,40
 1122 937 1122 937 1139 910 c 1,41,42
 1120 875 1120 875 1098 841 c 1,43,44
 1080 801 1080 801 1090 757 c 0,45,46
 1112 651 1112 651 1152.5 524 c 128,-1,47
 1193 397 1193 397 1215 293 c 0,48,49
 1236 194 1236 194 1201 104 c 0,50,51
 1167 15 1167 15 1095 2 c 1,52,-1
 1096 0 l 1,53,-1
 1011 0 l 1,54,-1
 1010 2 l 1,55,56
 948 12 948 12 902 60 c 0,57,58
 865 95 865 95 812 191 c 1,59,60
 808 128 808 128 784 71 c 0,61,62
 754 0 754 0 650 3 c 128,-1,63
 546 6 546 6 496 51 c 1,64,65
 424 102 424 102 366 232 c 1,66,67
 305 128 305 128 280 128 c 0,68,69
 210 128 210 128 146 143 c 0,70,71
 52 170 52 170 42 218 c 0,0,1
724 1128 m 2,72,73
 739 1056 739 1056 724 1018 c 128,-1,74
 709 980 709 980 665 980 c 0,75,76
 644 980 644 980 632.5 983 c 128,-1,77
 621 986 621 986 603 1000 c 1,78,79
 602 969 602 969 579.5 944 c 128,-1,80
 557 919 557 919 529 919 c 0,81,82
 497 919 497 919 470 946 c 128,-1,83
 443 973 443 973 434 1018 c 0,84,85
 427 1043 427 1043 430 1075 c 2,86,-1
 434 1107 l 1,87,-1
 454 1109 l 1,88,89
 466 1056 466 1056 478 1034.5 c 128,-1,90
 490 1013 490 1013 511 1013 c 0,91,92
 537 1013 537 1013 550.5 1044.5 c 128,-1,93
 564 1076 564 1076 559 1157 c 1,94,-1
 574 1163 l 1,95,96
 595 1110 595 1110 611.5 1091.5 c 128,-1,97
 628 1073 628 1073 644 1073 c 0,98,99
 704 1073 704 1073 675 1207 c 1,100,-1
 693 1215 l 1,101,-1
 714 1168 l 1,102,-1
 724 1128 l 2,72,73
138 322 m 0,103,104
 146 283 146 283 310 283 c 2,105,-1
 344 283 l 1,106,-1
 301 437 l 1,107,108
 264 426 264 426 204 390 c 0,109,110
 132 347 132 347 138 322 c 0,103,104
552 1255 m 2,111,112
 551 1245 551 1245 551 1224 c 1,113,114
 544 1207 544 1207 533 1207 c 0,115,116
 531 1207 531 1207 524 1218 c 2,117,-1
 450 1404 l 1,118,-1
 483 1442 l 1,119,-1
 487 1442 l 2,120,121
 491 1442 491 1442 547 1287 c 1,122,-1
 552 1255 l 2,111,112
EndSplineSet
Ligature2: "'rlig' Required Ligatures in Arabic lookup 5 subtable" afii62817 afii62818 uni06C1
Ligature2: "'rlig' Required Ligatures in Arabic lookup 4 subtable" afii62817 afii62818 uniFC63 afii62828
Ligature2: "'rlig' Required Ligatures in Arabic lookup 4 subtable" afii62817 afii62818 afii57457 uni0670 afii62828
EndChar

StartChar: afii57415.001
Encoding: 1575 1575 249
Width: 353
GlyphClass: 2
Flags: W
AnchorPoint: "Anchor-3" 240 -390 basechar 0
AnchorPoint: "Anchor-2" -60 1305 basechar 0
LayerCount: 2
Fore
SplineSet
-76 1047 m 1,0,1
 -50 1126 -50 1126 -4 1148 c 1,2,-1
 2 1143 l 1,3,4
 53 956 53 956 131 645 c 128,-1,5
 209 334 209 334 225 227 c 0,6,7
 234 183 234 183 239 102 c 0,8,9
 242 5 242 5 200 0 c 1,10,11
 122 300 122 300 52 570.5 c 128,-1,12
 -18 841 -18 841 -76 1047 c 1,0,1
EndSplineSet
Substitution2: "'fina' Terminal Forms in Arabic lookup 3 subtable" afii62760
PairPos2: "'kern' Horizontal Kerning in Arabic lookup 0 subtable" uni06B4.init dx=200 dy=0 dh=200 dv=0 dx=0 dy=0 dh=0 dv=0
PairPos2: "'kern' Horizontal Kerning in Arabic lookup 0 subtable" uni06B4 dx=200 dy=0 dh=200 dv=0 dx=0 dy=0 dh=0 dv=0
PairPos2: "'kern' Horizontal Kerning in Arabic lookup 0 subtable" uniFB98 dx=200 dy=0 dh=200 dv=0 dx=0 dy=0 dh=0 dv=0
PairPos2: "'kern' Horizontal Kerning in Arabic lookup 0 subtable" uni06B3 dx=200 dy=0 dh=200 dv=0 dx=0 dy=0 dh=0 dv=0
PairPos2: "'kern' Horizontal Kerning in Arabic lookup 0 subtable" uni06B2.init dx=200 dy=0 dh=200 dv=0 dx=0 dy=0 dh=0 dv=0
PairPos2: "'kern' Horizontal Kerning in Arabic lookup 0 subtable" uniFB9C dx=200 dy=0 dh=200 dv=0 dx=0 dy=0 dh=0 dv=0
PairPos2: "'kern' Horizontal Kerning in Arabic lookup 0 subtable" uni06B1 dx=200 dy=0 dh=200 dv=0 dx=0 dy=0 dh=0 dv=0
PairPos2: "'kern' Horizontal Kerning in Arabic lookup 0 subtable" uni06B0.init dx=200 dy=0 dh=200 dv=0 dx=0 dy=0 dh=0 dv=0
PairPos2: "'kern' Horizontal Kerning in Arabic lookup 0 subtable" uni06B0 dx=200 dy=0 dh=200 dv=0 dx=0 dy=0 dh=0 dv=0
PairPos2: "'kern' Horizontal Kerning in Arabic lookup 0 subtable" uni06AE.init dx=200 dy=0 dh=200 dv=0 dx=0 dy=0 dh=0 dv=0
PairPos2: "'kern' Horizontal Kerning in Arabic lookup 0 subtable" uniFBD5 dx=200 dy=0 dh=200 dv=0 dx=0 dy=0 dh=0 dv=0
PairPos2: "'kern' Horizontal Kerning in Arabic lookup 0 subtable" uni06AB.init dx=200 dy=0 dh=200 dv=0 dx=0 dy=0 dh=0 dv=0
PairPos2: "'kern' Horizontal Kerning in Arabic lookup 0 subtable" uni06AB.init dx=200 dy=0 dh=200 dv=0 dx=0 dy=0 dh=0 dv=0
PairPos2: "'kern' Horizontal Kerning in Arabic lookup 0 subtable" uni06AB.001 dx=200 dy=0 dh=200 dv=0 dx=0 dy=0 dh=0 dv=0
PairPos2: "'kern' Horizontal Kerning in Arabic lookup 0 subtable" afii57410 dx=200 dy=0 dh=200 dv=0 dx=0 dy=0 dh=0 dv=0
PairPos2: "'kern' Horizontal Kerning in Arabic lookup 0 subtable" afii62965 dx=200 dy=0 dh=200 dv=0 dx=0 dy=0 dh=0 dv=0
PairPos2: "'kern' Horizontal Kerning in Arabic lookup 0 subtable" afii57509 dx=200 dy=0 dh=200 dv=0 dx=0 dy=0 dh=0 dv=0
PairPos2: "'kern' Horizontal Kerning in Arabic lookup 0 subtable" afii52305 dx=200 dy=0 dh=200 dv=0 dx=0 dy=0 dh=0 dv=0
PairPos2: "'kern' Horizontal Kerning in Arabic lookup 0 subtable" afii57567 dx=200 dy=0 dh=200 dv=0 dx=0 dy=0 dh=0 dv=0
EndChar

StartChar: afii62760.001
Encoding: 65555 -1 250
Width: 464
GlyphClass: 2
Flags: W
LayerCount: 2
Fore
SplineSet
-115 1076 m 1,0,1
 -120 1101 -120 1101 -96 1131.5 c 128,-1,2
 -72 1162 -72 1162 -51 1173 c 1,3,-1
 172 367 l 2,4,5
 209 226 209 226 259.5 188 c 128,-1,6
 310 150 310 150 453 150 c 1,7,-1
 485 0 l 1,8,-1
 419 0 l 2,9,10
 285 0 285 0 192 143 c 0,11,12
 124 251 124 251 74 450 c 0,13,14
 38 587 38 587 5 711 c 128,-1,15
 -28 835 -28 835 -57 922 c 128,-1,16
 -86 1009 -86 1009 -115 1076 c 1,0,1
EndSplineSet
EndChar

StartChar: afii57421
Encoding: 1581 1581 269
Width: 976
GlyphClass: 2
Flags: W
AnchorPoint: "Anchor-3" 660 -1245 basechar 0
AnchorPoint: "Anchor-2" 390 735 basechar 0
LayerCount: 2
Fore
SplineSet
153 -340 m 0,0,1
 64 80 64 80 467 292 c 1,2,3
 411 303 411 303 317 303 c 0,4,5
 197 303 197 303 91 271 c 1,6,-1
 72 293 l 1,7,8
 59 358 59 358 122 408 c 0,9,10
 179 451 179 451 251 453 c 1,11,12
 251 451 251 451 443 437 c 0,13,14
 632 423 632 423 795 423 c 2,15,-1
 872 423 l 1,16,-1
 880 412 l 1,17,18
 887 343 887 343 872 286 c 1,19,-1
 854 271 l 1,20,21
 567 271 567 271 372 125 c 0,22,23
 147 -42 147 -42 205 -314 c 0,24,25
 249 -521 249 -521 490 -635 c 0,26,27
 684 -725 684 -725 912 -725 c 0,28,29
 1106 -725 1106 -725 1368 -701 c 1,30,-1
 1394 -724 l 1,31,32
 1076 -872 1076 -872 880 -872 c 0,33,34
 608 -872 608 -872 420 -745 c 0,35,36
 210 -605 210 -605 153 -340 c 0,0,1
EndSplineSet
Substitution2: "'fina' Terminal Forms in Arabic lookup 3 subtable" afii62776
Substitution2: "'medi' Medial Forms in Arabic lookup 2 subtable" afii62775
Substitution2: "'init' Initial Forms in Arabic lookup 1 subtable" afii62774
EndChar

StartChar: afii62776
Encoding: 65186 65186 270
Width: 1046
GlyphClass: 2
Flags: W
AnchorPoint: "Anchor-3" 660 -1275 basechar 0
AnchorPoint: "Anchor-2" 420 810 basechar 0
LayerCount: 2
Fore
SplineSet
166 -340 m 0,0,1
 81 63 81 63 478 292 c 1,2,3
 423 303 423 303 330 303 c 0,4,5
 169 303 169 303 102 271 c 1,6,-1
 82 292 l 1,7,8
 67 363 67 363 132 412 c 0,9,10
 186 453 186 453 265 453 c 0,11,12
 342 453 342 453 505 436.5 c 128,-1,13
 668 420 668 420 745 423 c 2,14,-1
 883 423 l 1,15,-1
 892 412 l 1,16,17
 900 358 900 358 872 281 c 1,18,19
 738 268 738 268 695 260 c 1,20,21
 717 145 717 145 906 150 c 0,22,23
 1012 150 1012 150 1026 150 c 1,24,-1
 1058 0 l 1,25,-1
 1014 0 l 2,26,27
 842 0 842 0 772 36 c 0,28,29
 667 89 667 89 636 248 c 1,30,31
 430 194 430 194 310 54 c 0,32,33
 172 -107 172 -107 216 -314 c 256,34,35
 260 -521 260 -521 502 -635 c 0,36,37
 695 -725 695 -725 925 -725 c 0,38,39
 1001 -725 1001 -725 1151 -713 c 128,-1,40
 1301 -701 1301 -701 1378 -701 c 0,41,42
 1405 -701 1405 -701 1405 -724 c 1,43,44
 1086 -872 1086 -872 892 -872 c 0,45,46
 620 -872 620 -872 430 -745 c 0,47,48
 223 -605 223 -605 166 -340 c 0,0,1
EndSplineSet
EndChar

StartChar: afii62774
Encoding: 65187 65187 271
Width: 979
GlyphClass: 2
Flags: W
AnchorPoint: "Anchor-3" 450 -525 basechar 0
AnchorPoint: "Anchor-2" 375 810 basechar 0
LayerCount: 2
Fore
SplineSet
-49 150 m 1,0,1
 85 150 85 150 221 191 c 0,2,3
 283 209 283 209 467 283 c 1,4,5
 380 313 380 313 292 340 c 0,6,7
 189 369 189 369 114 369 c 0,8,9
 75 369 75 369 4 350 c 1,10,11
 -8 355 -8 355 -12 367 c 0,12,13
 -24 424 -24 424 29 476 c 0,14,15
 77 527 77 527 136 527 c 0,16,17
 182 527 182 527 279 492 c 0,18,19
 353 464 353 464 423 435 c 0,20,21
 624 363 624 363 884 358 c 1,22,-1
 903 349 l 1,23,24
 910 287 910 287 889 230 c 1,25,26
 874 227 874 227 868 227 c 0,27,28
 838 227 838 227 780 232.5 c 128,-1,29
 722 238 722 238 692 238 c 0,30,31
 553 238 553 238 329 119 c 128,-1,32
 105 0 105 0 49 0 c 2,33,-1
 -18 0 l 1,34,-1
 -49 150 l 1,0,1
EndSplineSet
EndChar

StartChar: afii62775
Encoding: 65188 65188 272
Width: 1034
GlyphClass: 2
Flags: W
AnchorPoint: "Anchor-3" 405 -450 basechar 0
AnchorPoint: "Anchor-2" 390 840 basechar 0
LayerCount: 2
Fore
SplineSet
-41 150 m 1,0,1
 81 150 81 150 223 203 c 1,2,3
 343 254 343 254 464 303 c 1,4,5
 377 333 377 333 294 358 c 0,6,7
 194 388 194 388 125 388 c 0,8,9
 46 388 46 388 0 370 c 1,10,-1
 -15 388 l 1,11,12
 -26 445 -26 445 22.5 497 c 128,-1,13
 71 549 71 549 131 549 c 0,14,15
 184 549 184 549 321 500 c 1,16,17
 420 460 420 460 520 424 c 0,18,19
 651 382 651 382 865 382 c 1,20,-1
 897 386 l 1,21,22
 903 295 903 295 885 251 c 1,23,-1
 863 248 l 1,24,25
 803 248 803 248 669 254 c 1,26,27
 670 232 670 232 671 224 c 0,28,29
 688 143 688 143 876 150 c 1,30,31
 1000 150 1000 150 1023 150 c 1,32,-1
 1055 0 l 1,33,-1
 987 0 l 2,34,35
 822 0 822 0 745 39 c 0,36,37
 645 92 645 92 613 246 c 1,38,39
 512 238 512 238 304 117 c 0,40,41
 105 0 105 0 44 0 c 2,42,-1
 -9 0 l 1,43,-1
 -41 150 l 1,0,1
EndSplineSet
EndChar

StartChar: afii57423
Encoding: 1583 1583 277
Width: 681
GlyphClass: 2
Flags: W
AnchorPoint: "Anchor-3" 300 -420 basechar 0
AnchorPoint: "Anchor-2" 225 870 basechar 0
LayerCount: 2
Fore
SplineSet
115 49 m 0,0,1
 115 54 115 54 111 159 c 1,2,3
 543 158 543 158 520 265 c 0,4,5
 500 357 500 357 179 539 c 1,6,-1
 170 549 l 1,7,8
 169 569 169 569 177 624 c 0,9,10
 189 683 189 683 198 691 c 1,11,12
 239 671 239 671 263 658 c 0,13,14
 541 498 541 498 598 226 c 0,15,16
 648 -8 648 -8 249 -8 c 0,17,18
 197 -8 197 -8 142 2 c 1,19,-1
 126 12 l 1,20,21
 118 39 118 39 115 49 c 0,0,1
EndSplineSet
Substitution2: "'fina' Terminal Forms in Arabic lookup 3 subtable" afii62780
PairPos2: "'kern' Horizontal Kerning in Arabic lookup 0 subtable" uni06B50627.isol dx=-50 dy=0 dh=-50 dv=0 dx=0 dy=0 dh=0 dv=0
PairPos2: "'kern' Horizontal Kerning in Arabic lookup 0 subtable" uni06B8.init dx=-50 dy=0 dh=-50 dv=0 dx=0 dy=0 dh=0 dv=0
PairPos2: "'kern' Horizontal Kerning in Arabic lookup 0 subtable" uni06B7.init dx=-50 dy=0 dh=-50 dv=0 dx=0 dy=0 dh=0 dv=0
PairPos2: "'kern' Horizontal Kerning in Arabic lookup 0 subtable" uni06B6.init dx=-50 dy=0 dh=-50 dv=0 dx=0 dy=0 dh=0 dv=0
PairPos2: "'kern' Horizontal Kerning in Arabic lookup 0 subtable" uni06B5.init dx=-50 dy=0 dh=-50 dv=0 dx=0 dy=0 dh=0 dv=0
PairPos2: "'kern' Horizontal Kerning in Arabic lookup 0 subtable" uni06B4.init dx=-100 dy=0 dh=-100 dv=0 dx=0 dy=0 dh=0 dv=0
PairPos2: "'kern' Horizontal Kerning in Arabic lookup 0 subtable" uni06B4 dx=-100 dy=0 dh=-100 dv=0 dx=0 dy=0 dh=0 dv=0
PairPos2: "'kern' Horizontal Kerning in Arabic lookup 0 subtable" uniFB98 dx=-100 dy=0 dh=-100 dv=0 dx=0 dy=0 dh=0 dv=0
PairPos2: "'kern' Horizontal Kerning in Arabic lookup 0 subtable" uni06B3 dx=-100 dy=0 dh=-100 dv=0 dx=0 dy=0 dh=0 dv=0
PairPos2: "'kern' Horizontal Kerning in Arabic lookup 0 subtable" uni06B2.init dx=-100 dy=0 dh=-100 dv=0 dx=0 dy=0 dh=0 dv=0
PairPos2: "'kern' Horizontal Kerning in Arabic lookup 0 subtable" uniFB9C dx=-100 dy=0 dh=-100 dv=0 dx=0 dy=0 dh=0 dv=0
PairPos2: "'kern' Horizontal Kerning in Arabic lookup 0 subtable" uni06B1 dx=-100 dy=0 dh=-100 dv=0 dx=0 dy=0 dh=0 dv=0
PairPos2: "'kern' Horizontal Kerning in Arabic lookup 0 subtable" uni06B0.init dx=-100 dy=0 dh=-100 dv=0 dx=0 dy=0 dh=0 dv=0
PairPos2: "'kern' Horizontal Kerning in Arabic lookup 0 subtable" uni06B0 dx=-100 dy=0 dh=-100 dv=0 dx=0 dy=0 dh=0 dv=0
PairPos2: "'kern' Horizontal Kerning in Arabic lookup 0 subtable" uni06AE.init dx=-100 dy=0 dh=-100 dv=0 dx=0 dy=0 dh=0 dv=0
PairPos2: "'kern' Horizontal Kerning in Arabic lookup 0 subtable" uni06AE dx=-50 dy=0 dh=-50 dv=0 dx=0 dy=0 dh=0 dv=0
PairPos2: "'kern' Horizontal Kerning in Arabic lookup 0 subtable" uniFBD5 dx=-100 dy=0 dh=-100 dv=0 dx=0 dy=0 dh=0 dv=0
PairPos2: "'kern' Horizontal Kerning in Arabic lookup 0 subtable" uni06AD dx=-50 dy=0 dh=-50 dv=0 dx=0 dy=0 dh=0 dv=0
PairPos2: "'kern' Horizontal Kerning in Arabic lookup 0 subtable" uni06AB.init dx=-100 dy=0 dh=-100 dv=0 dx=0 dy=0 dh=0 dv=0
PairPos2: "'kern' Horizontal Kerning in Arabic lookup 0 subtable" uni06AB dx=-50 dy=0 dh=-50 dv=0 dx=0 dy=0 dh=0 dv=0
PairPos2: "'kern' Horizontal Kerning in Arabic lookup 0 subtable" uni06AB.init dx=-100 dy=0 dh=-100 dv=0 dx=0 dy=0 dh=0 dv=0
PairPos2: "'kern' Horizontal Kerning in Arabic lookup 0 subtable" uni06AB.001 dx=-100 dy=0 dh=-100 dv=0 dx=0 dy=0 dh=0 dv=0
PairPos2: "'kern' Horizontal Kerning in Arabic lookup 0 subtable" uni0675 dx=-50 dy=0 dh=-50 dv=0 dx=0 dy=0 dh=0 dv=0
PairPos2: "'kern' Horizontal Kerning in Arabic lookup 0 subtable" uni0673 dx=-50 dy=0 dh=-50 dv=0 dx=0 dy=0 dh=0 dv=0
PairPos2: "'kern' Horizontal Kerning in Arabic lookup 0 subtable" uni0672 dx=-50 dy=0 dh=-50 dv=0 dx=0 dy=0 dh=0 dv=0
PairPos2: "'kern' Horizontal Kerning in Arabic lookup 0 subtable" afii62840 dx=-50 dy=0 dh=-50 dv=0 dx=0 dy=0 dh=0 dv=0
PairPos2: "'kern' Horizontal Kerning in Arabic lookup 0 subtable" afii62838 dx=-50 dy=0 dh=-50 dv=0 dx=0 dy=0 dh=0 dv=0
PairPos2: "'kern' Horizontal Kerning in Arabic lookup 0 subtable" afii62836 dx=-50 dy=0 dh=-50 dv=0 dx=0 dy=0 dh=0 dv=0
PairPos2: "'kern' Horizontal Kerning in Arabic lookup 0 subtable" afii62834 dx=-50 dy=0 dh=-50 dv=0 dx=0 dy=0 dh=0 dv=0
PairPos2: "'kern' Horizontal Kerning in Arabic lookup 0 subtable" afii62817 dx=-50 dy=0 dh=-50 dv=0 dx=0 dy=0 dh=0 dv=0
PairPos2: "'kern' Horizontal Kerning in Arabic lookup 0 subtable" afii57410 dx=-100 dy=0 dh=-100 dv=0 dx=0 dy=0 dh=0 dv=0
PairPos2: "'kern' Horizontal Kerning in Arabic lookup 0 subtable" afii57443 dx=-50 dy=0 dh=-50 dv=0 dx=0 dy=0 dh=0 dv=0
PairPos2: "'kern' Horizontal Kerning in Arabic lookup 0 subtable" afii57413 dx=-50 dy=0 dh=-50 dv=0 dx=0 dy=0 dh=0 dv=0
PairPos2: "'kern' Horizontal Kerning in Arabic lookup 0 subtable" afii57411 dx=-50 dy=0 dh=-50 dv=0 dx=0 dy=0 dh=0 dv=0
PairPos2: "'kern' Horizontal Kerning in Arabic lookup 0 subtable" afii62965 dx=-100 dy=0 dh=-100 dv=0 dx=0 dy=0 dh=0 dv=0
PairPos2: "'kern' Horizontal Kerning in Arabic lookup 0 subtable" afii57509 dx=-100 dy=0 dh=-100 dv=0 dx=0 dy=0 dh=0 dv=0
PairPos2: "'kern' Horizontal Kerning in Arabic lookup 0 subtable" afii52305 dx=-100 dy=0 dh=-100 dv=0 dx=0 dy=0 dh=0 dv=0
PairPos2: "'kern' Horizontal Kerning in Arabic lookup 0 subtable" afii57567 dx=-100 dy=0 dh=-100 dv=0 dx=0 dy=0 dh=0 dv=0
EndChar

StartChar: afii62780
Encoding: 65194 65194 278
Width: 860
GlyphClass: 2
Flags: W
AnchorPoint: "Anchor-3" 345 -450 basechar 0
AnchorPoint: "Anchor-2" 300 1065 basechar 0
LayerCount: 2
Fore
SplineSet
120 102 m 0,0,1
 102 185 102 185 112 260 c 1,2,-1
 119 268 l 1,3,-1
 129 265 l 1,4,5
 204 183 204 183 291 183 c 0,6,7
 382 183 382 183 450 215 c 1,8,9
 530 260 530 260 512 343 c 0,10,11
 476 511 476 511 366 725 c 1,12,-1
 366 746 l 1,13,14
 406 826 406 826 410 834 c 1,15,-1
 421 825 l 1,16,17
 473 710 473 710 534 543 c 0,18,19
 568 450 568 450 600 355 c 1,20,21
 654 218 654 218 689 186 c 0,22,23
 731 150 731 150 812 150 c 2,24,-1
 843 150 l 1,25,-1
 875 0 l 1,26,27
 746 0 746 0 681 55 c 0,28,29
 640 92 640 92 563 232 c 1,30,31
 511 125 511 125 456 82 c 0,32,33
 389 28 389 28 272 28 c 0,34,35
 136 28 136 28 120 102 c 0,0,1
EndSplineSet
PairPos2: "'kern' Horizontal Kerning in Arabic lookup 0 subtable" uni06B50627.isol dx=-50 dy=0 dh=-50 dv=0 dx=0 dy=0 dh=0 dv=0
PairPos2: "'kern' Horizontal Kerning in Arabic lookup 0 subtable" uni06B8.init dx=-50 dy=0 dh=-50 dv=0 dx=0 dy=0 dh=0 dv=0
PairPos2: "'kern' Horizontal Kerning in Arabic lookup 0 subtable" uni06B7.init dx=-50 dy=0 dh=-50 dv=0 dx=0 dy=0 dh=0 dv=0
PairPos2: "'kern' Horizontal Kerning in Arabic lookup 0 subtable" uni06B6.init dx=-50 dy=0 dh=-50 dv=0 dx=0 dy=0 dh=0 dv=0
PairPos2: "'kern' Horizontal Kerning in Arabic lookup 0 subtable" uni06B5.init dx=-50 dy=0 dh=-50 dv=0 dx=0 dy=0 dh=0 dv=0
PairPos2: "'kern' Horizontal Kerning in Arabic lookup 0 subtable" uni06B4.init dx=-150 dy=0 dh=-150 dv=0 dx=0 dy=0 dh=0 dv=0
PairPos2: "'kern' Horizontal Kerning in Arabic lookup 0 subtable" uni06B4 dx=-150 dy=0 dh=-150 dv=0 dx=0 dy=0 dh=0 dv=0
PairPos2: "'kern' Horizontal Kerning in Arabic lookup 0 subtable" uniFB98 dx=-150 dy=0 dh=-150 dv=0 dx=0 dy=0 dh=0 dv=0
PairPos2: "'kern' Horizontal Kerning in Arabic lookup 0 subtable" uni06B3 dx=-150 dy=0 dh=-150 dv=0 dx=0 dy=0 dh=0 dv=0
PairPos2: "'kern' Horizontal Kerning in Arabic lookup 0 subtable" uni06B2.init dx=-150 dy=0 dh=-150 dv=0 dx=0 dy=0 dh=0 dv=0
PairPos2: "'kern' Horizontal Kerning in Arabic lookup 0 subtable" uniFB9C dx=-150 dy=0 dh=-150 dv=0 dx=0 dy=0 dh=0 dv=0
PairPos2: "'kern' Horizontal Kerning in Arabic lookup 0 subtable" uni06B1 dx=-150 dy=0 dh=-150 dv=0 dx=0 dy=0 dh=0 dv=0
PairPos2: "'kern' Horizontal Kerning in Arabic lookup 0 subtable" uni06B0.init dx=-150 dy=0 dh=-150 dv=0 dx=0 dy=0 dh=0 dv=0
PairPos2: "'kern' Horizontal Kerning in Arabic lookup 0 subtable" uni06B0 dx=-150 dy=0 dh=-150 dv=0 dx=0 dy=0 dh=0 dv=0
PairPos2: "'kern' Horizontal Kerning in Arabic lookup 0 subtable" uni06AE.init dx=-150 dy=0 dh=-150 dv=0 dx=0 dy=0 dh=0 dv=0
PairPos2: "'kern' Horizontal Kerning in Arabic lookup 0 subtable" uni06AE dx=-50 dy=0 dh=-50 dv=0 dx=0 dy=0 dh=0 dv=0
PairPos2: "'kern' Horizontal Kerning in Arabic lookup 0 subtable" uniFBD5 dx=-150 dy=0 dh=-150 dv=0 dx=0 dy=0 dh=0 dv=0
PairPos2: "'kern' Horizontal Kerning in Arabic lookup 0 subtable" uni06AD dx=-50 dy=0 dh=-50 dv=0 dx=0 dy=0 dh=0 dv=0
PairPos2: "'kern' Horizontal Kerning in Arabic lookup 0 subtable" uni06AB.init dx=-150 dy=0 dh=-150 dv=0 dx=0 dy=0 dh=0 dv=0
PairPos2: "'kern' Horizontal Kerning in Arabic lookup 0 subtable" uni06AB dx=-50 dy=0 dh=-50 dv=0 dx=0 dy=0 dh=0 dv=0
PairPos2: "'kern' Horizontal Kerning in Arabic lookup 0 subtable" uni06AB.init dx=-150 dy=0 dh=-150 dv=0 dx=0 dy=0 dh=0 dv=0
PairPos2: "'kern' Horizontal Kerning in Arabic lookup 0 subtable" uni06AB.001 dx=-150 dy=0 dh=-150 dv=0 dx=0 dy=0 dh=0 dv=0
PairPos2: "'kern' Horizontal Kerning in Arabic lookup 0 subtable" uni0675 dx=-50 dy=0 dh=-50 dv=0 dx=0 dy=0 dh=0 dv=0
PairPos2: "'kern' Horizontal Kerning in Arabic lookup 0 subtable" uni0673 dx=-50 dy=0 dh=-50 dv=0 dx=0 dy=0 dh=0 dv=0
PairPos2: "'kern' Horizontal Kerning in Arabic lookup 0 subtable" uni0672 dx=-50 dy=0 dh=-50 dv=0 dx=0 dy=0 dh=0 dv=0
PairPos2: "'kern' Horizontal Kerning in Arabic lookup 0 subtable" afii62840 dx=-50 dy=0 dh=-50 dv=0 dx=0 dy=0 dh=0 dv=0
PairPos2: "'kern' Horizontal Kerning in Arabic lookup 0 subtable" afii62838 dx=-50 dy=0 dh=-50 dv=0 dx=0 dy=0 dh=0 dv=0
PairPos2: "'kern' Horizontal Kerning in Arabic lookup 0 subtable" afii62836 dx=-50 dy=0 dh=-50 dv=0 dx=0 dy=0 dh=0 dv=0
PairPos2: "'kern' Horizontal Kerning in Arabic lookup 0 subtable" afii62834 dx=-50 dy=0 dh=-50 dv=0 dx=0 dy=0 dh=0 dv=0
PairPos2: "'kern' Horizontal Kerning in Arabic lookup 0 subtable" afii62817 dx=-50 dy=0 dh=-50 dv=0 dx=0 dy=0 dh=0 dv=0
PairPos2: "'kern' Horizontal Kerning in Arabic lookup 0 subtable" afii57410 dx=-150 dy=0 dh=-150 dv=0 dx=0 dy=0 dh=0 dv=0
PairPos2: "'kern' Horizontal Kerning in Arabic lookup 0 subtable" afii57443 dx=-50 dy=0 dh=-50 dv=0 dx=0 dy=0 dh=0 dv=0
PairPos2: "'kern' Horizontal Kerning in Arabic lookup 0 subtable" afii57413 dx=-50 dy=0 dh=-50 dv=0 dx=0 dy=0 dh=0 dv=0
PairPos2: "'kern' Horizontal Kerning in Arabic lookup 0 subtable" afii57411 dx=-50 dy=0 dh=-50 dv=0 dx=0 dy=0 dh=0 dv=0
PairPos2: "'kern' Horizontal Kerning in Arabic lookup 0 subtable" afii62965 dx=-150 dy=0 dh=-150 dv=0 dx=0 dy=0 dh=0 dv=0
PairPos2: "'kern' Horizontal Kerning in Arabic lookup 0 subtable" afii57509 dx=-150 dy=0 dh=-150 dv=0 dx=0 dy=0 dh=0 dv=0
PairPos2: "'kern' Horizontal Kerning in Arabic lookup 0 subtable" afii52305 dx=-150 dy=0 dh=-150 dv=0 dx=0 dy=0 dh=0 dv=0
PairPos2: "'kern' Horizontal Kerning in Arabic lookup 0 subtable" afii57567 dx=-150 dy=0 dh=-150 dv=0 dx=0 dy=0 dh=0 dv=0
EndChar

StartChar: afii57425
Encoding: 1585 1585 281
Width: 675
GlyphClass: 2
Flags: W
AnchorPoint: "Anchor-3" 270 -735 basechar 0
AnchorPoint: "Anchor-2" 465 645 basechar 0
LayerCount: 2
Fore
SplineSet
65 -251 m 0,0,1
 61 -230 61 -230 95 -226 c 0,2,3
 171 -219 171 -219 245 -213 c 0,4,5
 332 -205 332 -205 386 -176 c 0,6,7
 453 -143 453 -143 517 -57 c 0,8,9
 593 41 593 41 579 107 c 0,10,11
 568 159 568 159 511 227 c 0,12,13
 446 307 446 307 429 340 c 1,14,15
 437 358 437 358 465.5 404 c 128,-1,16
 494 450 494 450 506 459 c 1,17,-1
 517 453 l 1,18,19
 602 323 602 323 631 191 c 0,20,21
 667 19 667 19 585 -143 c 0,22,23
 503 -313 503 -313 347 -355 c 1,24,25
 70 -273 70 -273 65 -251 c 0,0,1
EndSplineSet
Substitution2: "'fina' Terminal Forms in Arabic lookup 3 subtable" afii62782
PairPos2: "'kern' Horizontal Kerning in Arabic lookup 0 subtable" uni0647 dx=-100 dy=0 dh=-100 dv=0 dx=0 dy=0 dh=0 dv=0
PairPos2: "'kern' Horizontal Kerning in Arabic lookup 0 subtable" uni06BE dx=-100 dy=0 dh=-100 dv=0 dx=0 dy=0 dh=0 dv=0
PairPos2: "'kern' Horizontal Kerning in Arabic lookup 0 subtable" uniFBAC dx=-100 dy=0 dh=-100 dv=0 dx=0 dy=0 dh=0 dv=0
PairPos2: "'kern' Horizontal Kerning in Arabic lookup 0 subtable" uni06B50627.isol dx=-100 dy=0 dh=-100 dv=0 dx=0 dy=0 dh=0 dv=0
PairPos2: "'kern' Horizontal Kerning in Arabic lookup 0 subtable" afii57415 dx=-100 dy=0 dh=-100 dv=0 dx=0 dy=0 dh=0 dv=0
PairPos2: "'kern' Horizontal Kerning in Arabic lookup 0 subtable" uni068A dx=-100 dy=0 dh=-100 dv=0 dx=0 dy=0 dh=0 dv=0
PairPos2: "'kern' Horizontal Kerning in Arabic lookup 0 subtable" uni06FC.init dx=-100 dy=0 dh=-100 dv=0 dx=0 dy=0 dh=0 dv=0
PairPos2: "'kern' Horizontal Kerning in Arabic lookup 0 subtable" uni06FB.init dx=-100 dy=0 dh=-100 dv=0 dx=0 dy=0 dh=0 dv=0
PairPos2: "'kern' Horizontal Kerning in Arabic lookup 0 subtable" uni06FA.init dx=-100 dy=0 dh=-100 dv=0 dx=0 dy=0 dh=0 dv=0
PairPos2: "'kern' Horizontal Kerning in Arabic lookup 0 subtable" uni06CE.init dx=100 dy=0 dh=100 dv=0 dx=0 dy=0 dh=0 dv=0
PairPos2: "'kern' Horizontal Kerning in Arabic lookup 0 subtable" uni06C5 dx=-50 dy=0 dh=-50 dv=0 dx=0 dy=0 dh=0 dv=0
PairPos2: "'kern' Horizontal Kerning in Arabic lookup 0 subtable" uni06C4 dx=-50 dy=0 dh=-50 dv=0 dx=0 dy=0 dh=0 dv=0
PairPos2: "'kern' Horizontal Kerning in Arabic lookup 0 subtable" uni06BC.init dx=100 dy=0 dh=100 dv=0 dx=0 dy=0 dh=0 dv=0
PairPos2: "'kern' Horizontal Kerning in Arabic lookup 0 subtable" uni06B9.init dx=100 dy=0 dh=100 dv=0 dx=0 dy=0 dh=0 dv=0
PairPos2: "'kern' Horizontal Kerning in Arabic lookup 0 subtable" uni06B8.init dx=100 dy=0 dh=100 dv=0 dx=0 dy=0 dh=0 dv=0
PairPos2: "'kern' Horizontal Kerning in Arabic lookup 0 subtable" uni06B8 dx=50 dy=0 dh=50 dv=0 dx=0 dy=0 dh=0 dv=0
PairPos2: "'kern' Horizontal Kerning in Arabic lookup 0 subtable" uni06B7.init dx=-150 dy=0 dh=-150 dv=0 dx=0 dy=0 dh=0 dv=0
PairPos2: "'kern' Horizontal Kerning in Arabic lookup 0 subtable" uni06B7 dx=50 dy=0 dh=50 dv=0 dx=0 dy=0 dh=0 dv=0
PairPos2: "'kern' Horizontal Kerning in Arabic lookup 0 subtable" uni06B6.init dx=-150 dy=0 dh=-150 dv=0 dx=0 dy=0 dh=0 dv=0
PairPos2: "'kern' Horizontal Kerning in Arabic lookup 0 subtable" uni06B6 dx=50 dy=0 dh=50 dv=0 dx=0 dy=0 dh=0 dv=0
PairPos2: "'kern' Horizontal Kerning in Arabic lookup 0 subtable" uni06B5.init dx=-150 dy=0 dh=-150 dv=0 dx=0 dy=0 dh=0 dv=0
PairPos2: "'kern' Horizontal Kerning in Arabic lookup 0 subtable" uni06B5 dx=50 dy=0 dh=50 dv=0 dx=0 dy=0 dh=0 dv=0
PairPos2: "'kern' Horizontal Kerning in Arabic lookup 0 subtable" uni06B4.init dx=-250 dy=0 dh=-250 dv=0 dx=0 dy=0 dh=0 dv=0
PairPos2: "'kern' Horizontal Kerning in Arabic lookup 0 subtable" uni06B4 dx=-200 dy=0 dh=-200 dv=0 dx=0 dy=0 dh=0 dv=0
PairPos2: "'kern' Horizontal Kerning in Arabic lookup 0 subtable" uniFB98 dx=-250 dy=0 dh=-250 dv=0 dx=0 dy=0 dh=0 dv=0
PairPos2: "'kern' Horizontal Kerning in Arabic lookup 0 subtable" uni06B3 dx=-200 dy=0 dh=-200 dv=0 dx=0 dy=0 dh=0 dv=0
PairPos2: "'kern' Horizontal Kerning in Arabic lookup 0 subtable" uni06B2.init dx=-250 dy=0 dh=-250 dv=0 dx=0 dy=0 dh=0 dv=0
PairPos2: "'kern' Horizontal Kerning in Arabic lookup 0 subtable" uniFB9C dx=-250 dy=0 dh=-250 dv=0 dx=0 dy=0 dh=0 dv=0
PairPos2: "'kern' Horizontal Kerning in Arabic lookup 0 subtable" uni06B1 dx=-200 dy=0 dh=-200 dv=0 dx=0 dy=0 dh=0 dv=0
PairPos2: "'kern' Horizontal Kerning in Arabic lookup 0 subtable" uni06B0.init dx=-250 dy=0 dh=-250 dv=0 dx=0 dy=0 dh=0 dv=0
PairPos2: "'kern' Horizontal Kerning in Arabic lookup 0 subtable" uni06B0 dx=-200 dy=0 dh=-200 dv=0 dx=0 dy=0 dh=0 dv=0
PairPos2: "'kern' Horizontal Kerning in Arabic lookup 0 subtable" uni06AE.init dx=-250 dy=0 dh=-250 dv=0 dx=0 dy=0 dh=0 dv=0
PairPos2: "'kern' Horizontal Kerning in Arabic lookup 0 subtable" uni06AE dx=-100 dy=0 dh=-100 dv=0 dx=0 dy=0 dh=0 dv=0
PairPos2: "'kern' Horizontal Kerning in Arabic lookup 0 subtable" uniFBD5 dx=-250 dy=0 dh=-250 dv=0 dx=0 dy=0 dh=0 dv=0
PairPos2: "'kern' Horizontal Kerning in Arabic lookup 0 subtable" uni06AD dx=-100 dy=0 dh=-100 dv=0 dx=0 dy=0 dh=0 dv=0
PairPos2: "'kern' Horizontal Kerning in Arabic lookup 0 subtable" uni06AB.init dx=-250 dy=0 dh=-250 dv=0 dx=0 dy=0 dh=0 dv=0
PairPos2: "'kern' Horizontal Kerning in Arabic lookup 0 subtable" uni06AB dx=-100 dy=0 dh=-100 dv=0 dx=0 dy=0 dh=0 dv=0
PairPos2: "'kern' Horizontal Kerning in Arabic lookup 0 subtable" uni06AB.init dx=-250 dy=0 dh=-250 dv=0 dx=0 dy=0 dh=0 dv=0
PairPos2: "'kern' Horizontal Kerning in Arabic lookup 0 subtable" uni06AB.001 dx=-200 dy=0 dh=-200 dv=0 dx=0 dy=0 dh=0 dv=0
PairPos2: "'kern' Horizontal Kerning in Arabic lookup 0 subtable" uniFB70 dx=-100 dy=0 dh=-100 dv=0 dx=0 dy=0 dh=0 dv=0
PairPos2: "'kern' Horizontal Kerning in Arabic lookup 0 subtable" uni06A0.init dx=-100 dy=0 dh=-100 dv=0 dx=0 dy=0 dh=0 dv=0
PairPos2: "'kern' Horizontal Kerning in Arabic lookup 0 subtable" uni06A0 dx=-100 dy=0 dh=-100 dv=0 dx=0 dy=0 dh=0 dv=0
PairPos2: "'kern' Horizontal Kerning in Arabic lookup 0 subtable" uni069F dx=-100 dy=0 dh=-100 dv=0 dx=0 dy=0 dh=0 dv=0
PairPos2: "'kern' Horizontal Kerning in Arabic lookup 0 subtable" uni069E.init dx=-100 dy=0 dh=-100 dv=0 dx=0 dy=0 dh=0 dv=0
PairPos2: "'kern' Horizontal Kerning in Arabic lookup 0 subtable" uni069D.init dx=-100 dy=0 dh=-100 dv=0 dx=0 dy=0 dh=0 dv=0
PairPos2: "'kern' Horizontal Kerning in Arabic lookup 0 subtable" uni069C.init dx=-100 dy=0 dh=-100 dv=0 dx=0 dy=0 dh=0 dv=0
PairPos2: "'kern' Horizontal Kerning in Arabic lookup 0 subtable" uni069B.init dx=-100 dy=0 dh=-100 dv=0 dx=0 dy=0 dh=0 dv=0
PairPos2: "'kern' Horizontal Kerning in Arabic lookup 0 subtable" uni069A.init dx=-100 dy=0 dh=-100 dv=0 dx=0 dy=0 dh=0 dv=0
PairPos2: "'kern' Horizontal Kerning in Arabic lookup 0 subtable" uni0695 dx=-50 dy=0 dh=-50 dv=0 dx=0 dy=0 dh=0 dv=0
PairPos2: "'kern' Horizontal Kerning in Arabic lookup 0 subtable" uni0694 dx=-50 dy=0 dh=-50 dv=0 dx=0 dy=0 dh=0 dv=0
PairPos2: "'kern' Horizontal Kerning in Arabic lookup 0 subtable" uni0693 dx=-50 dy=0 dh=-50 dv=0 dx=0 dy=0 dh=0 dv=0
PairPos2: "'kern' Horizontal Kerning in Arabic lookup 0 subtable" uni068e dx=-100 dy=0 dh=-100 dv=0 dx=0 dy=0 dh=0 dv=0
PairPos2: "'kern' Horizontal Kerning in Arabic lookup 0 subtable" uni068d dx=-100 dy=0 dh=-100 dv=0 dx=0 dy=0 dh=0 dv=0
PairPos2: "'kern' Horizontal Kerning in Arabic lookup 0 subtable" uni068c dx=-100 dy=0 dh=-100 dv=0 dx=0 dy=0 dh=0 dv=0
PairPos2: "'kern' Horizontal Kerning in Arabic lookup 0 subtable" uni068b dx=-100 dy=0 dh=-100 dv=0 dx=0 dy=0 dh=0 dv=0
PairPos2: "'kern' Horizontal Kerning in Arabic lookup 0 subtable" uni0689 dx=-100 dy=0 dh=-100 dv=0 dx=0 dy=0 dh=0 dv=0
PairPos2: "'kern' Horizontal Kerning in Arabic lookup 0 subtable" uniFB5C dx=100 dy=0 dh=100 dv=0 dx=0 dy=0 dh=0 dv=0
PairPos2: "'kern' Horizontal Kerning in Arabic lookup 0 subtable" uniFB64 dx=-100 dy=0 dh=-100 dv=0 dx=0 dy=0 dh=0 dv=0
PairPos2: "'kern' Horizontal Kerning in Arabic lookup 0 subtable" uni067D.init dx=-100 dy=0 dh=-100 dv=0 dx=0 dy=0 dh=0 dv=0
PairPos2: "'kern' Horizontal Kerning in Arabic lookup 0 subtable" uni067C.init dx=100 dy=0 dh=100 dv=0 dx=0 dy=0 dh=0 dv=0
PairPos2: "'kern' Horizontal Kerning in Arabic lookup 0 subtable" uniFB54 dx=100 dy=0 dh=100 dv=0 dx=0 dy=0 dh=0 dv=0
PairPos2: "'kern' Horizontal Kerning in Arabic lookup 0 subtable" uniFB60 dx=-100 dy=0 dh=-100 dv=0 dx=0 dy=0 dh=0 dv=0
PairPos2: "'kern' Horizontal Kerning in Arabic lookup 0 subtable" uni0675 dx=-100 dy=0 dh=-100 dv=0 dx=0 dy=0 dh=0 dv=0
PairPos2: "'kern' Horizontal Kerning in Arabic lookup 0 subtable" uni0673 dx=70 dy=0 dh=70 dv=0 dx=0 dy=0 dh=0 dv=0
PairPos2: "'kern' Horizontal Kerning in Arabic lookup 0 subtable" uni0672 dx=-100 dy=0 dh=-100 dv=0 dx=0 dy=0 dh=0 dv=0
PairPos2: "'kern' Horizontal Kerning in Arabic lookup 0 subtable" uniFBA6 dx=-100 dy=0 dh=-100 dv=0 dx=0 dy=0 dh=0 dv=0
PairPos2: "'kern' Horizontal Kerning in Arabic lookup 0 subtable" uni06D3 dx=-100 dy=0 dh=-100 dv=0 dx=0 dy=0 dh=0 dv=0
PairPos2: "'kern' Horizontal Kerning in Arabic lookup 0 subtable" uni06D2 dx=-100 dy=0 dh=-100 dv=0 dx=0 dy=0 dh=0 dv=0
PairPos2: "'kern' Horizontal Kerning in Arabic lookup 0 subtable" uniFBA8 dx=100 dy=0 dh=100 dv=0 dx=0 dy=0 dh=0 dv=0
PairPos2: "'kern' Horizontal Kerning in Arabic lookup 0 subtable" uni0688 dx=-100 dy=0 dh=-100 dv=0 dx=0 dy=0 dh=0 dv=0
PairPos2: "'kern' Horizontal Kerning in Arabic lookup 0 subtable" uniFB68 dx=-100 dy=0 dh=-100 dv=0 dx=0 dy=0 dh=0 dv=0
PairPos2: "'kern' Horizontal Kerning in Arabic lookup 0 subtable" uniFBFE dx=100 dy=0 dh=100 dv=0 dx=0 dy=0 dh=0 dv=0
PairPos2: "'kern' Horizontal Kerning in Arabic lookup 0 subtable" uniFBA4 dx=-100 dy=0 dh=-100 dv=0 dx=0 dy=0 dh=0 dv=0
PairPos2: "'kern' Horizontal Kerning in Arabic lookup 0 subtable" uni06C0 dx=-100 dy=0 dh=-100 dv=0 dx=0 dy=0 dh=0 dv=0
PairPos2: "'kern' Horizontal Kerning in Arabic lookup 0 subtable" afii62840 dx=-100 dy=0 dh=-100 dv=0 dx=0 dy=0 dh=0 dv=0
PairPos2: "'kern' Horizontal Kerning in Arabic lookup 0 subtable" afii62838 dx=-100 dy=0 dh=-100 dv=0 dx=0 dy=0 dh=0 dv=0
PairPos2: "'kern' Horizontal Kerning in Arabic lookup 0 subtable" afii62836 dx=-100 dy=0 dh=-100 dv=0 dx=0 dy=0 dh=0 dv=0
PairPos2: "'kern' Horizontal Kerning in Arabic lookup 0 subtable" afii62834 dx=-100 dy=0 dh=-100 dv=0 dx=0 dy=0 dh=0 dv=0
PairPos2: "'kern' Horizontal Kerning in Arabic lookup 0 subtable" afii62831 dx=100 dy=0 dh=100 dv=0 dx=0 dy=0 dh=0 dv=0
PairPos2: "'kern' Horizontal Kerning in Arabic lookup 0 subtable" afii57448 dx=-50 dy=0 dh=-50 dv=0 dx=0 dy=0 dh=0 dv=0
PairPos2: "'kern' Horizontal Kerning in Arabic lookup 0 subtable" afii57470 dx=-100 dy=0 dh=-100 dv=0 dx=0 dy=0 dh=0 dv=0
PairPos2: "'kern' Horizontal Kerning in Arabic lookup 0 subtable" afii57447 dx=-100 dy=0 dh=-100 dv=0 dx=0 dy=0 dh=0 dv=0
PairPos2: "'kern' Horizontal Kerning in Arabic lookup 0 subtable" afii62823 dx=-100 dy=0 dh=-100 dv=0 dx=0 dy=0 dh=0 dv=0
PairPos2: "'kern' Horizontal Kerning in Arabic lookup 0 subtable" afii57445 dx=-100 dy=0 dh=-100 dv=0 dx=0 dy=0 dh=0 dv=0
PairPos2: "'kern' Horizontal Kerning in Arabic lookup 0 subtable" afii62817 dx=-150 dy=0 dh=-150 dv=0 dx=0 dy=0 dh=0 dv=0
PairPos2: "'kern' Horizontal Kerning in Arabic lookup 0 subtable" afii57444 dx=50 dy=0 dh=50 dv=0 dx=0 dy=0 dh=0 dv=0
PairPos2: "'kern' Horizontal Kerning in Arabic lookup 0 subtable" afii57410 dx=-250 dy=0 dh=-250 dv=0 dx=0 dy=0 dh=0 dv=0
PairPos2: "'kern' Horizontal Kerning in Arabic lookup 0 subtable" afii57443 dx=-100 dy=0 dh=-100 dv=0 dx=0 dy=0 dh=0 dv=0
PairPos2: "'kern' Horizontal Kerning in Arabic lookup 0 subtable" afii62811 dx=-100 dy=0 dh=-100 dv=0 dx=0 dy=0 dh=0 dv=0
PairPos2: "'kern' Horizontal Kerning in Arabic lookup 0 subtable" afii62808 dx=-100 dy=0 dh=-100 dv=0 dx=0 dy=0 dh=0 dv=0
PairPos2: "'kern' Horizontal Kerning in Arabic lookup 0 subtable" afii62805 dx=-100 dy=0 dh=-100 dv=0 dx=0 dy=0 dh=0 dv=0
PairPos2: "'kern' Horizontal Kerning in Arabic lookup 0 subtable" afii57434 dx=-100 dy=0 dh=-100 dv=0 dx=0 dy=0 dh=0 dv=0
PairPos2: "'kern' Horizontal Kerning in Arabic lookup 0 subtable" afii62802 dx=-100 dy=0 dh=-100 dv=0 dx=0 dy=0 dh=0 dv=0
PairPos2: "'kern' Horizontal Kerning in Arabic lookup 0 subtable" afii57433 dx=-100 dy=0 dh=-100 dv=0 dx=0 dy=0 dh=0 dv=0
PairPos2: "'kern' Horizontal Kerning in Arabic lookup 0 subtable" afii62799 dx=-100 dy=0 dh=-100 dv=0 dx=0 dy=0 dh=0 dv=0
PairPos2: "'kern' Horizontal Kerning in Arabic lookup 0 subtable" afii57432 dx=-100 dy=0 dh=-100 dv=0 dx=0 dy=0 dh=0 dv=0
PairPos2: "'kern' Horizontal Kerning in Arabic lookup 0 subtable" afii62796 dx=-100 dy=0 dh=-100 dv=0 dx=0 dy=0 dh=0 dv=0
PairPos2: "'kern' Horizontal Kerning in Arabic lookup 0 subtable" afii57431 dx=-100 dy=0 dh=-100 dv=0 dx=0 dy=0 dh=0 dv=0
PairPos2: "'kern' Horizontal Kerning in Arabic lookup 0 subtable" afii62793 dx=-100 dy=0 dh=-100 dv=0 dx=0 dy=0 dh=0 dv=0
PairPos2: "'kern' Horizontal Kerning in Arabic lookup 0 subtable" afii62790 dx=-100 dy=0 dh=-100 dv=0 dx=0 dy=0 dh=0 dv=0
PairPos2: "'kern' Horizontal Kerning in Arabic lookup 0 subtable" afii62787 dx=-100 dy=0 dh=-100 dv=0 dx=0 dy=0 dh=0 dv=0
PairPos2: "'kern' Horizontal Kerning in Arabic lookup 0 subtable" afii62784 dx=-100 dy=0 dh=-100 dv=0 dx=0 dy=0 dh=0 dv=0
PairPos2: "'kern' Horizontal Kerning in Arabic lookup 0 subtable" afii57426 dx=-50 dy=0 dh=-50 dv=0 dx=0 dy=0 dh=0 dv=0
PairPos2: "'kern' Horizontal Kerning in Arabic lookup 0 subtable" afii57425 dx=-50 dy=0 dh=-50 dv=0 dx=0 dy=0 dh=0 dv=0
PairPos2: "'kern' Horizontal Kerning in Arabic lookup 0 subtable" afii57424 dx=-100 dy=0 dh=-100 dv=0 dx=0 dy=0 dh=0 dv=0
PairPos2: "'kern' Horizontal Kerning in Arabic lookup 0 subtable" afii57423 dx=-100 dy=0 dh=-100 dv=0 dx=0 dy=0 dh=0 dv=0
PairPos2: "'kern' Horizontal Kerning in Arabic lookup 0 subtable" afii62768 dx=-100 dy=0 dh=-100 dv=0 dx=0 dy=0 dh=0 dv=0
PairPos2: "'kern' Horizontal Kerning in Arabic lookup 0 subtable" afii62765 dx=-100 dy=0 dh=-100 dv=0 dx=0 dy=0 dh=0 dv=0
PairPos2: "'kern' Horizontal Kerning in Arabic lookup 0 subtable" afii57417 dx=-100 dy=0 dh=-100 dv=0 dx=0 dy=0 dh=0 dv=0
PairPos2: "'kern' Horizontal Kerning in Arabic lookup 0 subtable" afii62761 dx=100 dy=0 dh=100 dv=0 dx=0 dy=0 dh=0 dv=0
PairPos2: "'kern' Horizontal Kerning in Arabic lookup 0 subtable" afii57415.001 dx=-100 dy=0 dh=-100 dv=0 dx=0 dy=0 dh=0 dv=0
PairPos2: "'kern' Horizontal Kerning in Arabic lookup 0 subtable" afii62757 dx=-100 dy=0 dh=-100 dv=0 dx=0 dy=0 dh=0 dv=0
PairPos2: "'kern' Horizontal Kerning in Arabic lookup 0 subtable" afii57413 dx=70 dy=0 dh=70 dv=0 dx=0 dy=0 dh=0 dv=0
PairPos2: "'kern' Horizontal Kerning in Arabic lookup 0 subtable" afii57411 dx=-100 dy=0 dh=-100 dv=0 dx=0 dy=0 dh=0 dv=0
PairPos2: "'kern' Horizontal Kerning in Arabic lookup 0 subtable" afii52399 dx=-100 dy=0 dh=-100 dv=0 dx=0 dy=0 dh=0 dv=0
PairPos2: "'kern' Horizontal Kerning in Arabic lookup 0 subtable" afii62965 dx=-250 dy=0 dh=-250 dv=0 dx=0 dy=0 dh=0 dv=0
PairPos2: "'kern' Horizontal Kerning in Arabic lookup 0 subtable" afii57509 dx=-200 dy=0 dh=-200 dv=0 dx=0 dy=0 dh=0 dv=0
PairPos2: "'kern' Horizontal Kerning in Arabic lookup 0 subtable" afii52305 dx=-250 dy=0 dh=-250 dv=0 dx=0 dy=0 dh=0 dv=0
PairPos2: "'kern' Horizontal Kerning in Arabic lookup 0 subtable" afii57567 dx=-200 dy=0 dh=-200 dv=0 dx=0 dy=0 dh=0 dv=0
PairPos2: "'kern' Horizontal Kerning in Arabic lookup 0 subtable" afii62956 dx=100 dy=0 dh=100 dv=0 dx=0 dy=0 dh=0 dv=0
PairPos2: "'kern' Horizontal Kerning in Arabic lookup 0 subtable" afii57372 dx=-100 dy=0 dh=-100 dv=0 dx=0 dy=0 dh=0 dv=0
PairPos2: "'kern' Horizontal Kerning in Arabic lookup 0 subtable" afii57534 dx=-100 dy=0 dh=-100 dv=0 dx=0 dy=0 dh=0 dv=0
EndChar

